<?xml version="1.0" encoding="UTF-8" standalone="no"?>
<!-- Created with Inkscape (http://www.inkscape.org/) -->

<svg
   width="100mm"
   height="100mm"
   viewBox="0 0 100 100"
   version="1.1"
   id="svg5"
   inkscape:version="1.1.1 (3bf5ae0d25, 2021-09-20)"
   sodipodi:docname="carrot.svg"
   xmlns:inkscape="http://www.inkscape.org/namespaces/inkscape"
   xmlns:sodipodi="http://sodipodi.sourceforge.net/DTD/sodipodi-0.dtd"
   xmlns="http://www.w3.org/2000/svg"
   xmlns:svg="http://www.w3.org/2000/svg">
  <sodipodi:namedview
     id="namedview7"
     pagecolor="#ffffff"
     bordercolor="#666666"
     borderopacity="1.0"
     inkscape:pageshadow="2"
     inkscape:pageopacity="0.0"
     inkscape:pagecheckerboard="0"
     inkscape:document-units="mm"
     showgrid="false"
     width="210mm"
     inkscape:snap-nodes="false"
     inkscape:zoom="1.587419"
     inkscape:cx="41.261948"
     inkscape:cy="181.1116"
     inkscape:window-width="1920"
     inkscape:window-height="1007"
     inkscape:window-x="0"
     inkscape:window-y="0"
     inkscape:window-maximized="1"
     inkscape:current-layer="layer1" />
  <defs
     id="defs2">
    <inkscape:path-effect
       effect="bspline"
       id="path-effect76588"
       is_visible="true"
       lpeversion="1"
       weight="33.333333"
       steps="2"
       helper_size="0"
       apply_no_weight="true"
       apply_with_weight="true"
       only_selected="false" />
    <inkscape:path-effect
       effect="bspline"
       id="path-effect49752"
       is_visible="true"
       lpeversion="1"
       weight="33.333333"
       steps="2"
       helper_size="0"
       apply_no_weight="true"
       apply_with_weight="true"
       only_selected="false" />
    <inkscape:path-effect
       effect="bspline"
       id="path-effect32319"
       is_visible="true"
       lpeversion="1"
       weight="33.333333"
       steps="2"
       helper_size="0"
       apply_no_weight="true"
       apply_with_weight="true"
       only_selected="false" />
    <inkscape:path-effect
       effect="bspline"
       id="path-effect32282"
       is_visible="true"
       lpeversion="1"
       weight="33.333333"
       steps="2"
       helper_size="0"
       apply_no_weight="true"
       apply_with_weight="true"
       only_selected="false" />
    <inkscape:path-effect
       effect="bspline"
       id="path-effect17959"
       is_visible="true"
       lpeversion="1"
       weight="33.333333"
       steps="2"
       helper_size="0"
       apply_no_weight="true"
       apply_with_weight="true"
       only_selected="false" />
    <inkscape:path-effect
       effect="bspline"
       id="path-effect17842"
       is_visible="true"
       lpeversion="1"
       weight="33.333333"
       steps="2"
       helper_size="0"
       apply_no_weight="true"
       apply_with_weight="true"
       only_selected="false" />
    <inkscape:path-effect
       effect="bspline"
       id="path-effect17645"
       is_visible="true"
       lpeversion="1"
       weight="33.333333"
       steps="2"
       helper_size="0"
       apply_no_weight="true"
       apply_with_weight="true"
       only_selected="false" />
    <inkscape:path-effect
       effect="bspline"
       id="path-effect17641"
       is_visible="true"
       lpeversion="1"
       weight="33.333333"
       steps="2"
       helper_size="0"
       apply_no_weight="true"
       apply_with_weight="true"
       only_selected="false" />
    <inkscape:path-effect
       effect="bspline"
       id="path-effect17637"
       is_visible="true"
       lpeversion="1"
       weight="33.333333"
       steps="2"
       helper_size="0"
       apply_no_weight="true"
       apply_with_weight="true"
       only_selected="false" />
    <inkscape:path-effect
       effect="bspline"
       id="path-effect17633"
       is_visible="true"
       lpeversion="1"
       weight="33.333333"
       steps="2"
       helper_size="0"
       apply_no_weight="true"
       apply_with_weight="true"
       only_selected="false" />
    <inkscape:path-effect
       effect="bspline"
       id="path-effect17625"
       is_visible="true"
       lpeversion="1"
       weight="33.333333"
       steps="2"
       helper_size="0"
       apply_no_weight="true"
       apply_with_weight="true"
       only_selected="false" />
    <inkscape:path-effect
       effect="bspline"
       id="path-effect17621"
       is_visible="true"
       lpeversion="1"
       weight="33.333333"
       steps="2"
       helper_size="0"
       apply_no_weight="true"
       apply_with_weight="true"
       only_selected="false" />
    <inkscape:path-effect
       effect="bspline"
       id="path-effect17223"
       is_visible="true"
       lpeversion="1"
       weight="33.333333"
       steps="2"
       helper_size="0"
       apply_no_weight="true"
       apply_with_weight="true"
       only_selected="false" />
    <inkscape:path-effect
       effect="bspline"
       id="path-effect56"
       is_visible="true"
       lpeversion="1"
       weight="33.333333"
       steps="2"
       helper_size="0"
       apply_no_weight="true"
       apply_with_weight="true"
       only_selected="false" />
  </defs>
  <g
     inkscape:label="Layer 1"
     inkscape:groupmode="layer"
     id="layer1">
    <path
       style="fill:none;stroke:#000000;stroke-width:1.5;stroke-linecap:butt;stroke-linejoin:miter;stroke-opacity:1;stroke-miterlimit:4;stroke-dasharray:none"
       d="m 41.997198,37.297934 c 3.021906,0.334379 6.043546,0.66873 9.812606,0.903713 3.769059,0.234984 8.285384,0.370619 11.169476,0.341487 2.884091,-0.02913 4.135865,-0.222989 5.387472,-0.41682"
       id="path17221"
       inkscape:path-effect="#path-effect17223"
       inkscape:original-d="m 41.997198,37.297934 c 3.021878,0.334635 6.043518,0.668985 9.06491,1.003049 4.516747,0.135926 9.033072,0.27156 13.549245,0.406913 1.252067,-0.193577 2.503841,-0.387435 3.755399,-0.581582" />
    <path
       style="fill:#6a9b01;fill-opacity:1;stroke:#5d830d;stroke-width:1.29883;stroke-linecap:butt;stroke-linejoin:miter;stroke-miterlimit:4;stroke-dasharray:none;stroke-opacity:1"
       d="M 50.930096,28.410733 C 50.609967,25.50641 49.96965,19.697243 48.770771,15.460716 47.571893,11.22419 45.814248,8.5604328 44.20509,6.7889964 42.595932,5.01756 41.135208,4.1387529 41.185166,3.5628829 c 0.04996,-0.5758701 1.610771,-0.848434 3.263344,-0.1811432 1.652574,0.6672908 3.39663,2.2739252 5.304596,5.6350491 1.907965,3.3611242 3.979938,8.4763562 5.336894,12.6288442 1.356956,4.152488 1.99894,7.342009 2.174368,9.309703 0.175427,1.967694 -0.115477,2.71371 -1.216488,2.986701 -1.10101,0.27299 -3.012581,0.07321 -3.947446,-0.443203 -0.934865,-0.516413 -0.892555,-1.349854 -0.871387,-1.766815 0.02117,-0.416962 0.02118,-0.416962 -0.298951,-3.321286 z"
       id="path32317"
       inkscape:path-effect="#path-effect32319"
       inkscape:original-d="M 51.250226,31.315057 C 50.610272,25.506376 49.969956,19.697209 49.329275,13.887548 47.571921,11.224171 45.814278,8.5604128 44.056229,5.8961099 c -1.460416,-0.8783516 -2.92114,-1.757159 -4.38226,-2.6364738 1.561248,-0.2720853 3.122062,-0.5446502 4.682548,-0.8177102 1.744489,1.6071889 3.488544,3.2138246 5.232277,4.8200029 2.072415,5.1159282 4.144391,10.2311592 6.216044,15.3460052 0.642371,3.190136 1.284354,6.379657 1.92599,9.568751 -0.290547,0.746534 -0.581457,1.492548 -0.872729,2.238087 -1.911276,-0.199298 -3.822847,-0.399078 -5.734818,-0.599352 0.04267,-0.83298 0.08499,-1.66642 0.126933,-2.500363 z" />
    <path
       style="fill:#5f901a;fill-opacity:1;stroke:#517a15;stroke-width:1.29883;stroke-linecap:butt;stroke-linejoin:miter;stroke-miterlimit:4;stroke-dasharray:none;stroke-opacity:1"
       d="m 60.278982,29.647426 c 0.652086,-1.520875 1.956381,-4.562909 3.468914,-6.879502 1.512532,-2.316593 3.233164,-3.907448 4.397907,-5.084395 1.164743,-1.176946 1.773595,-1.940007 1.360457,-2.471988 -0.413137,-0.531981 -1.848753,-0.832831 -3.299011,-0.534767 -1.450257,0.298065 -2.914668,1.195136 -4.613259,2.791219 -1.698591,1.596084 -3.63112,3.890934 -4.938368,6.360271 -1.307248,2.469337 -1.989141,5.112738 -1.925107,6.6331 0.06403,1.520363 0.873399,1.917752 1.937095,2.162879 1.063696,0.245126 2.381751,0.338192 2.917339,0.07045 0.535589,-0.267741 0.288877,-0.896785 0.165412,-1.211587 -0.123466,-0.314803 -0.123465,-0.314807 0.528621,-1.835682 z"
       id="path49750"
       inkscape:path-effect="#path-effect49752"
       inkscape:original-d="m 59.626896,31.168301 c 1.304659,-3.041541 2.608951,-6.083576 3.912881,-9.126097 1.721062,-1.590429 3.441694,-3.181283 5.161994,-4.772656 0.609236,-0.762598 1.218095,-1.525653 1.826583,-2.289218 -1.435314,-0.300374 -2.87093,-0.601225 -4.306939,-0.90257 -1.464106,0.897597 -2.928517,1.794667 -4.393319,2.691266 -1.932243,2.295434 -3.864769,4.590286 -5.797706,6.884695 -0.681555,2.643999 -1.363451,5.287399 -2.04572,7.930365 0.809756,0.39789 1.619122,0.795279 2.428134,1.192186 1.318469,0.09356 2.636524,0.186627 3.95424,0.279203 -0.246357,-0.628579 -0.493067,-1.257624 -0.740149,-1.88717 z" />
    <path
       style="fill:#87b91d;fill-opacity:1;stroke:#6c9e26;stroke-width:1.29883;stroke-linecap:butt;stroke-linejoin:miter;stroke-miterlimit:4;stroke-dasharray:none;stroke-opacity:1"
       d="m 56.921935,30.453371 c -0.06812,-1.420998 -0.662403,-3.410606 -1.995762,-5.2939 -1.333358,-1.883295 -3.405994,-3.660041 -5.679629,-5.025435 -2.273636,-1.365395 -4.748157,-2.319159 -6.745158,-2.822206 -1.997001,-0.503047 -3.516271,-0.555186 -4.23925,-0.391501 -0.722978,0.163685 -0.649364,0.54265 0.555439,1.150242 1.204804,0.607591 3.540327,1.444135 5.582297,2.532529 2.041971,1.088393 3.790275,2.428374 4.832663,4.532091 1.042388,2.103717 1.379214,4.970862 2.402183,6.505366 1.022969,1.534504 2.731654,1.73678 3.814625,1.411645 1.082971,-0.325135 1.540714,-1.177834 1.472592,-2.598831 z"
       id="path76586"
       inkscape:path-effect="#path-effect76588"
       inkscape:original-d="m 57.447929,31.02143 c -0.593915,-1.989117 -1.1882,-3.978724 -1.78284,-5.968817 -2.072364,-1.776332 -4.144999,-3.55308 -6.218042,-5.330355 -2.474256,-0.953312 -4.948778,-1.907076 -7.423706,-2.861347 -1.518974,-0.05161 -3.038243,-0.103783 -4.557906,-0.15642 0.07399,0.379471 0.147593,0.758438 0.220848,1.136922 2.335982,0.837068 4.671505,1.673612 7.006716,2.509685 1.748743,1.340526 3.497047,2.680508 5.245022,4.020027 0.337207,2.867747 0.674034,5.734892 1.0105,8.601604 1.709114,0.202772 3.417799,0.405047 5.126157,0.606838 0.458117,-0.852242 0.915874,-1.704933 1.373251,-2.558137 z" />
    <path
       style="fill:#fd8a09;fill-opacity:1;stroke:#b76200;stroke-width:1.5;stroke-linecap:butt;stroke-linejoin:miter;stroke-miterlimit:4;stroke-dasharray:none;stroke-opacity:1"
       d="m 52.648349,30.343206 c -1.158936,0.189047 -3.477001,0.567171 -5.22599,1.008213 -1.748989,0.441042 -2.928766,0.944994 -3.852442,1.725086 -0.923677,0.780093 -1.59103,1.836122 -1.919662,2.615464 -0.328632,0.779341 -0.318592,1.281752 -0.563597,1.877331 -0.245005,0.59558 -0.744972,1.284501 -0.938142,1.734182 -0.193171,0.449681 -0.07977,0.659847 -0.04353,1.004823 0.03623,0.344976 -0.0045,0.824796 -0.06341,1.726405 -0.0589,0.901609 -0.135964,2.224932 -0.167258,3.319681 -0.03129,1.094749 -0.01684,1.960839 0.20755,2.849861 0.224386,0.889022 0.658533,1.800884 0.73922,2.755174 0.08069,0.95429 -0.19187,1.951068 -0.08225,2.892406 0.109619,0.941338 0.601168,1.827061 0.889838,2.566206 0.28867,0.739145 0.374581,1.331681 0.358085,2.028987 -0.01649,0.697307 -0.135312,1.499415 0.0074,2.791362 0.142677,1.291947 0.546724,3.073569 0.932408,4.144674 0.385683,1.071105 0.752787,1.431709 0.980685,2.221388 0.227899,0.789678 0.316822,2.008333 0.574196,3.266719 0.257373,1.258386 0.683093,2.556399 1.082703,3.398827 0.399611,0.842427 0.772939,1.229288 1.023925,2.461427 0.250986,1.232138 0.379859,3.309432 0.567216,4.578925 0.187357,1.269494 0.433032,1.731102 0.68357,3.056951 0.250538,1.32585 0.506059,3.515853 0.838317,5.051816 0.332258,1.535962 0.741115,2.417781 1.33637,3.549303 0.595254,1.131522 1.376834,2.512676 2.061723,3.543114 0.684889,1.030438 1.272981,1.710132 1.764327,2.038969 0.491346,0.328837 0.885953,0.3071 1.770864,-0.9997 0.884911,-1.306799 2.260368,-3.898693 3.268355,-6.181995 1.007986,-2.283302 1.64844,-4.257935 1.877553,-5.438466 0.229114,-1.180532 0.04666,-1.56704 0.492644,-2.886073 0.445981,-1.319033 1.520572,-3.570306 1.999425,-5.057799 0.478853,-1.487492 0.361833,-2.211303 0.630233,-4.222367 0.2684,-2.011064 0.922293,-5.309146 1.407501,-7.402248 0.485208,-2.093103 0.801725,-2.981076 0.864101,-3.925715 0.06238,-0.944639 -0.129513,-1.946032 -0.04598,-2.70523 0.08353,-0.759197 0.442604,-1.275919 0.726223,-2.551953 0.283619,-1.276035 0.49174,-3.311464 0.676776,-4.600907 0.185037,-1.289444 0.347008,-1.832775 0.42471,-2.674309 0.0777,-0.841535 0.07107,-1.981303 0.273952,-3.042044 0.202884,-1.060741 0.61534,-2.042269 0.790893,-3.333516 0.175553,-1.291247 0.114122,-2.892268 0.09815,-4.071461 -0.01597,-1.179193 0.01353,-1.936477 -0.290263,-2.816237 -0.30379,-0.879761 -0.941058,-1.88198 -1.900345,-2.748044 -0.959287,-0.866065 -2.240638,-1.59579 -3.481579,-2.154902 -1.240941,-0.559112 -2.441403,-0.947509 -4.037239,-1.18297 -1.595837,-0.235462 -3.586894,-0.317891 -4.582571,-0.359112 -0.995677,-0.04122 -0.995679,-0.04129 -2.154614,0.147754 z"
       id="path54"
       inkscape:original-d="m 53.807284,30.15416 c -2.317819,0.378411 -4.635884,0.756534 -6.954189,1.134372 -1.179585,0.504256 -2.359362,1.008209 -3.539406,1.511886 -0.667165,1.056359 -1.334502,2.112399 -2.002112,3.168169 0.01032,0.502718 0.02032,1.005129 0.03012,1.507264 -0.49976,0.689235 -0.999717,1.378163 -1.499936,2.066814 0.113652,0.210461 0.227056,0.420628 0.340222,0.630511 -0.04051,0.480127 -0.08123,0.959949 -0.12223,1.439496 -0.07682,1.323662 -0.153887,2.646985 -0.231193,3.97005 0.01472,0.866414 0.02917,1.732504 0.04337,2.598325 0.434405,0.912187 0.868555,1.824048 1.302468,2.735642 -0.272332,0.997107 -0.544888,1.993886 -0.817692,2.990404 0.491805,0.886044 0.983356,1.771766 1.474676,2.65722 0.08616,0.592841 0.17206,1.185378 0.257736,1.777636 -0.118576,0.802425 -0.237396,1.604532 -0.356457,2.406372 0.404306,1.781975 0.808352,3.563597 1.212166,5.344965 0.36736,0.360905 0.734463,0.72151 1.101337,1.081837 0.08917,1.218988 0.178091,2.437643 0.266775,3.656037 0.42598,1.29835 0.851702,2.596362 1.277183,3.894116 0.373585,0.387162 0.746916,0.774021 1.120005,1.160607 0.129133,2.077662 0.257994,4.154957 0.386628,6.23201 0.245927,0.46191 0.491598,0.92352 0.737038,1.384848 0.255771,2.190383 0.511296,4.380386 0.766582,6.570156 0.40912,0.882135 0.817973,1.763956 1.226597,2.645512 0.781854,1.381495 1.563433,2.76265 2.344795,4.143559 0.588351,0.680005 1.176441,1.359701 1.764304,2.039118 0.394853,-0.02144 0.789455,-0.04327 1.183818,-0.06521 1.375743,-2.591718 2.751211,-5.183606 4.126455,-7.775839 0.640723,-1.974436 1.281178,-3.949069 1.921406,-5.924035 -0.182218,-0.386235 -0.36467,-0.772742 -0.547361,-1.159543 1.074879,-2.251078 2.149467,-4.502353 3.22384,-6.753957 -0.116799,-0.723555 -0.233802,-1.447369 -0.351068,-2.171481 0.654164,-3.297927 1.308057,-6.596009 1.961718,-9.894444 0.316771,-0.887719 0.633286,-1.775692 0.949568,-2.663969 -0.191654,-1.001145 -0.383542,-2.002538 -0.575677,-3.004239 0.359316,-0.516457 0.71838,-1.033182 1.077229,-1.550198 0.208375,-2.035224 0.416494,-4.070653 0.624376,-6.106408 0.162229,-0.543068 0.324192,-1.086402 0.485927,-1.630033 -0.0064,-1.139528 -0.01303,-2.279296 -0.0199,-3.419374 0.412689,-0.981283 0.825164,-1.962803 1.237387,-2.944633 -0.06118,-1.600801 -0.122636,-3.201821 -0.184297,-4.803161 0.02975,-0.757028 0.05924,-1.514312 0.08851,-2.271897 -0.637053,-1.001973 -1.27432,-2.004192 -1.911843,-3.006716 -1.281157,-0.729468 -2.562509,-1.45919 -3.844123,-2.189214 -1.200266,-0.388123 -2.400727,-0.776521 -3.601449,-1.16521 -1.990901,-0.08215 -3.981958,-0.164575 -5.973301,-0.247294 z"
       inkscape:path-effect="#path-effect56" />
    <path
       style="fill:none;stroke:#b76200;stroke-width:1.5;stroke-linecap:butt;stroke-linejoin:miter;stroke-miterlimit:4;stroke-dasharray:none;stroke-opacity:1"
       d="m 40.265534,48.042271 c 2.634179,0.48745 5.268072,0.974847 7.91645,1.279322 2.648378,0.304474 5.311166,0.426064 7.781414,0.385563 2.470249,-0.0405 4.747856,-0.243059 6.769329,-0.496477 2.021474,-0.253417 3.786729,-0.557667 5.551836,-0.86189"
       id="path17619"
       inkscape:path-effect="#path-effect17621"
       inkscape:original-d="m 40.265534,48.042271 c 2.634137,0.487679 5.26803,0.975073 7.901675,1.46219 2.66314,0.121882 5.325928,0.24347 7.988533,0.364777 2.277932,-0.202279 4.555539,-0.404835 6.832946,-0.607683 1.765568,-0.303974 3.530823,-0.608224 5.295875,-0.912766" />
    <path
       style="fill:none;stroke:#b76200;stroke-width:1.5;stroke-linecap:butt;stroke-linejoin:miter;stroke-miterlimit:4;stroke-dasharray:none;stroke-opacity:1"
       d="m 42.350749,57.007142 c 2.395734,0.45515 4.791128,0.910236 7.492021,1.174643 2.700894,0.264407 5.707039,0.33816 8.202436,0.242053 2.495397,-0.09611 4.479831,-0.362035 5.931748,-0.642623 1.451916,-0.280588 2.3713,-0.575803 3.290569,-0.87098"
       id="path17623"
       inkscape:path-effect="#path-effect17625"
       inkscape:original-d="m 42.350749,57.007142 c 2.39569,0.455383 4.791084,0.910468 7.186341,1.365287 3.006567,0.07404 6.012712,0.147797 9.018802,0.221267 1.984753,-0.265652 3.969187,-0.53158 5.953419,-0.797799 0.919665,-0.29494 1.839049,-0.590155 2.758212,-0.885662"
       sodipodi:nodetypes="ccccc" />
    <path
       style="fill:none;stroke:#b76200;stroke-width:1.5;stroke-linecap:butt;stroke-linejoin:miter;stroke-miterlimit:4;stroke-dasharray:none;stroke-opacity:1"
       d="m 43.566861,66.855723 c 1.987265,0.305961 3.974249,0.611879 5.835641,0.848627 1.861392,0.236748 3.59713,0.404337 5.351358,0.487103 1.754227,0.08277 3.526867,0.08073 5.313864,-0.0777 1.786997,-0.158432 3.588301,-0.473218 5.389454,-0.787978"
       id="path17631"
       inkscape:path-effect="#path-effect17633"
       inkscape:original-d="m 43.566861,66.855723 c 1.987227,0.306205 3.974211,0.612123 5.960957,0.917754 1.736051,0.167883 3.471789,0.335473 5.207319,0.502776 1.77295,-0.0017 3.54559,-0.0037 5.318023,-0.0061 1.801616,-0.314514 3.60292,-0.6293 5.404018,-0.944377" />
    <path
       style="fill:none;stroke:#b76200;stroke-width:1.5;stroke-linecap:butt;stroke-linejoin:miter;stroke-miterlimit:4;stroke-dasharray:none;stroke-opacity:1"
       d="m 46.056836,76.054809 c 1.518642,0.442994 3.036986,0.8859 4.601304,1.143276 1.564319,0.257375 3.174597,0.329293 4.560235,0.347762 1.385637,0.01847 2.54658,-0.01649 3.807433,-0.226261 1.260852,-0.209772 2.621624,-0.594305 3.311152,-0.828846 0.689528,-0.234542 0.70798,-0.319337 0.726482,-0.404361"
       id="path17635"
       inkscape:path-effect="#path-effect17637"
       inkscape:original-d="m 46.056836,76.054809 c 1.518584,0.443193 3.036927,0.886101 4.555032,1.32872 1.610579,0.0722 3.220857,0.144125 4.830923,0.215756 1.16123,-0.03468 2.322173,-0.06963 3.482899,-0.104881 1.361063,-0.384262 2.721834,-0.768796 4.082392,-1.153622 0.0187,-0.08452 0.03714,-0.169318 0.05536,-0.254403" />
    <path
       style="fill:none;stroke:#b76200;stroke-width:1.5;stroke-linecap:butt;stroke-linejoin:miter;stroke-miterlimit:4;stroke-dasharray:none;stroke-opacity:1"
       d="m 49.057928,90.026251 c 1.545887,0.395311 3.09148,0.790547 4.670247,0.865002 1.578767,0.07446 3.19074,-0.171753 4.168137,-0.384687 0.977398,-0.212934 1.320288,-0.392571 1.663106,-0.572171"
       id="path17643"
       inkscape:path-effect="#path-effect17645"
       inkscape:original-d="m 49.057928,90.026251 c 1.545833,0.395521 3.091426,0.79076 4.636777,1.185707 1.612285,-0.245935 3.224258,-0.492142 4.83603,-0.738644 0.343144,-0.179359 0.686034,-0.358996 1.028683,-0.538919" />
    <path
       style="fill:none;stroke:#b76200;stroke-width:1.5;stroke-linecap:butt;stroke-linejoin:miter;stroke-miterlimit:4;stroke-dasharray:none;stroke-opacity:1"
       d="m 47.744335,83.263413 c 0.930624,0.184713 1.860959,0.369369 3.135616,0.529461 1.274657,0.160092 2.893589,0.295649 4.430015,0.299805 1.536426,0.0042 2.990297,-0.123049 3.958349,-0.267079 0.968051,-0.14403 1.450311,-0.304852 1.932444,-0.465632"
       id="path17840"
       inkscape:path-effect="#path-effect17842"
       inkscape:original-d="m 47.744335,83.263413 c 0.930579,0.184942 1.860914,0.369597 2.791007,0.553967 1.619244,0.135845 3.238176,0.271407 4.856904,0.406682 1.454173,-0.126923 2.908044,-0.254127 4.361709,-0.38162 0.482521,-0.160543 0.964781,-0.321364 1.446804,-0.482474" />
    <path
       style="fill:none;stroke:#b76200;stroke-width:1.5;stroke-linecap:butt;stroke-linejoin:miter;stroke-miterlimit:4;stroke-dasharray:none;stroke-opacity:1"
       d="m 40.071179,39.475607 c 2.607172,0.342309 5.214068,0.684581 8.457863,0.915545 3.243796,0.230964 7.124358,0.350643 10.134675,0.209984 3.010318,-0.140658 5.1503,-0.541598 6.700653,-0.897903 1.550353,-0.356304 2.511033,-0.667941 3.471597,-0.979541"
       id="path17957"
       inkscape:path-effect="#path-effect17959"
       inkscape:original-d="m 40.071179,39.475607 c 2.607139,0.342557 5.214035,0.68483 7.820693,1.026818 3.880957,0.119971 7.761519,0.23965 11.641912,0.359043 2.140311,-0.400669 4.280293,-0.801612 6.420084,-1.202845 0.960962,-0.311365 1.921641,-0.623003 2.882099,-0.934931" />
  </g>
</svg>
