<?xml version="1.0" encoding="UTF-8" standalone="no"?>
<!-- Created with Inkscape (http://www.inkscape.org/) -->

<svg
   width="100mm"
   height="100mm"
   viewBox="0 0 100 100"
   version="1.1"
   id="svg5"
   inkscape:version="1.1.1 (3bf5ae0d25, 2021-09-20, custom)"
   sodipodi:docname="onion.svg"
   xmlns:inkscape="http://www.inkscape.org/namespaces/inkscape"
   xmlns:sodipodi="http://sodipodi.sourceforge.net/DTD/sodipodi-0.dtd"
   xmlns:xlink="http://www.w3.org/1999/xlink"
   xmlns="http://www.w3.org/2000/svg"
   xmlns:svg="http://www.w3.org/2000/svg">
  <sodipodi:namedview
     id="namedview7"
     pagecolor="#ffffff"
     bordercolor="#666666"
     borderopacity="1.0"
     inkscape:pageshadow="2"
     inkscape:pageopacity="0.0"
     inkscape:pagecheckerboard="0"
     inkscape:document-units="mm"
     showgrid="false"
     width="100mm"
     inkscape:zoom="2.2449495"
     inkscape:cx="228.29021"
     inkscape:cy="211.80877"
     inkscape:window-width="1920"
     inkscape:window-height="1007"
     inkscape:window-x="0"
     inkscape:window-y="0"
     inkscape:window-maximized="1"
     inkscape:current-layer="layer1" />
  <defs
     id="defs2">
    <inkscape:path-effect
       effect="bspline"
       id="path-effect100102"
       is_visible="true"
       lpeversion="1"
       weight="33.333333"
       steps="2"
       helper_size="0"
       apply_no_weight="true"
       apply_with_weight="true"
       only_selected="false" />
    <linearGradient
       inkscape:collect="always"
       id="linearGradient43283">
      <stop
         style="stop-color:#ecbb71;stop-opacity:1"
         offset="0"
         id="stop43279" />
      <stop
         style="stop-color:#ad560e;stop-opacity:1"
         offset="1"
         id="stop43281" />
    </linearGradient>
    <inkscape:path-effect
       effect="bspline"
       id="path-effect2169"
       is_visible="true"
       lpeversion="1"
       weight="33.333333"
       steps="2"
       helper_size="0"
       apply_no_weight="true"
       apply_with_weight="true"
       only_selected="false" />
    <inkscape:path-effect
       effect="bspline"
       id="path-effect1939"
       is_visible="true"
       lpeversion="1"
       weight="33.333333"
       steps="2"
       helper_size="0"
       apply_no_weight="true"
       apply_with_weight="true"
       only_selected="false" />
    <inkscape:path-effect
       effect="bspline"
       id="path-effect1822"
       is_visible="true"
       lpeversion="1"
       weight="33.333333"
       steps="2"
       helper_size="0"
       apply_no_weight="true"
       apply_with_weight="true"
       only_selected="false" />
    <inkscape:path-effect
       effect="bspline"
       id="path-effect1818"
       is_visible="true"
       lpeversion="1"
       weight="33.333333"
       steps="2"
       helper_size="0"
       apply_no_weight="true"
       apply_with_weight="true"
       only_selected="false" />
    <inkscape:path-effect
       effect="bspline"
       id="path-effect1408"
       is_visible="true"
       lpeversion="1"
       weight="33.333333"
       steps="2"
       helper_size="0"
       apply_no_weight="true"
       apply_with_weight="true"
       only_selected="false" />
    <inkscape:path-effect
       effect="bspline"
       id="path-effect1404"
       is_visible="true"
       lpeversion="1"
       weight="33.333333"
       steps="2"
       helper_size="0"
       apply_no_weight="true"
       apply_with_weight="true"
       only_selected="false" />
    <inkscape:path-effect
       effect="bspline"
       id="path-effect1400"
       is_visible="true"
       lpeversion="1"
       weight="33.333333"
       steps="2"
       helper_size="0"
       apply_no_weight="true"
       apply_with_weight="true"
       only_selected="false" />
    <inkscape:path-effect
       effect="bspline"
       id="path-effect960"
       is_visible="true"
       lpeversion="1"
       weight="33.333333"
       steps="2"
       helper_size="0"
       apply_no_weight="true"
       apply_with_weight="true"
       only_selected="false" />
    <inkscape:path-effect
       effect="bspline"
       id="path-effect956"
       is_visible="true"
       lpeversion="1"
       weight="33.333333"
       steps="2"
       helper_size="0"
       apply_no_weight="true"
       apply_with_weight="true"
       only_selected="false" />
    <inkscape:path-effect
       effect="bspline"
       id="path-effect952"
       is_visible="true"
       lpeversion="1"
       weight="33.333333"
       steps="2"
       helper_size="0"
       apply_no_weight="true"
       apply_with_weight="true"
       only_selected="false" />
    <inkscape:path-effect
       effect="bspline"
       id="path-effect948"
       is_visible="true"
       lpeversion="1"
       weight="33.333333"
       steps="2"
       helper_size="0"
       apply_no_weight="true"
       apply_with_weight="true"
       only_selected="false" />
    <inkscape:path-effect
       effect="bspline"
       id="path-effect911"
       is_visible="true"
       lpeversion="1"
       weight="33.333333"
       steps="2"
       helper_size="0"
       apply_no_weight="true"
       apply_with_weight="true"
       only_selected="false" />
    <inkscape:path-effect
       effect="bspline"
       id="path-effect903"
       is_visible="true"
       lpeversion="1"
       weight="33.333333"
       steps="2"
       helper_size="0"
       apply_no_weight="true"
       apply_with_weight="true"
       only_selected="false" />
    <inkscape:path-effect
       effect="bspline"
       id="path-effect899"
       is_visible="true"
       lpeversion="1"
       weight="33.333333"
       steps="2"
       helper_size="0"
       apply_no_weight="true"
       apply_with_weight="true"
       only_selected="false" />
    <inkscape:path-effect
       effect="bspline"
       id="path-effect895"
       is_visible="true"
       lpeversion="1"
       weight="33.333333"
       steps="2"
       helper_size="0"
       apply_no_weight="true"
       apply_with_weight="true"
       only_selected="false" />
    <inkscape:path-effect
       effect="bspline"
       id="path-effect891"
       is_visible="true"
       lpeversion="1"
       weight="33.333333"
       steps="2"
       helper_size="0"
       apply_no_weight="true"
       apply_with_weight="true"
       only_selected="false" />
    <inkscape:path-effect
       effect="bspline"
       id="path-effect887"
       is_visible="true"
       lpeversion="1"
       weight="33.333333"
       steps="2"
       helper_size="0"
       apply_no_weight="true"
       apply_with_weight="true"
       only_selected="false" />
    <inkscape:path-effect
       effect="bspline"
       id="path-effect883"
       is_visible="true"
       lpeversion="1"
       weight="33.333333"
       steps="2"
       helper_size="0"
       apply_no_weight="true"
       apply_with_weight="true"
       only_selected="false" />
    <inkscape:path-effect
       effect="bspline"
       id="path-effect879"
       is_visible="true"
       lpeversion="1"
       weight="33.333333"
       steps="2"
       helper_size="0"
       apply_no_weight="true"
       apply_with_weight="true"
       only_selected="false" />
    <inkscape:path-effect
       effect="bspline"
       id="path-effect875"
       is_visible="true"
       lpeversion="1"
       weight="33.333333"
       steps="2"
       helper_size="0"
       apply_no_weight="true"
       apply_with_weight="true"
       only_selected="false" />
    <inkscape:path-effect
       effect="bspline"
       id="path-effect871"
       is_visible="true"
       lpeversion="1"
       weight="33.333333"
       steps="2"
       helper_size="0"
       apply_no_weight="true"
       apply_with_weight="true"
       only_selected="false" />
    <linearGradient
       inkscape:collect="always"
       xlink:href="#linearGradient43283"
       id="linearGradient43277"
       x1="4.3607144"
       y1="49.853573"
       x2="82.853569"
       y2="49.617859"
       gradientUnits="userSpaceOnUse" />
  </defs>
  <g
     inkscape:label="Layer 1"
     inkscape:groupmode="layer"
     id="layer1">
    <path
       style="fill:#a57c4b;fill-opacity:1;stroke:#8a480f;stroke-width:1;stroke-linecap:butt;stroke-linejoin:miter;stroke-miterlimit:4;stroke-dasharray:none;stroke-opacity:1"
       d="m 37.644195,87.847819 c -1.154073,0.947858 -1.321037,1.379999 -1.252124,1.748368 0.06891,0.368369 0.373372,0.672827 1.183637,0.761075 0.810266,0.08825 2.126312,-0.03943 3.059394,-0.005 0.933082,0.03445 1.483071,0.23087 1.782486,0.510875 0.299415,0.280004 0.348522,0.643388 0.932957,0.603925 0.584435,-0.03946 1.704056,-0.48142 2.558615,-0.618846 0.854559,-0.137427 1.443831,0.02953 1.925087,0.201442 0.481257,0.171908 0.854462,0.348689 1.256986,0.220931 0.402525,-0.127758 0.834658,-0.559892 0.839722,-0.834849 0.0051,-0.274957 -0.417251,-0.392813 -0.09804,-0.294592 0.319208,0.09822 1.379902,0.412499 1.890471,0.363484 0.510569,-0.04901 0.471285,-0.461506 0.618748,-0.554847 0.147463,-0.09334 0.481384,0.132545 0.943005,0.363312 0.461621,0.230768 1.050895,0.466478 1.031215,0.255382 -0.01968,-0.211096 -0.648238,-0.869119 -0.613825,-1.055793 0.03441,-0.186675 0.7314,0.09801 1.428722,0.382833 0.569642,0.08839 1.139583,0.176832 1.93999,0.108035 0.800407,-0.0688 1.831636,-0.294686 2.627098,-0.623702 0.795462,-0.329015 1.355271,-0.761149 1.463443,-1.036082 0.108173,-0.274932 -0.235572,-0.392787 -0.898629,-0.220989 -0.663057,0.171799 -1.64518,0.633396 -2.533947,0.844591 -0.888767,0.211195 -1.684287,0.17191 -2.366884,-0.117705 -0.682597,-0.289616 -1.252229,-0.829784 -1.139285,-1.119652 0.112944,-0.289867 0.908464,-0.329152 1.139244,-0.589268 0.23078,-0.260115 -0.103142,-0.741355 -0.221119,-1.335598 -0.117977,-0.594243 -0.01976,-1.301374 -0.908459,-1.787628 -0.888694,-0.486253 -2.76455,-0.751427 -4.787824,-0.721996 -2.023273,0.02943 -4.193765,0.353531 -6.349671,1.247293 -2.155906,0.893761 -4.296937,2.357126 -5.451011,3.304984 z"
       id="path2167"
       inkscape:path-effect="#path-effect2169"
       inkscape:original-d="m 36.657141,88.363392 c -0.166698,0.432409 -0.333663,0.86455 -0.500893,1.296429 0.304736,0.304734 0.609195,0.609193 0.913394,0.913392 1.31636,-0.127415 2.632406,-0.255092 3.948213,-0.383034 0.550275,0.196696 1.100265,0.39312 1.65,0.589285 0.04937,0.363664 0.09848,0.727048 0.147323,1.090178 1.119928,-0.441708 2.239549,-0.883663 3.358927,-1.325893 0.589564,0.167233 1.178836,0.334193 1.767859,0.500894 0.373486,0.177053 0.746691,0.353835 1.119642,0.530357 0.432417,-0.431887 0.86455,-0.864021 1.296427,-1.296429 -0.422063,-0.117594 -0.844378,-0.23545 -1.266963,-0.353571 1.061001,0.314555 2.121694,0.628835 3.182142,0.942856 -0.03902,-0.412245 -0.07831,-0.824735 -0.117856,-1.237499 0.3342,0.226161 0.66812,0.452049 1.001786,0.677678 0.589561,0.235984 1.178835,0.471694 1.767856,0.707144 -0.628319,-0.657786 -1.256877,-1.315808 -1.885715,-1.97411 0.697601,0.285094 2.091966,0.854467 2.091966,0.854467 0,0 1.139549,0.177049 1.708927,0.265179 1.031537,-0.225634 2.062766,-0.451522 3.093752,-0.67768 0.560097,-0.431888 1.119907,-0.864021 1.679464,-1.29643 -0.343493,-0.117594 -0.687237,-0.23545 -1.031251,-0.35357 -0.981897,0.46188 -1.96402,0.923478 -2.946429,1.384821 -0.795287,-0.03902 -1.590807,-0.07831 -2.386607,-0.117856 -0.569389,-0.539925 -1.139021,-1.080093 -1.708928,-1.620536 0.795816,-0.03902 1.591336,-0.07831 2.386608,-0.117858 -0.333672,-0.480994 -0.667594,-0.962234 -1.001787,-1.44375 0.09848,-0.706892 0.196694,-1.414023 0.294643,-2.121429 -1.875666,-0.264919 -3.751522,-0.530092 -5.627677,-0.795536 -2.170316,0.324379 -4.340807,0.648481 -6.511608,0.972323 -2.140849,1.463685 -4.281879,2.927051 -6.423215,4.390178 z" />
    <path
       style="fill:url(#linearGradient43277);fill-opacity:1;stroke:#915724;stroke-width:1;stroke-linecap:butt;stroke-linejoin:miter;stroke-opacity:1;stroke-miterlimit:4;stroke-dasharray:none"
       d="M 5.4585999,54.239127 C 5.5697024,52.447352 5.8058257,50.350021 6.2572302,48.37764 6.7086347,46.405258 7.3753226,44.557977 8.3198283,42.474489 9.2643341,40.391 10.486593,38.071485 12.313125,35.682401 c 1.826531,-2.389084 4.257163,-4.847493 6.771246,-6.85458 2.514083,-2.007086 5.111386,-3.56269 7.639357,-4.757207 2.52797,-1.194517 4.986378,-2.027876 7.160191,-2.591064 2.173812,-0.563188 4.062912,-0.856207 6.278319,-1.064541 2.215408,-0.208333 4.757035,-0.331999 7.236334,-0.331317 2.479299,6.83e-4 4.89604,0.125687 7.368433,0.577148 2.472392,0.451461 5.000248,1.229263 7.104538,2.090467 2.10429,0.861205 3.784897,1.805678 5.812783,3.347481 2.027887,1.541804 4.402961,3.68076 6.097474,5.430885 1.694513,1.750126 2.708433,3.111278 3.764031,4.771114 1.055598,1.659835 2.152855,3.618231 3.007033,5.569739 0.854178,1.951508 1.465308,3.896013 1.826395,6.139188 0.361087,2.243175 0.472201,4.784921 0.319385,7.180865 -0.152815,2.395945 -0.569495,4.646015 -1.326497,7.03501 -0.757002,2.388995 -1.854257,4.916851 -3.326549,7.139146 -1.472292,2.222296 -3.319569,4.139017 -5.458556,5.882153 -2.138987,1.743136 -4.569618,3.312629 -6.778052,4.514083 -2.208434,1.201453 -4.194606,2.034815 -6.729472,2.944594 -2.534866,0.90978 -5.618295,1.895918 -8.514283,2.659857 -2.895988,0.763939 -5.604404,1.305625 -7.993441,1.819543 -2.389038,0.513918 -4.458548,1.000042 -6.680845,0.604283 -2.222297,-0.39576 -4.597369,-1.673576 -7.521164,-3.125066 -2.923795,-1.45149 -6.396126,-3.076539 -9.11157,-4.611318 -2.715444,-1.534779 -4.673837,-2.97927 -6.507331,-5.027969 C 10.91739,72.976197 9.2090005,70.323334 8.000538,67.552335 6.7920756,64.781335 6.0837204,61.892358 5.7225536,59.704709 5.3613868,57.51706 5.3474975,56.030901 5.4585999,54.239127 Z"
       id="path869"
       inkscape:path-effect="#path-effect871"
       inkscape:original-d="m 5.3336054,54.544449 c 0.2363878,-2.097064 0.4725109,-4.194395 0.7083695,-6.291988 0.6669786,-1.847088 1.3336659,-3.694369 2.0001021,-5.541949 1.2225734,-2.319345 2.444834,-4.63886 3.666853,-6.95869 2.430993,-2.458241 4.861624,-4.916651 7.292039,-7.375374 2.597671,-1.555403 5.194974,-3.111006 7.792065,-4.666905 2.458772,-0.833128 4.91718,-1.666487 7.375376,-2.500128 1.889367,-0.292755 3.778467,-0.585774 5.667304,-0.879058 2.541945,-0.123404 5.083572,-0.24707 7.62504,-0.371006 2.417104,0.125274 4.833845,0.250278 7.250369,0.37502 2.528223,0.778097 5.056079,1.555899 7.58372,2.333452 1.680941,0.944776 3.361547,1.88925 5.041924,2.833478 2.375434,2.139304 4.750509,4.278259 7.125364,6.416995 1.014225,1.361471 2.028145,2.722623 3.041822,4.083539 1.097566,1.958737 2.194822,3.917133 3.291835,5.875301 0.61142,1.944846 1.222549,3.889351 1.833427,5.833631 0.111382,2.542111 0.222499,5.083857 0.333349,7.625389 -0.416431,2.250424 -0.83311,4.500494 -1.250064,6.750344 -1.097034,2.528223 -2.19429,5.056079 -3.291835,7.583724 -1.847088,1.917068 -3.694366,3.833789 -5.541949,5.750287 -2.430462,1.569821 -4.861094,3.139312 -7.292038,4.708573 -1.985986,0.833664 -3.97216,1.667021 -5.958636,2.500135 -3.083288,0.986444 -6.166718,1.972581 -9.250474,2.958475 -2.708259,0.541977 -5.416677,1.083654 -8.125412,1.625091 -2.069327,0.486407 -4.138837,0.972534 -6.208652,1.458401 -2.374902,-1.277604 -4.749977,-2.555415 -7.125364,-3.833529 -3.472203,-1.624851 -6.944533,-3.249902 -10.417196,-4.875243 -1.958208,-1.444281 -3.916602,-2.888772 -5.8753,-4.333563 -1.70819,-2.652695 -3.4165765,-5.30556 -5.1252614,-7.958735 -0.7081192,-2.888827 -1.4164744,-5.777804 -2.1251085,-8.667107 -0.013625,-1.485951 -0.027515,-2.97211 -0.041669,-4.45856 z"
       sodipodi:nodetypes="ccccccccccccccccccccccccccccccc" />
    <path
       style="fill:none;stroke:#8a480f;stroke-width:0.5;stroke-linecap:butt;stroke-linejoin:miter;stroke-opacity:1;stroke-miterlimit:4;stroke-dasharray:none"
       d="m 42.074999,20.271428 c -0.0099,0.07881 -0.01967,0.157371 -7e-6,1.463667 0.01966,1.306296 0.06877,3.840174 0.260307,6.290658 0.191539,2.450483 0.52546,4.817398 0.756254,6.919196 0.230794,2.101798 0.35847,3.938369 0.520525,6.398667 0.162055,2.460298 0.35848,5.544164 0.579466,8.672322 0.220987,3.128159 0.466518,6.300415 0.775906,9.256699 0.309388,2.956284 0.682595,5.696406 1.021435,8.30893 0.33884,2.612524 0.643297,5.097295 0.918292,7.984823 0.274995,2.887528 0.520526,6.177643 0.766041,9.467538"
       id="path873"
       inkscape:path-effect="#path-effect875"
       inkscape:original-d="m 42.074999,20.271428 c -0.0096,0.07884 -0.01937,0.157408 -0.02946,0.235715 0.04937,2.534243 0.09848,5.068121 0.147323,7.601785 0.334197,2.367277 0.66812,4.734192 1.001783,7.100893 0.127948,1.836909 0.255622,3.67348 0.383038,5.509821 0.196696,3.084256 0.39312,6.168122 0.589285,9.251786 0.245806,3.17265 0.491337,6.344906 0.736608,9.516964 0.373486,2.740499 0.746691,5.480621 1.119643,8.220535 0.304733,2.485136 0.609192,4.969907 0.913391,7.454466 0.245806,3.290507 0.491337,6.580622 0.736608,9.870535" />
    <path
       style="fill:none;stroke:#8a480f;stroke-width:0.5;stroke-linecap:butt;stroke-linejoin:miter;stroke-opacity:1;stroke-miterlimit:4;stroke-dasharray:none"
       d="m 45.846428,85.829464 c -0.765915,-1.56129 -1.531986,-3.122898 -2.302997,-4.979169 -0.77101,-1.856271 -1.546887,-4.007119 -2.337523,-6.236607 -0.790635,-2.229488 -1.595976,-4.537478 -2.371898,-7.356266 -0.775921,-2.818788 -1.522335,-6.148186 -2.190212,-9.998236 -0.667877,-3.85005 -1.257151,-8.220498 -1.640196,-11.446864 -0.383045,-3.226366 -0.559827,-5.308468 -0.613859,-8.03396 -0.05403,-2.725492 0.01471,-6.094176 0.289699,-8.672357 0.274983,-2.578182 0.756224,-4.365646 1.276773,-5.637597 0.520549,-1.27195 1.08036,-2.028185 1.640214,-2.78448"
       id="path877"
       inkscape:path-effect="#path-effect879"
       inkscape:original-d="m 45.846428,85.829464 c -0.765807,-1.561343 -1.531879,-3.122951 -2.298213,-4.684823 -0.775645,-2.150671 -1.551522,-4.301519 -2.32768,-6.452677 -0.805109,-2.307817 -1.61045,-4.615807 -2.416072,-6.924109 -0.746178,-3.329265 -1.492591,-6.658663 -2.239285,-9.988391 -0.589034,-4.370358 -1.178306,-8.740806 -1.767856,-13.111607 -0.176524,-2.081921 -0.353308,-4.164023 -0.530357,-6.246428 0.06901,-3.368554 0.137763,-6.737237 0.206248,-10.10625 0.481526,-1.787271 0.962766,-3.574736 1.443752,-5.362501 0.560096,-0.756 1.119907,-1.512235 1.679464,-2.26875" />
    <path
       style="fill:none;stroke:#8a480f;stroke-width:0.5;stroke-linecap:butt;stroke-linejoin:miter;stroke-opacity:1;stroke-miterlimit:4;stroke-dasharray:none"
       d="M 44.402679,86.065176 C 43.076995,84.1503 41.751102,82.235122 40.577426,80.491806 39.403751,78.74849 38.382343,77.177092 37.616245,75.875748 36.850147,74.574404 36.339442,73.543175 35.809068,72.374412 35.278693,71.205649 34.728704,69.899425 34.149224,68.396729 33.569744,66.894033 32.960828,65.194961 32.504122,63.864147 32.047415,62.533333 31.742957,61.570852 31.413923,60.367709 31.08489,59.164567 30.731325,57.720847 30.338449,55.57974 c -0.392877,-2.141107 -0.825011,-4.979444 -1.10494,-8.171455 -0.27993,-3.192012 -0.407607,-6.737476 -0.45181,-9.620095 -0.0442,-2.882619 -0.0049,-5.102216 0.31426,-7.007646 0.319177,-1.905431 0.918272,-3.496471 1.566504,-4.763495 0.648232,-1.267024 1.345539,-2.209862 2.042892,-2.990701 0.697354,-0.78084 1.394661,-1.399577 2.091967,-2.018313"
       id="path881"
       inkscape:path-effect="#path-effect883"
       inkscape:original-d="M 44.402679,86.065176 C 43.07705,84.150262 41.751157,82.235084 40.424999,80.319641 39.403816,78.748447 38.382408,77.17705 37.360714,75.605356 36.850253,74.574351 36.339549,73.543122 35.82857,72.511607 35.278824,71.205594 34.728835,69.89937 34.17857,68.592855 33.569894,66.893979 32.960979,65.194907 32.351786,63.495536 32.047579,62.533281 31.74312,61.5708 31.438392,60.608035 31.085078,59.164521 30.731515,57.720801 30.377677,56.276784 29.945793,53.438599 29.513657,50.600263 29.081251,47.761606 28.953833,44.216264 28.826158,40.6708 28.698213,37.124999 c 0.03955,-2.219423 0.07884,-4.43902 0.117859,-6.658927 0.599382,-1.590839 1.198478,-3.181879 1.79732,-4.773215 0.6976,-0.942612 1.394907,-1.88545 2.091965,-2.828572 0.6976,-0.618497 1.394907,-1.237235 2.091965,-1.85625" />
    <path
       style="fill:none;stroke:#8a480f;stroke-width:0.5;stroke-linecap:butt;stroke-linejoin:miter;stroke-opacity:1;stroke-miterlimit:4;stroke-dasharray:none"
       d="m 31.379464,22.392857 c -0.932978,0.638353 -1.866015,1.276747 -2.676341,2.150921 -0.810325,0.874174 -1.497811,1.983972 -2.180412,3.486709 -0.682601,1.502738 -1.360266,3.398234 -1.826771,5.622856 -0.466505,2.224622 -0.721857,4.778142 -0.775853,7.307206 -0.054,2.529065 0.09332,5.033481 0.24065,7.056714 0.147329,2.023233 0.294647,3.565167 0.682627,5.539311 0.38798,1.974144 1.016538,4.380344 1.571466,6.300451 0.554928,1.920107 1.036169,3.354007 1.718786,5.043313 0.682618,1.689305 1.566529,3.633909 2.499589,5.490174 0.93306,1.856265 1.915183,3.624087 3.11836,5.308461 1.203176,1.684373 2.627255,3.285234 4.100478,5.02365 1.473222,1.738416 2.995512,3.614272 4.517599,5.489876"
       id="path885"
       inkscape:path-effect="#path-effect887"
       inkscape:original-d="m 31.379464,22.392857 c -0.93277,0.638657 -1.865807,1.27705 -2.799107,1.915178 -0.687249,1.110109 -1.374735,2.219907 -2.062501,3.329464 -0.677427,1.89584 -1.355092,3.791336 -2.033035,5.686607 -0.255097,2.553888 -0.510449,5.107408 -0.766071,7.660714 0.147589,2.504779 0.294907,5.009195 0.441964,7.513394 0.147589,1.542259 0.294907,3.084193 0.441964,4.625893 0.628849,2.406563 1.257408,4.812763 1.885714,7.218749 0.481526,1.434222 0.962766,2.868123 1.44375,4.301786 0.884211,1.944947 1.768123,3.88955 2.651786,5.833928 0.982427,1.768157 1.96455,3.535979 2.946429,5.303573 1.4244,1.601189 2.848478,3.202051 4.272322,4.802677 1.522617,1.876194 3.044907,3.75205 4.566963,5.627679" />
    <path
       style="fill:none;stroke:#8a480f;stroke-width:0.5;stroke-linecap:butt;stroke-linejoin:miter;stroke-opacity:1;stroke-miterlimit:4;stroke-dasharray:none"
       d="m 26.606251,24.101786 c -0.962506,1.001791 -1.925006,2.003576 -2.764761,3.000483 -0.839755,0.996907 -1.556704,1.988851 -2.352258,3.638921 -0.795554,1.65007 -1.669643,3.95806 -2.224548,5.750516 -0.554905,1.792456 -0.790615,3.069216 -0.849515,4.70945 -0.0589,1.640234 0.05895,3.643765 0.191546,5.730841 0.132592,2.087077 0.279911,4.257571 0.6728,6.727701 0.39289,2.47013 1.03127,5.239718 2.136237,8.264755 1.104968,3.025037 2.676365,6.305329 4.046508,8.65756 1.370142,2.352231 2.53887,3.776311 3.864798,5.161128 1.325927,1.384816 2.808933,2.730325 4.159399,3.884341 1.350465,1.154017 2.568299,2.116498 3.791063,3.231261 1.222764,1.114763 2.450418,2.381703 3.677836,3.648399"
       id="path889"
       inkscape:path-effect="#path-effect891"
       inkscape:original-d="m 26.606251,24.101786 c -0.962237,1.00205 -1.924737,2.003835 -2.887501,3.005356 -0.716714,0.992251 -1.433664,1.984195 -2.150893,2.975893 -0.87386,2.308346 -1.74795,4.616336 -2.622321,6.924108 -0.235455,1.277075 -0.471165,2.553835 -0.707143,3.830357 0.118124,2.003875 0.235978,4.007406 0.353571,6.010714 0.147589,2.170843 0.294907,4.341337 0.441964,6.511608 0.63867,2.769962 1.277051,5.539549 1.915179,8.308927 1.571724,3.280688 3.143122,6.560979 4.714286,9.841071 1.169037,1.424401 2.337765,2.848481 3.50625,4.272323 1.483331,1.345827 2.966336,2.691336 4.449106,4.036607 1.218147,0.962782 2.435979,1.925265 3.653573,2.887499 1.227966,1.267253 2.455622,2.534192 3.683034,3.800893" />
    <path
       style="fill:none;stroke:#8a480f;stroke-width:0.5;stroke-linecap:butt;stroke-linejoin:miter;stroke-opacity:1;stroke-miterlimit:4;stroke-dasharray:none"
       d="m 22.06875,26.930358 c -1.276796,1.384832 -2.553582,2.769654 -3.830402,5.161272 -1.276821,2.391618 -2.553581,5.789765 -3.285263,8.549654 -0.731681,2.75989 -0.918285,4.881277 -0.996843,6.732646 -0.07856,1.85137 -0.0491,3.432588 0.181738,5.337985 0.230834,1.905398 0.662968,4.134817 1.340691,6.393776 0.677722,2.258959 1.600918,4.547306 2.764805,6.806252 1.163886,2.258946 2.568323,4.488365 4.768391,7.017385 2.200069,2.52902 5.195544,5.357535 7.400485,7.243232 2.204942,1.885697 3.6192,2.828536 4.856715,3.604423 1.237515,0.775887 2.298207,1.384803 2.975828,1.929962 0.67762,0.54516 0.972256,1.026401 1.266709,1.507341"
       id="path893"
       inkscape:path-effect="#path-effect895"
       inkscape:original-d="m 22.06875,26.930358 c -1.276521,1.385085 -2.553307,2.769907 -3.830357,4.154463 -1.276547,3.398547 -2.553307,6.796694 -3.830357,10.194642 -0.186347,2.121736 -0.37295,4.243123 -0.559822,6.364287 0.02973,1.581545 0.05919,3.162763 0.08839,4.743749 0.432416,2.229774 0.86455,4.459193 1.296428,6.688394 0.923498,2.288702 1.846694,4.577049 2.769643,6.865178 1.404757,2.229774 2.809194,4.459193 4.213393,6.688392 2.99586,2.828893 5.991335,5.657408 8.986606,8.485714 1.414579,0.943141 2.828838,1.885979 4.242859,2.828573 1.061,0.609206 2.121693,1.21812 3.182143,1.826784 0.294913,0.481525 0.58955,0.962766 0.883928,1.443752" />
    <path
       style="fill:none;stroke:#8a480f;stroke-width:0.5;stroke-linecap:butt;stroke-linejoin:miter;stroke-opacity:1;stroke-miterlimit:4;stroke-dasharray:none"
       d="M 38.333037,87.479464 C 35.966377,85.927879 33.599412,84.376093 31.310999,82.912683 29.022586,81.449272 26.81281,80.074299 25.054748,78.826991 23.296686,77.579684 21.990461,76.460063 20.153801,74.333719 18.31714,72.207375 15.950223,69.074401 14.398387,66.648503 12.84655,64.222605 12.109958,62.50389 11.525534,60.279299 c -0.584424,-2.224592 -1.016558,-4.954893 -1.193373,-7.07145 -0.176815,-2.116558 -0.09824,-3.619206 0.03434,-5.038429 0.132582,-1.419224 0.319185,-2.754912 0.707128,-4.473706 0.387943,-1.718794 0.977217,-3.820538 1.654905,-5.495156 0.677689,-1.674617 1.443745,-2.921913 2.155808,-4.026842 0.712064,-1.104928 1.370086,-2.067409 2.028161,-3.029967"
       id="path897"
       inkscape:path-effect="#path-effect899"
       inkscape:original-d="m 38.333037,87.479464 c -2.366701,-1.551522 -4.733666,-3.103308 -7.100896,-4.655357 -2.209599,-1.374764 -4.419377,-2.749735 -6.629463,-4.125002 -1.306011,-1.119399 -2.612235,-2.239021 -3.91875,-3.358928 -2.366747,-3.132833 -4.733664,-6.265807 -7.100892,-9.399106 -0.736358,-1.718521 -1.47295,-3.437236 -2.209822,-5.15625 -0.431887,-2.730148 -0.864021,-5.460449 -1.296428,-8.191071 0.07884,-1.502444 0.157407,-3.005092 0.235714,-4.508037 0.186875,-1.335476 0.373479,-2.671164 0.559821,-4.007141 0.589562,-2.101564 1.178836,-4.203308 1.767857,-6.305359 0.766352,-1.247082 1.532408,-2.494378 2.298215,-3.741963 0.658313,-0.962255 1.316336,-1.924735 1.974107,-2.887501" />
    <path
       style="fill:none;stroke:#8a480f;stroke-width:0.5;stroke-linecap:butt;stroke-linejoin:miter;stroke-opacity:1;stroke-miterlimit:4;stroke-dasharray:none"
       d="m 35.740178,87.39107 c -2.63183,-1.531961 -5.263973,-3.064103 -7.680065,-4.448939 -2.416093,-1.384837 -4.61605,-2.622313 -6.324997,-3.668286 -1.708947,-1.045973 -2.926779,-1.900419 -4.478613,-3.412906 -1.551833,-1.512487 -3.437509,-3.682978 -5.14157,-6.0254 C 10.410871,67.493117 8.8885805,64.978882 7.9554916,63.112799 7.0224027,61.246717 6.6786597,60.028885 6.3607297,58.658005 6.0427998,57.287125 5.7507324,55.763294 5.4585999,54.239125"
       id="path901"
       inkscape:path-effect="#path-effect903"
       inkscape:original-d="m 35.740178,87.39107 c -2.631879,-1.531877 -5.26402,-3.064021 -7.896428,-4.596427 -2.19978,-1.23726 -4.399736,-2.474738 -6.6,-3.712501 -1.217617,-0.854218 -2.43545,-1.708663 -3.653572,-2.563391 -1.885487,-2.170317 -3.771163,-4.340808 -5.657143,-6.511608 -1.522087,-2.514073 -3.0443776,-5.028308 -4.5669637,-7.542858 -0.3434924,-1.217618 -0.6872353,-2.43545 -1.03125,-3.65357 -0.291815,-1.52363 -0.583883,-3.04746 -0.8762214,-4.57159" />
    <path
       style="fill:none;stroke:#8a480f;stroke-width:0.5;stroke-linecap:butt;stroke-linejoin:miter;stroke-opacity:1;stroke-miterlimit:4;stroke-dasharray:none"
       d="M 49.028572,83.855358 C 49.598186,79.278797 50.167828,74.702013 50.305349,70.311819 50.442871,65.921626 50.148234,61.718137 49.853586,56.944868 49.558939,52.1716 49.264302,46.82885 48.940201,42.664541 48.6161,38.500233 48.262535,35.514576 47.899142,32.676158 47.535748,29.837741 47.162542,27.146725 46.710797,25.172616 46.259053,23.198508 45.728707,21.941391 45.335884,21.1262 44.94306,20.31101 44.687708,19.937803 44.432143,19.564285"
       id="path946"
       inkscape:path-effect="#path-effect948"
       inkscape:original-d="m 49.028572,83.855358 c 0.569907,-4.576525 1.139549,-9.153309 1.708927,-13.730359 -0.294383,-4.20339 -0.58902,-8.406879 -0.883927,-12.610713 -0.294386,-5.3427 -0.589021,-10.68545 -0.883928,-16.028572 -0.353314,-2.985508 -0.70688,-5.971165 -1.060715,-8.957144 -0.372959,-2.69086 -0.746165,-5.381876 -1.119643,-8.073213 -0.530103,-1.256904 -1.060449,-2.514021 -1.591071,-3.771429 -0.255098,-0.372957 -0.51045,-0.746164 -0.766072,-1.119643"
       sodipodi:nodetypes="cccccccc" />
    <path
       style="fill:none;stroke:#8a480f;stroke-width:0.5;stroke-linecap:butt;stroke-linejoin:miter;stroke-opacity:1;stroke-miterlimit:4;stroke-dasharray:none"
       d="m 46.671428,19.682143 c 0.648519,0.432346 1.296734,0.86449 1.935054,1.75831 0.63832,0.893821 1.266879,2.249152 1.96418,4.262569 0.697301,2.013418 1.463357,4.684791 2.072266,7.650886 0.608909,2.966096 1.060685,6.226744 1.335668,10.872327 0.274982,4.645583 0.373194,10.675818 0.324075,15.262447 -0.04912,4.586629 -0.245544,7.729421 -0.530382,10.263349 -0.284838,2.533928 -0.658044,4.458888 -1.257165,6.786575 -0.599121,2.327687 -1.424105,5.057992 -2.249053,7.788179"
       id="path950"
       inkscape:path-effect="#path-effect952"
       inkscape:original-d="m 46.671428,19.682143 c 0.648478,0.432407 1.296694,0.86455 1.944642,1.296428 0.628849,1.355649 1.257409,2.710979 1.885715,4.066072 0.766352,2.671747 1.532408,5.34312 2.298216,8.014285 0.452059,3.261045 0.903835,6.521693 1.355357,9.782143 0.09848,6.030743 0.196691,12.060978 0.294642,18.09107 -0.19617,3.143187 -0.392594,6.285979 -0.589287,9.428573 -0.372957,1.925304 -0.746162,3.850264 -1.119643,5.774999 -0.824751,2.730676 -1.649735,5.46098 -2.474999,8.191072"
       sodipodi:nodetypes="ccccccccc" />
    <path
       style="fill:none;stroke:#8a480f;stroke-width:0.5;stroke-linecap:butt;stroke-linejoin:miter;stroke-opacity:1;stroke-miterlimit:4;stroke-dasharray:none"
       d="m 50.148214,20.448214 c 1.178775,1.768162 2.357346,3.536019 3.378742,5.569084 1.021395,2.033066 1.885663,4.331235 2.504374,7.032146 0.618711,2.700912 0.991918,5.804418 1.404416,10.057147 0.412499,4.252729 0.864276,9.654406 0.982112,14.28032 0.117837,4.625913 -0.09823,8.475836 -0.90362,11.805258 -0.805391,3.329422 -2.200006,6.138294 -3.241085,8.466011 -1.041079,2.327717 -1.728566,4.174108 -2.416012,6.02039"
       id="path954"
       inkscape:path-effect="#path-effect956"
       inkscape:original-d="m 50.148214,20.448214 c 1.178835,1.768122 2.357406,3.535979 3.535715,5.303571 0.864565,2.298525 1.728835,4.596693 2.592855,6.894644 0.373486,3.103899 0.746694,6.207405 1.119643,9.310714 0.452059,5.402157 0.903838,10.803834 1.355357,16.205356 -0.21581,3.850341 -0.431877,7.700264 -0.648213,11.550001 -1.394407,2.809248 -2.789021,5.618121 -4.183928,8.426784 -0.68725,1.846732 -1.374737,3.693123 -2.062502,5.539286"
       sodipodi:nodetypes="cccccccc" />
    <path
       style="fill:none;stroke:#8a480f;stroke-width:0.5;stroke-linecap:butt;stroke-linejoin:miter;stroke-opacity:1;stroke-miterlimit:4;stroke-dasharray:none"
       d="m 52.505355,20.271428 c 1.82707,1.571672 3.653856,3.143101 5.176124,5.205663 1.522268,2.062562 2.7401,4.616083 3.58469,7.778609 0.84459,3.162525 1.316009,6.933877 1.532061,11.432129 0.216052,4.498252 0.176768,9.723046 -0.265226,14.162383 -0.441994,4.439338 -1.286621,8.092838 -2.592893,11.658006 -1.306271,3.565168 -3.074093,7.041884 -4.291952,9.300806 -1.217859,2.258921 -1.885703,3.299971 -2.553516,4.340974"
       id="path958"
       inkscape:path-effect="#path-effect960"
       inkscape:original-d="m 52.505355,20.271428 c 1.827051,1.571694 3.653838,3.143122 5.48036,4.714286 1.218144,2.553886 2.435976,5.107407 3.65357,7.660715 0.471702,3.771768 0.943121,7.54312 1.414285,11.314284 -0.03902,5.22537 -0.07831,10.450164 -0.117856,15.675002 -0.844395,3.653906 -1.689022,7.307406 -2.53393,10.960713 -1.767626,3.47712 -3.53545,6.953835 -5.30357,10.430357 -0.667607,1.041357 -1.33545,2.082408 -2.003571,3.123213"
       sodipodi:nodetypes="cccccccc" />
    <path
       style="fill:none;stroke:#8a480f;stroke-width:0.5;stroke-linecap:butt;stroke-linejoin:miter;stroke-opacity:1;stroke-miterlimit:4;stroke-dasharray:none"
       d="m 58.516069,22.098214 c 1.473461,1.689568 2.946675,3.378853 4.321655,5.333355 1.37498,1.954502 2.651741,4.174101 3.643671,6.442876 0.99193,2.268774 1.699059,4.586584 2.04276,7.562487 0.343701,2.975903 0.324058,6.609759 0.01957,10.076729 -0.304489,3.466971 -0.893762,6.766907 -1.591099,9.644585 -0.697337,2.877677 -1.502678,5.332986 -2.622334,7.866906 -1.119656,2.533919 -2.553557,5.146368 -4.134808,7.454388 -1.581251,2.308019 -3.309787,4.31155 -4.282129,5.549104 -0.972342,1.237554 -1.188409,1.708973 -1.404426,2.180285"
       id="path1398"
       inkscape:path-effect="#path-effect1400"
       inkscape:original-d="m 58.516069,22.098214 c 1.473481,1.68955 2.946694,3.378836 4.419645,5.067858 1.277075,2.21995 2.553835,4.43955 3.830357,6.658928 0.707422,2.318168 1.41455,4.635978 2.12143,6.95357 -0.01939,3.634266 -0.03902,7.268122 -0.05893,10.901785 -0.589031,3.300331 -1.178306,6.600267 -1.767856,9.900002 -0.805109,2.45567 -1.61045,4.910979 -2.416072,7.366072 -1.433692,2.612815 -2.867594,5.225264 -4.301786,7.837498 -1.72834,2.003877 -3.456876,4.007408 -5.185714,6.010714 -0.21581,0.471704 -0.431877,0.943123 -0.648214,1.414288" />
    <path
       style="fill:none;stroke:#8a480f;stroke-width:0.5;stroke-linecap:butt;stroke-linejoin:miter;stroke-opacity:1;stroke-miterlimit:4;stroke-dasharray:none"
       d="m 56.807142,83.796427 c 0.373159,-0.864159 0.746373,-1.728444 1.600865,-2.995472 0.854493,-1.267028 2.190181,-2.936639 3.51609,-4.537553 1.32591,-1.600913 2.641954,-3.133025 3.977666,-5.166049 1.335711,-2.033024 2.691041,-4.566901 3.653548,-6.894558 0.962508,-2.327657 1.53214,-4.449044 1.944658,-7.34637 0.412518,-2.897326 0.66787,-6.570468 0.569676,-10.341911 C 71.971452,42.74307 71.519677,38.873504 70.675097,35.88778 69.830518,32.902056 68.593041,30.800311 67.247529,29.002953 65.902017,27.205595 64.448474,25.712767 63.368126,24.691314 62.287778,23.66986 61.58065,23.119871 60.873213,22.569643"
       id="path1402"
       inkscape:path-effect="#path-effect1404"
       inkscape:original-d="m 56.807142,83.796427 c 0.37348,-0.86402 0.746693,-1.728306 1.119642,-2.592856 1.336006,-1.669412 2.671694,-3.339023 4.007144,-5.00893 1.316363,-1.531908 2.632408,-3.06402 3.948213,-4.596429 1.355651,-2.533713 2.710979,-5.067591 4.066071,-7.601783 0.569921,-2.121207 1.139553,-4.242594 1.708931,-6.364287 0.255627,-3.673023 0.510979,-7.346165 0.766069,-11.019642 -0.45153,-3.869457 -0.903306,-7.739023 -1.355354,-11.60893 -1.237261,-2.101561 -2.474738,-4.203305 -3.712501,-6.305357 -1.453335,-1.492623 -2.906879,-2.985449 -4.360715,-4.47857 -0.706892,-0.549747 -1.41402,-1.099736 -2.121429,-1.65" />
    <path
       style="fill:none;stroke:#8a480f;stroke-width:0.5;stroke-linecap:butt;stroke-linejoin:miter;stroke-opacity:1;stroke-miterlimit:4;stroke-dasharray:none"
       d="m 66.589285,25.751785 c 1.198426,1.709231 2.39664,3.418159 3.477005,4.96996 1.080366,1.5518 2.042846,2.946414 2.887465,4.429474 0.84462,1.48306 1.571391,3.054456 2.180274,5.41162 0.608884,2.357165 1.099945,5.499959 1.090077,8.524944 -0.0099,3.024986 -0.520573,5.932072 -1.325949,8.83921 -0.805377,2.907138 -1.905354,5.814222 -2.966076,8.132065 -1.060721,2.317843 -2.082129,4.046378 -3.201754,5.460628 -1.119624,1.41425 -2.337457,2.514229 -3.496395,3.555309 -1.158938,1.04108 -2.258917,2.023205 -3.182164,3.034854 -0.923247,1.01165 -1.669661,2.052701 -2.072349,2.661686 -0.402688,0.608985 -0.461615,0.785766 -0.530361,1.060791 -0.06874,0.275025 -0.147315,0.64823 -0.196392,0.697376 -0.04908,0.04915 -0.06872,-0.225848 -0.08838,-0.501131"
       id="path1816"
       inkscape:path-effect="#path-effect1818"
       inkscape:original-d="m 66.589285,25.751785 c 1.198478,1.709194 2.396693,3.418122 3.594642,5.126786 0.962784,1.394936 1.925265,2.789549 2.887501,4.18393 0.727065,1.571723 1.453835,3.14312 2.180357,4.714285 0.491345,3.143184 0.982406,6.285978 1.473214,9.42857 -0.510458,2.907466 -1.021165,5.814552 -1.532142,8.721428 -1.099759,2.907467 -2.199735,5.814552 -3.299999,8.721429 -1.021186,1.728872 -2.042594,3.457408 -3.064288,5.185714 -1.217615,1.100288 -2.43545,2.200264 -3.65357,3.3 -1.099757,0.982427 -2.199736,1.964552 -3.3,2.946429 -0.746181,1.041357 -1.492594,2.082408 -2.239285,3.123215 -0.05867,0.177054 -0.117594,0.353836 -0.176787,0.530358 -0.07831,0.373486 -0.156879,0.746691 -0.235715,1.119642 -0.01937,-0.27474 -0.03902,-0.549735 -0.05893,-0.825" />
    <path
       style="fill:none;stroke:#8a480f;stroke-width:0.5;stroke-linecap:butt;stroke-linejoin:miter;stroke-opacity:1;stroke-miterlimit:4;stroke-dasharray:none"
       d="m 71.185714,29.287499 c 1.316305,1.630647 2.632376,3.261004 3.75198,5.146755 1.119604,1.88575 2.0428,4.026778 2.799018,6.550908 0.756219,2.524129 1.345492,5.431214 0.913281,9.782105 -0.432212,4.350892 -1.885755,10.145418 -3.742018,14.486443 -1.856263,4.341025 -4.115148,7.228468 -6.108862,9.192722 -1.993714,1.964255 -3.72225,3.005306 -4.900891,4.085741 -1.178642,1.080436 -1.807201,2.200057 -2.435723,3.319612"
       id="path1820"
       inkscape:path-effect="#path-effect1822"
       inkscape:original-d="m 71.185714,29.287499 c 1.316336,1.630622 2.632408,3.260979 3.948213,4.891071 0.923499,2.141379 1.846693,4.282408 2.769645,6.423216 0.58956,2.907464 1.178835,5.814549 1.767856,8.721428 -1.453335,5.795023 -2.90688,11.589549 -4.360715,17.383929 -2.258708,2.887822 -4.517593,5.775264 -6.776786,8.662498 -1.72834,1.041358 -3.456876,2.082409 -5.185714,3.123216 -0.628319,1.119928 -1.256877,2.23955 -1.885714,3.358928" />
    <path
       style="fill:none;stroke:#8a480f;stroke-width:0.5;stroke-linecap:butt;stroke-linejoin:miter;stroke-opacity:1;stroke-miterlimit:4;stroke-dasharray:none"
       d="m 39.835714,20.330357 c -0.294682,1.551992 -0.589325,3.103778 -0.795565,4.675241 -0.206241,1.571462 -0.324096,3.162502 -0.304436,5.588445 0.01966,2.425942 0.176799,5.68659 0.432162,10.135755 0.255363,4.449165 0.608927,10.086553 1.23753,15.134824 0.628603,5.048272 1.532156,9.507112 2.327707,13.131249 0.79555,3.624137 1.483036,6.413366 2.09688,8.932585 0.613844,2.51922 1.154012,4.768282 1.694116,7.017078"
       id="path1937"
       inkscape:path-effect="#path-effect1939"
       inkscape:original-d="m 39.835714,20.330357 c -0.294378,1.55205 -0.589021,3.103836 -0.883928,4.655357 -0.117597,1.591367 -0.23545,3.182407 -0.353573,4.773214 0.157411,3.261045 0.314552,6.521693 0.471429,9.782143 0.353843,5.637877 0.707408,11.275264 1.060714,16.9125 0.903854,4.459282 1.807409,8.918122 2.710715,13.376785 0.687779,2.789606 1.375264,5.578835 2.062501,8.367858 0.540454,2.249416 1.080622,4.498478 1.620536,6.74732" />
    <path
       style="fill:#d37d29;stroke:#8a480f;stroke-width:1;stroke-linecap:butt;stroke-linejoin:miter;stroke-opacity:1;fill-opacity:1;stroke-miterlimit:4;stroke-dasharray:none"
       d="m 34.841506,20.590741 c 0.04418,-0.417294 0.132577,-1.252114 0.235702,-2.17043 0.103125,-0.918315 0.22098,-1.920081 0.387937,-2.89243 0.166958,-0.972349 0.383025,-1.915187 0.441989,-2.867828 0.05896,-0.952641 -0.03925,-1.915122 0.117874,-2.642045 0.157122,-0.7269221 0.569614,-1.217983 1.217967,-1.5028284 0.648354,-0.2848454 1.532264,-0.3634152 2.56348,-0.6187936 1.031217,-0.2553783 2.209764,-0.6875123 2.966056,-0.6873336 0.756293,1.787e-4 1.090215,0.4323133 1.453584,1.0117953 0.363368,0.5794821 0.756218,1.3062534 1.090039,1.4239924 0.333821,0.117739 0.608815,-0.3733227 0.942765,-0.8447907 0.333949,-0.4714679 0.726798,-0.9232436 0.972361,-0.7364923 0.245563,0.1867513 0.343775,1.0117347 0.0098,2.1607609 -0.33398,1.149026 -1.100036,2.622211 -1.306161,3.64375 -0.206124,1.021539 0.14744,1.59117 0.363425,2.484918 0.215985,0.893747 0.294555,2.11158 0.58931,3.044628 0.294754,0.933048 0.805458,1.581249 -0.461543,2.150734 -1.267001,0.569484 -4.311585,1.060546 -6.545923,0.957509 -2.234339,-0.103037 -3.658417,-0.800345 -5.082841,-1.497822 0,0 0,0 0,0 0,0 0,0 0.04418,-0.417294 z"
       id="path100100"
       inkscape:path-effect="#path-effect100102"
       inkscape:original-d="m 34.797322,21.008035 c 0.08866,-0.834557 0.177049,-1.669378 0.265179,-2.504464 0.118123,-1.001541 0.235976,-2.003307 0.353571,-3.005357 0.216339,-0.942611 0.432405,-1.88545 0.648213,-2.828571 -0.09795,-0.962255 -0.196165,-1.924736 -0.294643,-2.8875001 0.412774,-0.4908169 0.825265,-0.9818783 1.237501,-1.4732143 0.884211,-0.078309 1.768121,-0.1568783 2.651784,-0.2357144 1.178862,-0.431887 2.357409,-0.8640212 3.535714,-1.2964287 0.334201,0.4324162 0.668124,0.8645504 1.001787,1.2964287 0.393129,0.727065 0.785979,1.4538359 1.178571,2.1803568 0.275269,-0.4908163 0.550264,-0.9818779 0.825,-1.4732139 0.393131,-0.4515303 0.785979,-0.9033068 1.178573,-1.3553572 0.09848,0.8252812 0.196691,1.6502647 0.294642,2.475 -0.765823,1.4735081 -1.531879,2.9466931 -2.298215,4.4196431 0.353843,0.569919 0.707408,1.13955 1.060714,1.708928 0.07884,1.218146 0.157409,2.435979 0.235715,3.653572 0.51099,0.648492 1.021694,1.296693 1.532144,1.944643 -3.044439,0.491345 -6.089023,0.982407 -9.13393,1.473214 -1.423871,-0.697071 -2.847949,-1.394379 -4.27232,-2.091965 0,0 2.65e-4,2.64e-4 0,0 0,0 2.65e-4,2.64e-4 0,0 z" />
  </g>
</svg>
