<?xml version="1.0" encoding="UTF-8" standalone="no"?>
<!-- Created with Inkscape (http://www.inkscape.org/) -->

<svg
   width="100mm"
   height="100mm"
   viewBox="0 0 100 100"
   version="1.1"
   id="svg5"
   inkscape:version="1.1.1 (3bf5ae0d25, 2021-09-20)"
   sodipodi:docname="player.svg"
   xmlns:inkscape="http://www.inkscape.org/namespaces/inkscape"
   xmlns:sodipodi="http://sodipodi.sourceforge.net/DTD/sodipodi-0.dtd"
   xmlns="http://www.w3.org/2000/svg"
   xmlns:svg="http://www.w3.org/2000/svg">
  <sodipodi:namedview
     id="namedview7"
     pagecolor="#ffffff"
     bordercolor="#666666"
     borderopacity="1.0"
     inkscape:pageshadow="2"
     inkscape:pageopacity="0.0"
     inkscape:pagecheckerboard="0"
     inkscape:document-units="mm"
     showgrid="false"
     width="100mm"
     inkscape:zoom="1.1224747"
     inkscape:cx="-32.517435"
     inkscape:cy="234.74916"
     inkscape:window-width="1920"
     inkscape:window-height="1007"
     inkscape:window-x="0"
     inkscape:window-y="0"
     inkscape:window-maximized="1"
     inkscape:current-layer="layer1"
     inkscape:snap-bbox="true"
     inkscape:bbox-paths="false"
     inkscape:bbox-nodes="true"
     inkscape:snap-bbox-midpoints="true"
     inkscape:snap-bbox-edge-midpoints="true"
     inkscape:object-paths="false"
     inkscape:snap-intersection-paths="false"
     inkscape:snap-smooth-nodes="false"
     inkscape:snap-midpoints="false"
     inkscape:snap-object-midpoints="true"
     inkscape:snap-page="true"
     inkscape:object-nodes="false"
     inkscape:snap-others="true" />
  <defs
     id="defs2">
    <inkscape:path-effect
       effect="bspline"
       id="path-effect34364"
       is_visible="true"
       lpeversion="1"
       weight="33.333333"
       steps="2"
       helper_size="0"
       apply_no_weight="true"
       apply_with_weight="true"
       only_selected="false" />
    <inkscape:path-effect
       effect="bspline"
       id="path-effect15982"
       is_visible="true"
       lpeversion="1"
       weight="33.333333"
       steps="2"
       helper_size="0"
       apply_no_weight="true"
       apply_with_weight="true"
       only_selected="false" />
    <inkscape:path-effect
       effect="bspline"
       id="path-effect15425"
       is_visible="true"
       lpeversion="1"
       weight="33.333333"
       steps="2"
       helper_size="0"
       apply_no_weight="true"
       apply_with_weight="true"
       only_selected="false" />
    <inkscape:path-effect
       effect="bspline"
       id="path-effect674"
       is_visible="true"
       lpeversion="1"
       weight="33.333333"
       steps="2"
       helper_size="0"
       apply_no_weight="true"
       apply_with_weight="true"
       only_selected="false" />
  </defs>
  <g
     inkscape:label="Layer 1"
     inkscape:groupmode="layer"
     id="layer1">
    <path
       id="path361"
       style="fill:#639bff;stroke:none;stroke-width:0.289023;fill-opacity:1"
       d="M 49.913748,9.7988849 A 43.725001,40.855315 0 0 0 6.1887694,50.654272 43.725001,40.855315 0 0 0 6.233728,51.83973 43.725001,29.086045 0 0 0 6.1887694,52.674821 43.725001,29.086045 0 0 0 49.913748,81.7609 43.725001,29.086045 0 0 0 93.638729,52.674821 43.725001,29.086045 0 0 0 93.593768,51.829393 43.725001,40.855315 0 0 0 93.638729,50.654272 43.725001,40.855315 0 0 0 49.913748,9.7988849 Z" />
    <path
       id="path15865"
       style="fill:#eec39a;fill-opacity:1;stroke:none;stroke-width:0.999999"
       d="M 190.88867 130.08203 C 190.77277 130.08151 190.65493 130.08267 190.53516 130.08594 C 188.61882 130.13817 186.20515 130.66313 184.60352 131.81836 C 183.00188 132.97359 182.21435 134.75789 180.84961 136.4375 C 180.46456 136.91139 180.03487 137.37617 179.61328 137.83398 A 64.812149 47.662541 0 0 0 123.83789 185.02734 A 64.812149 47.662541 0 0 0 188.65039 232.68945 A 64.812149 47.662541 0 0 0 253.46289 185.02734 A 64.812149 47.662541 0 0 0 198.41406 137.91211 C 198.17782 137.60442 197.94295 137.28974 197.72656 136.96289 C 196.54501 135.17816 195.91583 133.02683 194.89258 131.74023 C 193.93328 130.53405 192.62715 130.08984 190.88867 130.08203 z "
       transform="scale(0.26458333)" />
    <path
       id="path15980"
       style="fill:#663931;fill-opacity:1;stroke:none;stroke-width:0.264583px;stroke-linecap:butt;stroke-linejoin:miter;stroke-opacity:1"
       d="m 50.023303,43.589963 c -1.937276,-0.01229 -3.881855,0.134797 -5.708695,0.449069 -3.653679,0.628542 -6.835672,1.924871 -10.508919,3.908804 -0.334044,0.180419 -0.676743,0.372517 -1.018543,0.56379 a 17.148214,12.610714 0 0 0 -0.0217,0.443383 17.148214,12.610714 0 0 0 17.148307,12.6106 17.148214,12.610714 0 0 0 17.148307,-12.6106 17.148214,12.610714 0 0 0 -0.08113,-1.22473 C 66.825712,47.672624 66.6637,47.612445 66.511186,47.555612 62.346848,46.003818 59.282775,44.746235 55.688074,44.097942 53.890726,43.773798 51.96058,43.602253 50.023303,43.589963 Z" />
    <path
       style="fill:#eec39a;stroke:none;stroke-width:0.264583px;stroke-linecap:butt;stroke-linejoin:miter;stroke-opacity:1;fill-opacity:1"
       d="m 91.584958,55.795541 c 0.952818,0.04912 2.858175,0.147329 4.419369,-0.324126 1.561194,-0.471455 2.778432,-1.512505 3.387052,-2.985597 C 100,51.012727 100,49.107407 99.637004,47.644022 99.274009,46.180636 98.547833,45.159229 97.006172,44.609082 95.464511,44.058936 93.107143,43.980357 90.75,43.901785 c 0,0 -0.176787,11.608927 -0.176787,11.608927 0.01964,0.07857 0.03937,0.157455 0.04915,0.196585 0.0098,0.03913 0.0098,0.03913 0.962598,0.08824 z"
       id="path672"
       inkscape:path-effect="#path-effect674"
       inkscape:original-d="m 90.632141,55.746427 c 1.905622,0.09848 3.810979,0.196694 5.716072,0.294643 1.217551,-1.040826 2.434788,-2.081877 3.651787,-3.123213 2.6e-4,-1.90513 2.6e-4,-3.81045 0,-5.716072 C 99.274057,46.180602 98.547882,45.159194 97.821429,44.1375 95.464502,44.059191 90.75,43.901785 90.75,43.901785 c 0,0 -0.176787,11.608927 -0.176787,11.608927 0,0 0.03955,0.157409 0.05893,0.235715 z" />
    <path
       style="fill:#eec39a;fill-opacity:1;stroke:none;stroke-width:0.264583px;stroke-linecap:butt;stroke-linejoin:miter;stroke-opacity:1"
       d="M 8.299474,55.925207 C 7.3466565,55.974322 5.4412996,56.072536 3.8801055,55.601081 2.3189115,55.129626 1.1016737,54.088576 0.49305328,52.615484 -0.11556717,51.142393 -0.11556717,49.237073 0.24742851,47.773688 0.61042419,46.310302 1.3365996,45.288895 2.8782608,44.738748 4.419922,44.188602 6.7772895,44.110023 9.1344325,44.031451 c 0,0 0.176787,11.608927 0.176787,11.608927 -0.019643,0.07857 -0.039365,0.157455 -0.049147,0.196585 -0.00978,0.03913 -0.00978,0.03913 -0.9625982,0.08824 z"
       id="path15421"
       inkscape:path-effect="#path-effect15425"
       inkscape:original-d="m 9.2522915,55.876093 c -1.905622,0.09848 -3.810979,0.196694 -5.716072,0.294643 -1.217551,-1.040826 -2.434788,-2.081877 -3.65178667,-3.123213 -2.6e-4,-1.90513 -2.6e-4,-3.81045 0,-5.716072 0.725943,-1.021183 1.45211767,-2.042591 2.17857067,-3.064285 2.356927,-0.07831 7.071429,-0.235715 7.071429,-0.235715 0,0 0.176787,11.608927 0.176787,11.608927 0,0 -0.03955,0.157409 -0.05893,0.235715 z" />
    <ellipse
       style="fill:#000000;fill-opacity:1;stroke:none;stroke-width:0.264583"
       id="path34128"
       cx="45.314812"
       cy="41.835468"
       rx="1.6459173"
       ry="1.2500638" />
    <ellipse
       style="fill:#000000;fill-opacity:1;stroke:none;stroke-width:0.264583"
       id="ellipse34232"
       cx="54.690292"
       cy="41.877136"
       rx="1.6459173"
       ry="1.2500638" />
  </g>
</svg>
