<?xml version="1.0" encoding="UTF-8" standalone="no"?>
<!-- Created with Inkscape (http://www.inkscape.org/) -->

<svg
   width="100mm"
   height="100mm"
   viewBox="0 0 100 100"
   version="1.1"
   id="svg5"
   inkscape:version="1.1.1 (3bf5ae0d25, 2021-09-20, custom)"
   sodipodi:docname="pumpkin.svg"
   xmlns:inkscape="http://www.inkscape.org/namespaces/inkscape"
   xmlns:sodipodi="http://sodipodi.sourceforge.net/DTD/sodipodi-0.dtd"
   xmlns="http://www.w3.org/2000/svg"
   xmlns:svg="http://www.w3.org/2000/svg">
  <sodipodi:namedview
     id="namedview7"
     pagecolor="#ffffff"
     bordercolor="#666666"
     borderopacity="1.0"
     inkscape:pageshadow="2"
     inkscape:pageopacity="0.0"
     inkscape:pagecheckerboard="0"
     inkscape:document-units="mm"
     showgrid="false"
     width="100mm"
     inkscape:zoom="1.587419"
     inkscape:cx="38.112181"
     inkscape:cy="198.12034"
     inkscape:window-width="1920"
     inkscape:window-height="1007"
     inkscape:window-x="0"
     inkscape:window-y="0"
     inkscape:window-maximized="1"
     inkscape:current-layer="layer1" />
  <defs
     id="defs2">
    <inkscape:path-effect
       effect="bspline"
       id="path-effect100064"
       is_visible="true"
       lpeversion="1"
       weight="33.333333"
       steps="2"
       helper_size="0"
       apply_no_weight="true"
       apply_with_weight="true"
       only_selected="false" />
    <inkscape:path-effect
       effect="bspline"
       id="path-effect100060"
       is_visible="true"
       lpeversion="1"
       weight="33.333333"
       steps="2"
       helper_size="0"
       apply_no_weight="true"
       apply_with_weight="true"
       only_selected="false" />
    <inkscape:path-effect
       effect="bspline"
       id="path-effect100056"
       is_visible="true"
       lpeversion="1"
       weight="33.333333"
       steps="2"
       helper_size="0"
       apply_no_weight="true"
       apply_with_weight="true"
       only_selected="false" />
    <inkscape:path-effect
       effect="bspline"
       id="path-effect100052"
       is_visible="true"
       lpeversion="1"
       weight="33.333333"
       steps="2"
       helper_size="0"
       apply_no_weight="true"
       apply_with_weight="true"
       only_selected="false" />
    <inkscape:path-effect
       effect="bspline"
       id="path-effect100048"
       is_visible="true"
       lpeversion="1"
       weight="33.333333"
       steps="2"
       helper_size="0"
       apply_no_weight="true"
       apply_with_weight="true"
       only_selected="false" />
    <inkscape:path-effect
       effect="bspline"
       id="path-effect100011"
       is_visible="true"
       lpeversion="1"
       weight="33.333333"
       steps="2"
       helper_size="0"
       apply_no_weight="true"
       apply_with_weight="true"
       only_selected="false" />
    <inkscape:path-effect
       effect="bspline"
       id="path-effect99974"
       is_visible="true"
       lpeversion="1"
       weight="33.333333"
       steps="2"
       helper_size="0"
       apply_no_weight="true"
       apply_with_weight="true"
       only_selected="false" />
    <inkscape:path-effect
       effect="bspline"
       id="path-effect99970"
       is_visible="true"
       lpeversion="1"
       weight="33.333333"
       steps="2"
       helper_size="0"
       apply_no_weight="true"
       apply_with_weight="true"
       only_selected="false" />
    <inkscape:path-effect
       effect="bspline"
       id="path-effect99966"
       is_visible="true"
       lpeversion="1"
       weight="33.333333"
       steps="2"
       helper_size="0"
       apply_no_weight="true"
       apply_with_weight="true"
       only_selected="false" />
    <inkscape:path-effect
       effect="bspline"
       id="path-effect99962"
       is_visible="true"
       lpeversion="1"
       weight="33.333333"
       steps="2"
       helper_size="0"
       apply_no_weight="true"
       apply_with_weight="true"
       only_selected="false" />
    <inkscape:path-effect
       effect="bspline"
       id="path-effect99958"
       is_visible="true"
       lpeversion="1"
       weight="33.333333"
       steps="2"
       helper_size="0"
       apply_no_weight="true"
       apply_with_weight="true"
       only_selected="false" />
    <inkscape:path-effect
       effect="bspline"
       id="path-effect99841"
       is_visible="true"
       lpeversion="1"
       weight="33.333333"
       steps="2"
       helper_size="0"
       apply_no_weight="true"
       apply_with_weight="true"
       only_selected="false" />
    <inkscape:path-effect
       effect="bspline"
       id="path-effect99837"
       is_visible="true"
       lpeversion="1"
       weight="33.333333"
       steps="2"
       helper_size="0"
       apply_no_weight="true"
       apply_with_weight="true"
       only_selected="false" />
    <inkscape:path-effect
       effect="bspline"
       id="path-effect99833"
       is_visible="true"
       lpeversion="1"
       weight="33.333333"
       steps="2"
       helper_size="0"
       apply_no_weight="true"
       apply_with_weight="true"
       only_selected="false" />
    <inkscape:path-effect
       effect="bspline"
       id="path-effect99829"
       is_visible="true"
       lpeversion="1"
       weight="33.333333"
       steps="2"
       helper_size="0"
       apply_no_weight="true"
       apply_with_weight="true"
       only_selected="false" />
    <inkscape:path-effect
       effect="bspline"
       id="path-effect99825"
       is_visible="true"
       lpeversion="1"
       weight="33.333333"
       steps="2"
       helper_size="0"
       apply_no_weight="true"
       apply_with_weight="true"
       only_selected="false" />
    <inkscape:path-effect
       effect="bspline"
       id="path-effect99821"
       is_visible="true"
       lpeversion="1"
       weight="33.333333"
       steps="2"
       helper_size="0"
       apply_no_weight="true"
       apply_with_weight="true"
       only_selected="false" />
    <inkscape:path-effect
       effect="bspline"
       id="path-effect99817"
       is_visible="true"
       lpeversion="1"
       weight="33.333333"
       steps="2"
       helper_size="0"
       apply_no_weight="true"
       apply_with_weight="true"
       only_selected="false" />
    <inkscape:path-effect
       effect="bspline"
       id="path-effect99813"
       is_visible="true"
       lpeversion="1"
       weight="33.333333"
       steps="2"
       helper_size="0"
       apply_no_weight="true"
       apply_with_weight="true"
       only_selected="false" />
    <inkscape:path-effect
       effect="bspline"
       id="path-effect99809"
       is_visible="true"
       lpeversion="1"
       weight="33.333333"
       steps="2"
       helper_size="0"
       apply_no_weight="true"
       apply_with_weight="true"
       only_selected="false" />
    <inkscape:path-effect
       effect="bspline"
       id="path-effect96221"
       is_visible="true"
       lpeversion="1"
       weight="33.333333"
       steps="2"
       helper_size="0"
       apply_no_weight="true"
       apply_with_weight="true"
       only_selected="false" />
    <inkscape:path-effect
       effect="bspline"
       id="path-effect86551"
       is_visible="true"
       lpeversion="1"
       weight="33.333333"
       steps="2"
       helper_size="0"
       apply_no_weight="true"
       apply_with_weight="true"
       only_selected="false" />
    <inkscape:path-effect
       effect="bspline"
       id="path-effect24755"
       is_visible="true"
       lpeversion="1"
       weight="33.333333"
       steps="2"
       helper_size="0"
       apply_no_weight="true"
       apply_with_weight="true"
       only_selected="false" />
    <inkscape:path-effect
       effect="bspline"
       id="path-effect56"
       is_visible="true"
       lpeversion="1"
       weight="33.333333"
       steps="2"
       helper_size="0"
       apply_no_weight="true"
       apply_with_weight="true"
       only_selected="false" />
  </defs>
  <g
     inkscape:label="Layer 1"
     inkscape:groupmode="layer"
     id="layer1">
    <path
       style="fill:#f39101;stroke:#ae6801;stroke-width:0.5;stroke-linecap:butt;stroke-linejoin:miter;stroke-opacity:1;fill-opacity:1;stroke-miterlimit:4;stroke-dasharray:none"
       d="m 39.043884,21.26499 c -0.986073,-0.0416 -2.263915,-0.402725 -3.514068,-0.388902 -1.250152,0.01382 -2.47241,0.402723 -3.458582,0.722186 -0.986172,0.319463 -1.736194,0.56947 -2.458431,0.750045 -0.722238,0.180575 -1.416703,0.29169 -2.666828,0.722265 -1.250125,0.430575 -3.055736,1.180598 -5.000374,2.736293 -1.944638,1.555695 -4.028036,3.916879 -5.139219,5.417052 -1.111183,1.500173 -1.250076,2.139081 -1.62499,2.541757 -0.374915,0.402677 -0.986045,0.569349 -1.944549,1.611141 -0.958504,1.041793 -2.2641,2.958519 -3.5141827,5.778198 -1.2500823,2.819678 -2.4445635,6.542014 -3.0417901,10.431194 -0.5972266,3.889179 -0.5972266,7.944861 -0.2221474,11.111738 0.3750791,3.166878 1.1251022,5.444726 1.9029412,7.555964 0.777839,2.111238 1.5834195,4.055743 2.625231,5.541898 1.041812,1.486155 2.31963,2.513965 3.055681,3.361277 0.736051,0.847313 0.930501,1.514 2.013992,2.889069 1.083491,1.375069 3.055774,3.458467 4.708677,4.902952 1.652903,1.444485 2.986277,2.250066 4.375252,2.84727 1.388976,0.597205 2.833465,0.986106 3.847399,1.208311 1.013934,0.222206 1.597285,0.277762 2.583476,0.625068 0.98619,0.347306 2.375124,0.986216 3.527919,1.236137 1.152795,0.249922 2.069492,0.111028 2.986255,0.361169 0.916763,0.250141 1.833459,0.889052 3.319644,1.180623 1.486184,0.291572 3.541804,0.236014 4.625053,0.138805 1.083249,-0.09721 1.194363,-0.236102 1.861246,-0.124951 0.666884,0.111151 1.889143,0.472273 3.250272,0.458309 1.361129,-0.01396 2.861177,-0.402866 3.930618,-0.819553 1.06944,-0.416687 1.708349,-0.861144 2.541867,-0.916628 0.833518,-0.05548 1.861326,0.277858 3.236301,-0.0278 1.374975,-0.305657 3.097252,-1.250132 4.250205,-1.638969 1.152953,-0.388837 1.736304,-0.222165 2.708467,-0.56948 0.972164,-0.347315 2.333317,-1.208453 3.402906,-1.680691 1.069588,-0.472238 1.84739,-0.555574 3.264083,-1.138962 1.416692,-0.583387 3.472311,-1.666753 5.333474,-3.194591 1.861163,-1.527838 3.527882,-3.500122 5.097404,-6.069683 1.569522,-2.56956 3.04179,-5.736324 4.12519,-8.792027 1.083401,-3.055704 1.777867,-6.000239 2.166795,-8.722593 0.388928,-2.722355 0.472264,-5.222432 0.111168,-8.125364 -0.361096,-2.902932 -1.166676,-6.208588 -2.125014,-8.778183 -0.958337,-2.569594 -2.069482,-4.402983 -3.138945,-5.764206 -1.069462,-1.361224 -2.09727,-2.25014 -2.694641,-3.194614 -0.59737,-0.944474 -0.764042,-1.944506 -1.319528,-2.916805 -0.555486,-0.972299 -1.499961,-1.916774 -3.333399,-3.389114 -1.833437,-1.47234 -4.555744,-3.472401 -6.77809,-4.680872 -2.222347,-1.208471 -3.944623,-1.625151 -5.208644,-1.736326 -1.264022,-0.111175 -2.069602,0.08328 -2.666844,-0.08323 -0.597242,-0.166508 -0.986142,-0.694303 -1.708371,-1.055555 -0.722229,-0.361253 -1.777816,-0.555703 -2.652937,-0.541865 -0.875121,0.01384 -1.569588,0.236067 -2.347339,0.222247 -0.77775,-0.01382 -1.638886,-0.263828 -2.305654,-0.333344 -0.666768,-0.06952 -1.139004,0.0416 -1.888989,-0.138874 -0.749986,-0.180474 -1.777794,-0.65271 -2.833494,-0.708365 -1.0557,-0.05565 -2.139068,0.305468 -3.027929,0.374991 -0.888862,0.06952 -1.58333,-0.152707 -2.222282,-0.263874 -0.638953,-0.111167 -1.222306,-0.111167 -1.819622,-7.5e-5 -0.597317,0.111092 -1.208447,0.333321 -1.861271,0.583336 -0.652824,0.250015 -1.347289,0.527801 -2.333362,0.486204 z"
       id="path54"
       inkscape:path-effect="#path-effect56"
       inkscape:original-d="m 39.335339,21.584434 c -1.277578,-0.360865 -2.55542,-0.721994 -3.833529,-1.083388 -1.222045,0.389181 -2.444303,0.778082 -3.666853,1.166726 -0.749789,0.250282 -1.499811,0.50029 -2.250114,0.750038 -0.69423,0.111384 -1.388695,0.222498 -2.08344,0.33335 -1.80542,0.750318 -3.611031,1.500342 -5.416943,2.250115 -2.083217,2.361544 -4.166615,4.722728 -6.250319,7.083695 -0.138634,0.639199 -0.277527,1.278107 -0.416688,1.916763 -0.61089,0.166945 -1.22202,0.333616 -1.833427,0.500026 -1.305384,1.917067 -2.61098,3.833794 -3.9168663,5.750295 -1.1942646,3.722751 -2.3887461,7.445087 -3.5835161,11.167234 2.646e-4,4.05611 2.646e-4,8.111792 0,12.167288 0.7503179,2.278206 1.5003412,4.556054 2.2501148,6.833682 0.8058774,1.944846 1.6114578,3.889351 2.4167896,5.833631 1.278134,1.028116 2.555951,2.055927 3.833529,3.083492 0.194723,0.666977 0.389174,1.333664 0.583363,2.000101 1.972627,2.083745 3.94491,4.167143 5.916969,6.250319 1.333692,0.805878 2.667067,1.611458 4.000204,2.416791 1.444811,0.389181 2.889301,0.778081 4.333553,1.166725 0.583642,0.05582 1.166992,0.111382 1.750092,0.166674 1.38925,0.639199 2.778183,1.27811 4.166877,1.916766 0.916996,-0.138636 1.833693,-0.277529 2.75014,-0.416689 0.916996,0.639199 1.833693,1.278109 2.75014,1.916766 2.055966,-0.0553 4.111586,-0.110853 6.166983,-0.166677 0.111384,-0.138634 0.222498,-0.277527 0.333351,-0.416687 1.222573,0.361402 2.444832,0.722524 3.666852,1.083389 1.50037,-0.388652 3.000418,-0.777555 4.500229,-1.166728 0.639199,-0.444211 1.278107,-0.888669 1.916766,-1.333399 1.028116,0.333621 2.055924,0.666964 3.083489,1.000051 1.722609,-0.944248 3.444886,-1.888723 5.166931,-2.833479 0.583639,0.166942 1.16699,0.333616 1.75009,0.500026 1.361471,-0.860909 2.722625,-1.722046 4.083542,-2.583466 0.778097,-0.08307 1.555898,-0.16641 2.333453,-0.250013 2.055966,-1.083146 4.111585,-2.166511 6.166979,-3.250165 1.66705,-1.972098 3.333769,-3.944382 5.000255,-5.91697 1.472591,-3.166626 2.94486,-6.333389 4.416893,-9.500483 0.694759,-2.944389 1.389224,-5.888924 2.08344,-8.833784 0.0836,-2.499913 0.166939,-4.99999 0.250013,-7.500382 -0.805349,-3.305527 -1.610929,-6.611183 -2.416791,-9.917173 -1.110925,-1.8332 -2.222072,-3.666588 -3.333504,-5.50028 -1.027586,-0.888688 -2.055395,-1.777603 -3.083489,-2.666804 -0.166415,-0.999805 -0.333086,-1.999837 -0.500025,-3.000153 -0.944248,-0.944245 -1.888723,-1.88872 -2.833479,-2.833478 -2.722152,-1.999877 -5.444458,-3.999939 -8.167084,-6.000305 -1.72208,-0.416432 -3.444356,-0.833111 -5.166929,-1.250064 -0.805349,0.194723 -1.610929,0.389173 -2.416791,0.583363 -0.388652,-0.52755 -0.777552,-1.055345 -1.166725,-1.583414 -1.055368,-0.194194 -2.110955,-0.388644 -3.16683,-0.583363 -0.694227,0.222503 -1.388695,0.444732 -2.083438,0.666701 -0.860909,-0.249754 -1.722045,-0.499761 -2.583465,-0.750039 -0.471993,0.111384 -0.944229,0.222499 -1.416741,0.333351 -1.027586,-0.471991 -2.055394,-0.944228 -3.083488,-1.416739 -1.083146,0.361401 -2.166514,0.722523 -3.250166,1.083388 -0.694229,-0.221973 -1.388697,-0.444202 -2.08344,-0.6667 -0.58311,2.64e-4 -1.166463,2.64e-4 -1.750089,0 -0.610891,0.222502 -1.222021,0.444731 -1.833428,0.6667 -0.694229,0.278062 -1.388694,0.555849 -2.08344,0.833376 z" />
    <path
       style="fill:none;stroke:#ae6801;stroke-width:1;stroke-linecap:butt;stroke-linejoin:miter;stroke-opacity:1;stroke-miterlimit:4;stroke-dasharray:none"
       d="M 46.96607,27.873214 C 46.180601,26.969924 45.394887,26.066352 44.353821,25.044895 43.312754,24.023438 42.016352,22.884175 41.088856,22.234511 40.16136,21.584846 39.602785,21.424965 39.043882,21.26499"
       id="path99807"
       inkscape:path-effect="#path-effect99809"
       inkscape:original-d="M 46.96607,27.873214 C 46.18062,26.969908 45.394906,26.066336 44.608929,25.1625 43.312738,24.023456 42.016336,22.884193 40.719642,21.744643 40.16131,21.58502 39.602735,21.425139 39.043882,21.26499" />
    <path
       style="fill:none;stroke:#ae6801;stroke-width:1;stroke-linecap:butt;stroke-linejoin:miter;stroke-opacity:1;stroke-miterlimit:4;stroke-dasharray:none"
       d="m 43.499201,27.544172 c -1.004784,-0.646372 -2.009875,-1.292941 -3.185198,-1.96982 -1.175322,-0.676879 -2.520829,-1.384007 -3.694499,-1.929122 -1.17367,-0.545116 -2.175435,-0.928144 -3.191983,-1.15409 -1.016547,-0.225945 -2.047777,-0.294693 -2.705878,-0.279996 -0.658101,0.0147 -0.942918,0.112909 -1.227894,0.211177"
       id="path99811"
       inkscape:path-effect="#path-effect99813"
       inkscape:original-d="m 43.499201,27.544172 c -1.004827,-0.646305 -2.009918,-1.292874 -3.015274,-1.939708 -1.345298,-0.706892 -2.690804,-1.414021 -4.036605,-2.121428 -1.001543,-0.382779 -2.003308,-0.765807 -3.005357,-1.149108 -1.031007,-0.06849 -2.062237,-0.137235 -3.093752,-0.20625 -0.284562,0.09848 -0.569378,0.196693 -0.854464,0.294643" />
    <path
       style="fill:none;stroke:#ae6801;stroke-width:1;stroke-linecap:butt;stroke-linejoin:miter;stroke-opacity:1;stroke-miterlimit:4;stroke-dasharray:none"
       d="m 15.584128,32.501657 c 0.805556,-1.208334 1.611153,-2.416728 2.534888,-3.305723 0.923735,-0.888996 1.965434,-1.458459 2.930743,-2.083488 0.96531,-0.625028 1.854226,-1.305604 3.048829,-1.791748 1.194604,-0.486143 2.694651,-0.777819 4.257274,-0.937533 1.562623,-0.159713 3.187673,-0.187492 4.93781,0.111195 1.750136,0.298687 3.625196,0.923707 5.298903,1.68074 1.673708,0.757033 3.145976,1.645949 4.617963,2.534695"
       id="path99815"
       inkscape:path-effect="#path-effect99817"
       inkscape:original-d="m 15.584128,32.501657 c 0.805862,-1.20813 1.611458,-2.416524 2.41679,-3.625183 1.042005,-0.569222 2.083704,-1.138685 3.125159,-1.708423 0.889217,-0.680339 1.778134,-1.360914 2.666803,-2.041769 1.500371,-0.291423 3.000418,-0.583099 4.50023,-0.875045 1.62538,-0.02752 3.25043,-0.05529 4.875249,-0.08334 1.875396,0.625309 3.750456,1.250329 5.625285,1.875096 1.472592,0.889217 2.94486,1.778133 4.416894,2.666802" />
    <path
       style="fill:none;stroke:#ae6801;stroke-width:1;stroke-linecap:butt;stroke-linejoin:miter;stroke-opacity:1;stroke-miterlimit:4;stroke-dasharray:none"
       d="m 6.4586627,55.5445 c 0.9583343,-3.652782 1.9167166,-7.305747 3.0140099,-10.076799 1.0972934,-2.771053 2.3334434,-4.66 3.5765814,-6.410119 1.243137,-1.750118 2.493177,-3.36128 3.909949,-4.923896 1.416772,-1.562616 3.000154,-3.076551 4.375264,-4.222469 1.37511,-1.145917 2.541812,-1.923719 3.833593,-2.611267 1.291782,-0.687549 2.708493,-1.28479 3.937805,-1.562548 1.229312,-0.277758 2.271011,-0.236091 3.618334,-0.04161 1.347323,0.194485 3.000151,0.541718 4.583586,1.090411 1.583435,0.548693 3.09737,1.298716 4.61102,2.048598"
       id="path99819"
       inkscape:path-effect="#path-effect99821"
       inkscape:original-d="m 6.4586627,55.5445 c 0.9586468,-3.6527 1.917029,-7.305665 2.8751466,-10.958894 1.2364637,-1.888757 2.4726127,-3.777705 3.7085227,-5.666954 1.250353,-1.61096 2.500392,-3.222122 3.750191,-4.83358 1.583711,-1.513732 3.167093,-3.027667 4.750243,-4.541898 1.167014,-0.777569 2.333716,-1.555372 3.500178,-2.333453 1.417032,-0.597001 2.833744,-1.194241 4.250217,-1.791758 1.042006,0.04193 2.083705,0.0836 3.12516,0.125006 1.653159,0.347512 3.305987,0.694745 4.958586,1.041721 1.51426,0.750316 3.028195,1.500341 4.541898,2.250115" />
    <path
       style="fill:none;stroke:#ae6801;stroke-width:1;stroke-linecap:butt;stroke-linejoin:miter;stroke-opacity:1;stroke-miterlimit:4;stroke-dasharray:none"
       d="m 37.710258,27.084716 c -1.666485,-0.02778 -3.333236,-0.05556 -4.534734,0.02081 -1.201498,0.07637 -1.93763,0.25693 -2.812751,0.694463 -0.875122,0.437534 -1.889042,1.132 -2.861331,1.833436 -0.97229,0.701436 -1.902874,1.40979 -2.583514,2.166845 -0.680641,0.757054 -1.111209,1.562634 -1.868173,2.472361 -0.756963,0.909727 -1.84033,1.923647 -2.895981,3.430744 -1.05565,1.507097 -2.08346,3.507158 -3.000181,5.305878 -0.916722,1.79872 -1.722303,3.395993 -2.291774,5.028086 -0.569471,1.632094 -0.902815,3.298813 -1.166724,4.458584 -0.263909,1.159772 -0.45836,1.81257 -0.819496,2.861238 -0.361137,1.048668 -0.888931,2.493157 -1.215318,4.229427 -0.326387,1.736269 -0.451391,3.76411 -0.388848,5.410068 0.06254,1.645957 0.312551,2.909885 0.687578,4.708613 0.375027,1.798727 0.875043,4.132135 1.250066,5.854456 0.375024,1.722322 0.625031,2.833466 0.874975,3.944326"
       id="path99823"
       inkscape:path-effect="#path-effect99825"
       inkscape:original-d="m 37.710258,27.084716 c -1.666489,-0.02752 -3.33324,-0.0553 -5.000257,-0.08334 -0.735899,0.180832 -1.472031,0.361394 -2.208446,0.541695 -1.013695,0.694759 -2.027616,1.389224 -3.041822,2.08344 -0.930357,0.708647 -1.86094,1.417002 -2.791808,2.125107 -0.430322,0.805878 -0.860891,1.611458 -1.291733,2.416791 -1.083145,1.014225 -2.166512,2.028145 -3.250165,3.041822 -1.027587,2.000406 -2.055396,4.000468 -3.083491,6.000306 -0.805348,1.597599 -1.610929,3.194872 -2.41679,4.791911 -0.333092,1.667049 -0.666436,3.333768 -1.000051,5.000254 -0.194194,0.65309 -0.388644,1.305888 -0.583363,1.958433 -0.527551,1.444813 -1.055345,2.889303 -1.583414,4.333555 -0.124744,2.028187 -0.249748,4.056028 -0.375019,6.083643 0.250282,1.264243 0.50029,2.528171 0.750038,3.791861 0.5003,2.333762 1.000316,4.66717 1.500076,7.000356 0.250283,1.111456 0.500291,2.2226 0.750039,3.333504" />
    <path
       style="fill:none;stroke:#ae6801;stroke-width:1;stroke-linecap:butt;stroke-linejoin:miter;stroke-opacity:1;stroke-miterlimit:4;stroke-dasharray:none"
       d="m 41.918805,28.834805 c -0.773537,0.122783 -1.749872,0.277757 -2.631914,0.534708 -0.882042,0.256951 -1.770958,0.631963 -2.583545,1.076444 -0.812587,0.444481 -1.548721,0.958386 -2.347421,1.757084 -0.7987,0.798697 -1.659838,1.882064 -2.527953,3.041867 -0.868114,1.159803 -1.743141,2.395952 -2.479305,3.826645 -0.736164,1.430692 -1.333404,3.055742 -1.909827,4.715573 -0.576423,1.659831 -1.131996,3.354328 -1.743145,5.13221 -0.61115,1.777883 -1.277838,3.639051 -1.840368,5.472514 -0.562529,1.833463 -1.020877,3.639075 -1.479242,5.132195 -0.458364,1.49312 -0.916712,2.673712 -1.229213,4.180802 -0.312501,1.507089 -0.479173,3.340477 -0.45137,5.722594 0.0278,2.382117 0.250032,5.312764 0.715382,7.86849 0.46535,2.555725 1.173704,4.736347 2.027976,6.569782 0.854271,1.833436 1.854301,3.319593 3.048873,4.493217 1.194572,1.173625 2.583503,2.034762 3.972153,2.895726"
       id="path99827"
       inkscape:path-effect="#path-effect99829"
       inkscape:original-d="m 41.918805,28.834805 c -0.777552,0.09749 -1.749825,0.278056 -2.625135,0.416687 -0.888685,0.375293 -1.777603,0.750302 -2.666802,1.125058 -0.735899,0.514189 -1.472033,1.028094 -2.208445,1.541746 -0.860909,1.083672 -1.722046,2.16704 -2.583466,3.250165 -0.874797,1.236464 -1.749824,2.472613 -2.625135,3.708522 -0.596998,1.62538 -1.194239,3.25043 -1.791758,4.875249 -0.555329,1.694829 -1.110902,3.389326 -1.666751,5.083593 -0.666449,1.861508 -1.333136,3.722677 -2.000102,5.583616 -0.458101,1.805951 -0.916448,3.611563 -1.37507,5.416944 -0.458101,1.180904 -0.916449,2.361496 -1.37507,3.541848 -0.166414,1.833729 -0.333086,3.667117 -0.500025,5.50028 0.222502,2.931027 0.444731,5.861674 0.6667,8.792114 0.708649,2.180977 1.417004,4.361598 2.125109,6.542 1.000335,1.486482 2.000366,2.972639 3.000153,4.458563 1.389253,0.861436 2.778183,1.722575 4.166878,2.583466" />
    <path
       style="fill:none;stroke:#ae6801;stroke-width:1;stroke-linecap:butt;stroke-linejoin:miter;stroke-opacity:1;stroke-miterlimit:4;stroke-dasharray:none"
       d="m 45.002296,31.293263 c -1.152827,1.069489 -2.305664,2.138988 -3.49326,3.53494 -1.187597,1.395952 -2.409856,3.118227 -3.437703,5.076729 -1.027848,1.958502 -1.861206,4.153014 -2.541802,5.972568 -0.680595,1.819553 -1.20839,3.264044 -1.784815,4.805803 -0.576424,1.541758 -1.201443,3.180699 -1.527824,4.778075 -0.326381,1.597377 -0.354161,3.152982 -0.618085,5.354489 -0.263924,2.201506 -0.763939,5.048814 -1.118115,7.986511 -0.354177,2.937698 -0.562518,5.96557 -0.513868,8.43102 0.04865,2.465449 0.354214,4.368285 0.715379,5.923942 0.361165,1.555657 0.777845,2.764027 1.382117,3.826572 0.604272,1.062546 1.395962,1.979241 2.458545,3.055683 1.062583,1.076442 2.395959,2.312592 3.729086,3.548511"
       id="path99831"
       inkscape:path-effect="#path-effect99833"
       inkscape:original-d="m 45.002296,31.293263 c -1.152573,1.069763 -2.30541,2.139262 -3.458512,3.208496 -1.222044,1.722609 -2.444302,3.444885 -3.666852,5.166931 -0.833128,2.194865 -1.666486,4.389377 -2.500127,6.58367 -0.52755,1.44481 -1.055346,2.8893 -1.583415,4.333554 -0.624779,1.639269 -1.249799,3.278209 -1.875094,4.916916 -0.02752,1.55593 -0.0553,3.111535 -0.08334,4.666906 -0.499771,2.84769 -0.999786,5.694998 -1.500076,8.542102 -0.208084,3.028257 -0.416422,6.05613 -0.625033,9.083797 0.305842,1.903177 0.611407,3.806013 0.916715,5.708623 0.416959,1.208686 0.833638,2.417056 1.250064,3.625186 0.791987,0.916996 1.583676,1.833692 2.375119,2.75014 1.333693,1.236464 2.667069,2.472614 4.000206,3.708522" />
    <path
       style="fill:none;stroke:#ae6801;stroke-width:1;stroke-linecap:butt;stroke-linejoin:miter;stroke-opacity:1;stroke-miterlimit:4;stroke-dasharray:none"
       d="m 48.3358,32.08497 c -0.500079,1.389109 -1.000105,2.778068 -1.500128,4.792116 -0.500024,2.014047 -1.00004,4.653018 -1.305599,7.028181 -0.30556,2.375163 -0.416674,4.48634 -0.805599,7.778205 -0.388925,3.291865 -1.055612,7.764225 -1.402838,11.264449 -0.347225,3.500224 -0.375005,6.02808 -0.236091,8.861603 0.138914,2.833523 0.444478,5.972508 0.736161,9.125478 0.291683,3.152969 0.56947,6.319733 0.902854,8.611546 0.333385,2.291812 0.722286,3.708523 1.097375,4.388939 0.375088,0.680415 0.736211,0.624858 1.097122,0.569334"
       id="path99835"
       inkscape:path-effect="#path-effect99837"
       inkscape:original-d="m 48.3358,32.08497 c -0.499761,1.389224 -0.999786,2.778183 -1.500076,4.166878 -0.499772,2.639343 -0.999789,5.278313 -1.500079,7.917071 -0.110853,2.111526 -0.221967,4.222703 -0.333349,6.333657 -0.666451,4.472805 -1.333138,8.945165 -2.000102,13.417351 -0.02752,2.528221 -0.0553,5.056077 -0.08334,7.583721 0.305842,3.139376 0.611407,6.278361 0.916712,9.417147 0.278064,3.167155 0.55585,6.333919 0.833377,9.500484 0.389181,1.417032 0.778081,2.833743 1.166725,4.250216 0.361402,-0.05529 0.722524,-0.110852 1.083389,-0.166674" />
    <path
       style="fill:none;stroke:#ae6801;stroke-width:1;stroke-linecap:butt;stroke-linejoin:miter;stroke-opacity:1;stroke-miterlimit:4;stroke-dasharray:none"
       d="m 57.752945,36.418525 c 0.805691,2.722677 1.611288,5.445037 2.250183,8.959136 0.638895,3.514099 1.111132,7.819787 1.527816,13.13956 0.416683,5.319773 0.777806,11.653303 0.80556,16.070195 0.02775,4.416892 -0.277811,6.916969 -0.652843,9.139308 -0.375032,2.222339 -0.81949,4.166844 -1.375079,5.652976 -0.55559,1.486132 -1.222277,2.513942 -1.888935,3.541706"
       id="path99839"
       inkscape:path-effect="#path-effect99841"
       inkscape:original-d="m 57.752945,36.418525 c 0.805863,2.722626 1.611458,5.444987 2.416791,8.167081 0.47252,4.306128 0.944756,8.611817 1.416738,12.917326 0.361403,6.334048 0.722525,12.667578 1.08339,19.00097 -0.305314,2.500442 -0.610878,5.000519 -0.916715,7.500382 -0.444212,1.944849 -0.88867,3.889354 -1.3334,5.833631 -0.666451,1.028115 -1.333137,2.055926 -2.000102,3.083491" />
    <path
       style="fill:none;stroke:#ae6801;stroke-width:1;stroke-linecap:butt;stroke-linejoin:miter;stroke-opacity:1;stroke-miterlimit:4;stroke-dasharray:none"
       d="m 57.808928,32.057144 c 1.159206,1.04132 2.318135,2.082391 3.260942,3.310117 0.942808,1.227727 1.669578,2.641983 2.62225,4.842014 0.952673,2.200032 2.13122,5.185685 2.887453,7.297302 0.756232,2.111616 1.090153,3.349092 1.512509,4.5375 0.422356,1.188408 0.933061,2.327669 1.453576,3.810722 0.520516,1.483052 1.050862,3.309801 1.453515,5.362491 0.402654,2.05269 0.677648,4.331215 0.795483,6.187463 0.117836,1.856247 0.07855,3.290146 0.01962,5.51964 -0.05893,2.229495 -0.1375,5.254436 -0.500922,7.729404 -0.363423,2.474969 -1.011624,4.399932 -1.620541,5.696299 -0.608917,1.296367 -1.178549,1.964212 -1.826746,2.592765 -0.648196,0.628554 -1.374966,1.217827 -2.101783,1.807139"
       id="path99956"
       inkscape:path-effect="#path-effect99958"
       inkscape:original-d="m 57.808928,32.057144 c 1.159193,1.041334 2.318121,2.082406 3.476787,3.123213 0.727064,1.414579 1.453835,2.828835 2.180357,4.242858 1.178859,2.986037 2.357405,5.971691 3.535714,8.957141 0.334198,1.237789 0.668121,2.475264 1.001784,3.712501 0.51099,1.139573 1.021694,2.278835 1.532144,3.417855 0.530632,1.827089 1.060979,3.653838 1.591072,5.48036 0.27527,2.27888 0.550264,4.557405 0.825,6.835714 -0.03902,1.434222 -0.07831,2.86812 -0.117859,4.301784 -0.07831,3.025325 -0.156877,6.050266 -0.235715,9.075001 -0.647962,1.925302 -1.296162,3.850265 -1.944642,5.775 -0.569389,0.668134 -1.139021,1.335979 -1.708928,2.00357 -0.726535,0.589564 -1.453306,1.178836 -2.180357,1.767859" />
    <path
       style="fill:none;stroke:#ae6801;stroke-width:1;stroke-linecap:butt;stroke-linejoin:miter;stroke-opacity:1;stroke-miterlimit:4;stroke-dasharray:none"
       d="m 58.457141,30.996429 c 2.003892,0.844778 4.007464,1.68942 5.775316,2.78949 1.767853,1.10007 3.299965,2.455401 4.576732,3.820618 1.276766,1.365217 2.298174,2.740189 3.211542,4.242894 0.913369,1.502704 1.71871,3.133029 2.641922,5.205377 0.923213,2.072347 1.964264,4.586582 2.867825,7.100892 0.903562,2.514309 1.669617,5.028544 2.190122,7.670522 0.520504,2.641977 0.795498,5.411564 0.785645,7.955308 -0.0099,2.543744 -0.304489,4.861555 -0.874153,7.228505 -0.569663,2.366951 -1.414289,4.782975 -2.641947,6.698083 -1.227659,1.915108 -2.838342,3.329365 -4.449074,4.743666"
       id="path99960"
       inkscape:path-effect="#path-effect99962"
       inkscape:original-d="m 58.457141,30.996429 c 2.003838,0.844907 4.007409,1.68955 6.010715,2.533928 1.53244,1.355648 3.064552,2.710979 4.596429,4.066072 1.021715,1.375291 2.043123,2.750264 3.064285,4.124999 0.805637,1.630654 1.610979,3.260979 2.416071,4.891072 1.041358,2.5146 2.082409,5.028835 3.123216,7.542858 0.76635,2.5146 1.532406,5.028835 2.298213,7.542855 0.27527,2.769963 0.550265,5.53955 0.825,8.30893 -0.294383,2.318168 -0.589021,4.635979 -0.883928,6.95357 -0.844396,2.416384 -1.68902,4.832408 -2.533928,7.248216 -1.610481,1.414578 -3.221164,2.828835 -4.832143,4.242855" />
    <path
       style="fill:none;stroke:#ae6801;stroke-width:1;stroke-linecap:butt;stroke-linejoin:miter;stroke-opacity:1;stroke-miterlimit:4;stroke-dasharray:none"
       d="m 58.457141,29.641072 c 1.316293,-0.196462 2.632365,-0.392892 3.928847,-0.373202 1.296483,0.01969 2.573243,0.255399 3.948265,0.658117 1.375023,0.402718 2.848209,0.97235 4.360716,1.787581 1.512507,0.815231 3.064261,1.875924 4.380322,2.966146 1.316061,1.090221 2.396396,2.20984 3.496379,3.624162 1.099982,1.414323 2.219602,3.123216 3.142798,4.743772 0.923196,1.620557 1.649967,3.152669 2.141003,4.449105 0.491036,1.296436 0.746388,2.357129 1.119652,3.358927 0.373264,1.001798 0.864326,1.944637 1.394675,3.083937 0.530348,1.1393 1.09998,2.474988 1.394556,4.488381 0.294577,2.013393 0.31422,4.70441 0.294572,7.100855 -0.01965,2.396446 -0.07858,4.498189 -0.599145,6.776725 -0.52057,2.278536 -1.502692,4.733842 -2.484781,7.189063"
       id="path99964"
       inkscape:path-effect="#path-effect99966"
       inkscape:original-d="m 58.457141,29.641072 c 1.316337,-0.196165 2.632409,-0.392594 3.948216,-0.589288 1.277075,0.235985 2.553835,0.471694 3.830357,0.707144 1.473507,0.569918 2.946694,1.13955 4.419642,1.708928 1.552081,1.061 3.103835,2.121694 4.655357,3.182144 1.080643,1.119931 2.160979,2.239549 3.241072,3.358927 1.119931,1.70923 2.23955,3.418123 3.358928,5.126786 0.727064,1.532438 1.453837,3.06455 2.180357,4.596429 0.255627,1.061001 0.510979,2.121694 0.766072,3.182144 0.491347,0.943139 0.982408,1.885979 1.473213,2.828571 0.56992,1.336005 1.139552,2.671693 1.70893,4.007143 0.0199,2.691389 0.03955,5.382406 0.05893,8.073213 -0.05867,2.102093 -0.117591,4.203837 -0.176786,6.305357 -0.981898,2.455672 -1.964021,4.910978 -2.946429,7.366071" />
    <path
       style="fill:none;stroke:#ae6801;stroke-width:1;stroke-linecap:butt;stroke-linejoin:miter;stroke-opacity:1;stroke-miterlimit:4;stroke-dasharray:none"
       d="m 55.157142,27.814286 c 1.375017,-1.217873 2.750016,-2.43573 4.154553,-3.339327 1.404537,-0.903597 2.838438,-1.492871 3.732279,-1.748166 0.893841,-0.255294 1.247405,-0.176725 1.600668,-0.09822"
       id="path99968"
       inkscape:path-effect="#path-effect99970"
       inkscape:original-d="m 55.157142,27.814286 c 1.375264,-1.217594 2.750264,-2.43545 4.124999,-3.653572 1.434222,-0.589033 2.868123,-1.178307 4.301787,-1.767857 0.353843,0.07884 0.707408,0.157407 1.060714,0.235714" />
    <path
       style="fill:none;stroke:#ae6801;stroke-width:1;stroke-linecap:butt;stroke-linejoin:miter;stroke-opacity:1;stroke-miterlimit:4;stroke-dasharray:none"
       d="m 53.212499,27.225 c 0.707097,-1.158854 1.41424,-2.317782 2.150881,-3.260687 0.736641,-0.942906 1.502697,-1.669677 2.200094,-2.150953 0.697397,-0.481276 1.325956,-0.716986 1.954382,-0.952646"
       id="path100046"
       inkscape:path-effect="#path-effect100048"
       inkscape:original-d="m 53.212499,27.225 c 0.707409,-1.158664 1.41455,-2.317593 2.121429,-3.476786 0.76635,-0.726536 1.532406,-1.453307 2.298214,-2.180357 0.628848,-0.235455 1.257408,-0.471164 1.885714,-0.707143" />
    <path
       style="fill:none;stroke:#ae6801;stroke-width:1;stroke-linecap:butt;stroke-linejoin:miter;stroke-opacity:1;stroke-miterlimit:4;stroke-dasharray:none"
       d="m 54.214286,21.0375 c -0.707169,0.883961 -1.414312,1.767889 -2.003617,2.759912 -0.589305,0.992023 -1.060724,2.092002 -1.532098,3.191874"
       id="path100050"
       inkscape:path-effect="#path-effect100052"
       inkscape:original-d="m 54.214286,21.0375 c -0.70688,0.884193 -1.414021,1.768121 -2.121429,2.651785 -0.471173,1.100287 -0.942594,2.200265 -1.414286,3.300001" />
    <path
       style="fill:none;stroke:#ae6801;stroke-width:1;stroke-linecap:butt;stroke-linejoin:miter;stroke-opacity:1;stroke-miterlimit:4;stroke-dasharray:none"
       d="m 47.142857,20.919643 c 0.72695,1.394958 1.453736,2.789602 1.885819,3.958351 0.432084,1.16875 0.569581,2.111588 0.707037,3.054148"
       id="path100054"
       inkscape:path-effect="#path-effect100056"
       inkscape:original-d="m 47.142857,20.919643 c 0.727049,1.394907 1.453835,2.78955 2.180357,4.183928 0.137766,0.943141 0.275265,1.885979 0.412499,2.828571" />
    <path
       style="fill:none;stroke:#ae6801;stroke-width:1;stroke-linecap:butt;stroke-linejoin:miter;stroke-opacity:1;stroke-miterlimit:4;stroke-dasharray:none"
       d="m 83.26607,35.180357 c -1.649715,-1.394402 -3.299715,-2.789045 -5.126506,-4.046231 -1.82679,-1.257187 -3.830323,-2.376809 -5.450876,-3.054548 -1.620553,-0.677739 -2.858028,-0.913448 -4.203601,-1.011695 -1.345574,-0.09825 -2.799115,-0.05896 -4.341138,0.196379 -1.542023,0.255339 -3.172349,0.726759 -4.802877,1.198237"
       id="path100058"
       inkscape:path-effect="#path-effect100060"
       inkscape:original-d="m 83.26607,35.180357 c -1.649735,-1.394378 -3.299735,-2.789021 -4.95,-4.183928 -2.003345,-1.119402 -4.006879,-2.239023 -6.010714,-3.35893 -1.23726,-0.235453 -2.474735,-0.471162 -3.712501,-0.707141 -1.453335,0.03955 -2.906876,0.07884 -4.360714,0.117856 -1.630124,0.471701 -3.26045,0.943123 -4.891069,1.414285" />
    <path
       style="fill:none;stroke:#ae6801;stroke-width:1;stroke-linecap:butt;stroke-linejoin:miter;stroke-opacity:1;stroke-miterlimit:4;stroke-dasharray:none"
       d="m 56.925,28.816072 c 2.21978,-0.883984 4.439423,-1.767913 6.413584,-2.357192 1.974162,-0.58928 3.702701,-0.883917 5.205428,-0.972277 1.502727,-0.08836 2.779487,0.02949 4.036659,0.314365 1.257171,0.284871 2.494646,0.736648 3.731829,1.188318"
       id="path100062"
       inkscape:path-effect="#path-effect100064"
       inkscape:original-d="m 56.925,28.816072 c 2.219907,-0.883666 4.43955,-1.767594 6.658928,-2.651787 1.728869,-0.294384 3.457408,-0.589021 5.185714,-0.883928 1.277075,0.118124 2.553835,0.235979 3.830357,0.353571 1.237789,0.45206 2.475264,0.903836 3.712501,1.355358" />
    <path
       style="fill:#a7a72d;stroke:#707029;stroke-width:0.5;stroke-linecap:butt;stroke-linejoin:miter;stroke-opacity:1;fill-opacity:1;stroke-miterlimit:4;stroke-dasharray:none"
       d="m 43.499202,27.544173 c 0.275096,-0.06386 0.825096,-0.19154 1.350606,-0.201304 0.525509,-0.0098 1.026392,0.09827 1.35047,0.235877 0.324079,0.137609 0.471396,0.304569 0.628558,0.39283 0.157161,0.08826 0.324121,0.09808 0.382913,-0.716987 0.05879,-0.815068 0.0097,-2.455214 0.05387,-4.188729 0.04418,-1.733514 0.181682,-3.560263 0.397742,-5.028609 0.216059,-1.468346 0.510696,-2.578145 0.756235,-3.300074 0.245538,-0.721929 0.441962,-1.055849 0.722054,-1.183535 0.280092,-0.127685 0.643479,-0.04912 1.070617,-0.127749 0.427139,-0.07863 0.918199,-0.314343 1.389633,-0.540238 0.471434,-0.225896 0.923212,-0.441964 1.237538,-0.407404 0.314327,0.03456 0.491109,0.319376 0.554845,0.85462 0.06374,0.535244 0.01463,1.320944 0.03429,2.391509 0.01966,1.070566 0.108052,2.425896 0.07855,3.260638 -0.0295,0.834742 -0.176821,1.149022 -0.294674,1.507549 -0.117853,0.358526 -0.206244,0.761198 -0.265157,1.237568 -0.05891,0.476371 -0.08838,1.02636 -0.103101,1.664768 -0.01472,0.638408 -0.01472,1.365179 -0.09333,1.929853 -0.0786,0.564674 -0.23574,0.967344 -0.294616,1.286623 -0.05888,0.31928 -0.01959,0.55499 0.1082,0.775953 0.127791,0.220962 0.343858,0.427208 0.692547,0.618657 0.348689,0.191449 0.829929,0.368231 1.212945,0.46148 0.383017,0.09325 0.667833,0.103069 0.898594,0.255455 0.230762,0.152385 0.407545,0.447021 0.323982,0.731677 -0.08356,0.284656 -0.427305,0.559649 -0.731767,0.795362 -0.304461,0.235714 -0.569635,0.432138 -1.011512,0.564732 -0.441877,0.132594 -1.060612,0.201342 -1.527109,0.225917 -0.466497,0.02458 -0.780777,0.0049 -1.252266,0.08838 -0.471489,0.08345 -1.100047,0.270053 -1.571472,0.402646 -0.471424,0.132592 -0.785703,0.211162 -1.212878,0.181759 -0.427175,-0.0294 -0.967343,-0.1669 -1.556634,-0.422209 -0.589292,-0.25531 -1.227673,-0.628517 -1.718781,-1.011507 -0.491108,-0.38299 -0.834853,-0.775841 -1.124635,-1.222702 -0.289783,-0.446861 -0.525492,-0.947743 -0.643425,-1.198349 -0.117932,-0.250606 -0.117934,-0.250596 0.157163,-0.314458 z"
       id="path24753"
       inkscape:path-effect="#path-effect24755"
       inkscape:original-d="m 43.224105,27.608035 c 0.550265,-0.127413 1.100265,-0.255093 1.65,-0.383035 0.501169,0.108302 1.002052,0.216337 1.50268,0.324107 0.14759,0.167232 0.294907,0.334192 0.441965,0.500893 0.167233,0.01008 0.334193,0.0199 0.500891,0.02946 -0.04884,-1.639947 -0.09795,-3.280093 -0.14732,-4.920536 0.137766,-1.826557 0.275265,-3.653306 0.412499,-5.480357 0.294915,-1.109579 0.589552,-2.219378 0.88393,-3.329464 0.196697,-0.333671 0.393121,-0.667592 0.589286,-1.001786 0.363664,0.07884 0.727051,0.157408 1.090178,0.235715 0.491345,-0.235455 0.982406,-0.471164 1.473213,-0.707143 0.45206,-0.215811 0.903838,-0.431879 1.355358,-0.648215 0.177053,0.285092 0.353835,0.569908 0.530357,0.854465 -0.04884,0.785994 -0.09795,1.571693 -0.14732,2.357143 0.08866,1.355648 0.177048,2.710978 0.265179,4.066071 -0.147061,0.314556 -0.294381,0.628836 -0.441966,0.942857 -0.08813,0.402951 -0.176522,0.805622 -0.265178,1.208036 -0.0292,0.550275 -0.05866,1.100264 -0.08839,1.65 2.64e-4,0.727065 2.64e-4,1.453836 0,2.180357 -0.156882,0.402951 -0.314021,0.805622 -0.47143,1.208036 0.03955,0.235984 0.07884,0.471694 0.117856,0.707141 0.216342,0.206521 0.432409,0.412766 0.648216,0.618752 0.481523,0.177054 0.962763,0.353835 1.443749,0.530357 0.285092,0.01008 0.569908,0.0199 0.854464,0.02946 0.177054,0.294913 0.353836,0.58955 0.530358,0.883928 -0.343493,0.27527 -0.687234,0.550265 -1.031251,0.825 -0.264919,0.196697 -0.530093,0.393121 -0.795536,0.589286 -0.618498,0.06902 -1.237234,0.137765 -1.856248,0.20625 -0.314028,-0.01937 -0.628308,-0.03902 -0.942858,-0.05893 -0.628319,0.186875 -1.256877,0.373478 -1.885715,0.559822 -0.314026,0.07884 -0.628306,0.157405 -0.942856,0.235714 -0.539924,-0.137239 -1.080092,-0.274735 -1.620536,-0.412501 -0.63814,-0.372957 -1.276521,-0.746165 -1.915178,-1.119643 -0.343493,-0.392599 -0.687237,-0.78545 -1.031251,-1.17857 -0.235455,-0.50064 -0.471164,-1.001522 -0.707144,-1.50268 z" />
    <path
       style="fill:#273514;stroke:none;stroke-width:0.264583px;stroke-linecap:butt;stroke-linejoin:miter;stroke-opacity:1;fill-opacity:1"
       d="m 47.849998,29.935715 c 0.265179,-0.441965 0.530311,-0.883852 0.692379,-1.482885 0.162068,-0.599032 0.220996,-1.355267 0.289751,-2.66153 0.06876,-1.306263 0.147326,-3.162476 0.22098,-4.419635 0.07365,-1.257159 0.142428,-1.915415 0.211178,-2.573451 0.01964,1.414286 0.03929,2.82884 0.09823,4.007431 0.05894,1.178591 0.157156,2.121429 0.191512,3.064279 0.03436,0.94285 0.0049,1.885689 0.07373,2.519205 0.06884,0.633515 0.235798,0.957617 0.486325,1.183413 0.250527,0.225797 0.58413,0.353351 0.918059,0.481029 -0.314285,0.06875 -0.628374,0.137457 -0.977012,0.181669 -0.348638,0.04421 -0.731665,0.06386 -1.10485,0.0099 -0.373184,-0.05396 -0.736889,-0.181744 -1.100282,-0.309422 0,0 -4e-6,-2e-6 -4e-6,-2e-6 z"
       id="path86549"
       inkscape:path-effect="#path-effect86551"
       inkscape:original-d="m 47.849998,29.935715 c 0,0 0.530622,-0.883666 0.795536,-1.325894 0.0592,-0.756001 0.118124,-1.512236 0.176787,-2.26875 0.07884,-1.856022 0.157409,-3.712235 0.235715,-5.56875 0.06902,-0.657784 0.20625,-1.974107 0.20625,-1.974107 0,0 0.03955,2.828836 0.05893,4.242857 0.09848,0.943141 0.196694,1.885979 0.294643,2.828571 -0.0292,0.94314 -0.05866,1.88598 -0.08839,2.828571 0.16723,0.32438 0.334192,0.648481 0.500891,0.972323 0.3342,0.127945 1.001786,0.383035 1.001786,0.383035 0,0 -0.628306,0.137766 -0.942856,0.20625 -0.38278,0.0199 -0.765807,0.03955 -1.149109,0.05893 -0.363135,-0.127415 -1.090179,-0.383034 -1.090179,-0.383034 z" />
    <path
       style="fill:#273514;stroke:none;stroke-width:0.264583px;stroke-linecap:butt;stroke-linejoin:miter;stroke-opacity:1;fill-opacity:1"
       d="m 52.27944,18.965274 c -0.137522,0.579559 -0.412522,1.738488 -0.564735,2.863086 -0.152213,1.124598 -0.181676,2.214754 -0.196404,3.358966 -0.01473,1.144212 -0.01473,2.342403 0.0197,3.054485 0.03443,0.712082 0.103173,0.937969 0.314443,1.090078 0.211271,0.15211 0.564833,0.23068 0.884012,0.269931 0.319178,0.03925 0.603994,0.03925 0.785532,-0.07362 0.181538,-0.112873 0.26016,-0.338914 0.338731,-0.564807 -0.353571,0 -0.706877,0 -0.967122,-0.04902 -0.260245,-0.04902 -0.427208,-0.14723 -0.564806,-0.343593 -0.137598,-0.196363 -0.245632,-0.491 -0.270254,-0.967386 -0.02462,-0.476386 0.03431,-1.134409 0.103056,-1.944685 0.06875,-0.810276 0.147321,-1.772756 0.211165,-2.813834 0.06385,-1.041077 0.112951,-2.160697 0.117881,-2.916933 0.0049,-0.756236 -0.03435,-1.149086 -0.05401,-1.345658 -0.01966,-0.196573 -0.01966,-0.196573 -0.157183,0.382987 z"
       id="path96219"
       inkscape:path-effect="#path-effect96221"
       inkscape:original-d="m 52.416963,18.385714 c -0.274735,1.159193 -0.549735,2.318122 -0.825,3.476786 -0.0292,1.090465 -0.05866,2.180621 -0.08839,3.270535 2.65e-4,1.198503 2.65e-4,2.396694 0,3.594642 0.06902,0.226164 0.137764,0.452052 0.206251,0.67768 0.353843,0.07884 0.707406,0.157406 1.060712,0.235715 0.285094,2.65e-4 0.56991,2.65e-4 0.854467,0 0.07884,-0.225634 0.235712,-0.67768 0.235712,-0.67768 0,0 -0.706877,2.65e-4 -1.060712,0 -0.166704,-0.09795 -0.333666,-0.196165 -0.500894,-0.294643 -0.107772,-0.294383 -0.215807,-0.58902 -0.324106,-0.883927 0.05919,-0.657786 0.11812,-1.315808 0.176784,-1.974108 0.07884,-0.962255 0.157408,-1.924735 0.235714,-2.8875 0.04937,-1.119401 0.09848,-2.239021 0.147323,-3.358929 -0.03902,-0.3926 -0.07831,-0.785449 -0.117859,-1.178571 z" />
  </g>
</svg>
