<?xml version="1.0" encoding="UTF-8" standalone="no"?>
<!-- Created with Inkscape (http://www.inkscape.org/) -->

<svg
   width="100mm"
   height="100mm"
   viewBox="0 0 100 100"
   version="1.1"
   id="svg5"
   inkscape:version="1.1.1 (3bf5ae0d25, 2021-09-20, custom)"
   sodipodi:docname="shooting_instructions.svg"
   xmlns:inkscape="http://www.inkscape.org/namespaces/inkscape"
   xmlns:sodipodi="http://sodipodi.sourceforge.net/DTD/sodipodi-0.dtd"
   xmlns="http://www.w3.org/2000/svg"
   xmlns:svg="http://www.w3.org/2000/svg">
  <sodipodi:namedview
     id="namedview7"
     pagecolor="#ffffff"
     bordercolor="#666666"
     borderopacity="1.0"
     inkscape:pageshadow="2"
     inkscape:pageopacity="0.0"
     inkscape:pagecheckerboard="0"
     inkscape:document-units="mm"
     showgrid="false"
     width="100mm"
     inkscape:zoom="1.1224747"
     inkscape:cx="2.2272217"
     inkscape:cy="139.42408"
     inkscape:window-width="1920"
     inkscape:window-height="1007"
     inkscape:window-x="0"
     inkscape:window-y="0"
     inkscape:window-maximized="1"
     inkscape:current-layer="layer1"
     inkscape:snap-bbox="true"
     inkscape:bbox-paths="false"
     inkscape:bbox-nodes="true"
     inkscape:snap-bbox-midpoints="true"
     inkscape:snap-bbox-edge-midpoints="true"
     inkscape:object-paths="false"
     inkscape:snap-intersection-paths="false"
     inkscape:snap-smooth-nodes="false"
     inkscape:snap-midpoints="false"
     inkscape:snap-object-midpoints="true"
     inkscape:snap-page="false"
     inkscape:object-nodes="false"
     inkscape:snap-others="true" />
  <defs
     id="defs2">
    <inkscape:path-effect
       effect="bspline"
       id="path-effect2458"
       is_visible="true"
       lpeversion="1"
       weight="33.333333"
       steps="2"
       helper_size="0"
       apply_no_weight="true"
       apply_with_weight="true"
       only_selected="false" />
    <inkscape:path-effect
       effect="bspline"
       id="path-effect34364"
       is_visible="true"
       lpeversion="1"
       weight="33.333333"
       steps="2"
       helper_size="0"
       apply_no_weight="true"
       apply_with_weight="true"
       only_selected="false" />
    <inkscape:path-effect
       effect="bspline"
       id="path-effect15982"
       is_visible="true"
       lpeversion="1"
       weight="33.333333"
       steps="2"
       helper_size="0"
       apply_no_weight="true"
       apply_with_weight="true"
       only_selected="false" />
    <inkscape:path-effect
       effect="bspline"
       id="path-effect15425"
       is_visible="true"
       lpeversion="1"
       weight="33.333333"
       steps="2"
       helper_size="0"
       apply_no_weight="true"
       apply_with_weight="true"
       only_selected="false" />
    <inkscape:path-effect
       effect="bspline"
       id="path-effect674"
       is_visible="true"
       lpeversion="1"
       weight="33.333333"
       steps="2"
       helper_size="0"
       apply_no_weight="true"
       apply_with_weight="true"
       only_selected="false" />
    <inkscape:path-effect
       effect="bspline"
       id="path-effect23636"
       is_visible="true"
       lpeversion="1"
       weight="33.333333"
       steps="2"
       helper_size="0"
       apply_no_weight="true"
       apply_with_weight="true"
       only_selected="false" />
    <inkscape:path-effect
       effect="bspline"
       id="path-effect102668"
       is_visible="true"
       lpeversion="1"
       weight="33.333333"
       steps="2"
       helper_size="0"
       apply_no_weight="true"
       apply_with_weight="true"
       only_selected="false" />
    <inkscape:path-effect
       effect="bspline"
       id="path-effect94724"
       is_visible="true"
       lpeversion="1"
       weight="33.333333"
       steps="2"
       helper_size="0"
       apply_no_weight="true"
       apply_with_weight="true"
       only_selected="false" />
    <inkscape:path-effect
       effect="bspline"
       id="path-effect88347"
       is_visible="true"
       lpeversion="1"
       weight="33.333333"
       steps="2"
       helper_size="0"
       apply_no_weight="true"
       apply_with_weight="true"
       only_selected="false" />
    <inkscape:path-effect
       effect="bspline"
       id="path-effect59302"
       is_visible="true"
       lpeversion="1"
       weight="33.333333"
       steps="2"
       helper_size="0"
       apply_no_weight="true"
       apply_with_weight="true"
       only_selected="false" />
    <inkscape:path-effect
       effect="bspline"
       id="path-effect50646"
       is_visible="true"
       lpeversion="1"
       weight="33.333333"
       steps="2"
       helper_size="0"
       apply_no_weight="true"
       apply_with_weight="true"
       only_selected="false" />
    <inkscape:path-effect
       effect="bspline"
       id="path-effect189321"
       is_visible="true"
       lpeversion="1"
       weight="33.333333"
       steps="2"
       helper_size="0"
       apply_no_weight="true"
       apply_with_weight="true"
       only_selected="false" />
    <inkscape:path-effect
       effect="bspline"
       id="path-effect105369"
       is_visible="true"
       lpeversion="1"
       weight="33.333333"
       steps="2"
       helper_size="0"
       apply_no_weight="true"
       apply_with_weight="true"
       only_selected="false" />
    <inkscape:path-effect
       effect="bspline"
       id="path-effect112738"
       is_visible="true"
       lpeversion="1"
       weight="33.333333"
       steps="2"
       helper_size="0"
       apply_no_weight="true"
       apply_with_weight="true"
       only_selected="false" />
    <inkscape:path-effect
       effect="bspline"
       id="path-effect133419"
       is_visible="true"
       lpeversion="1"
       weight="33.333333"
       steps="2"
       helper_size="0"
       apply_no_weight="true"
       apply_with_weight="true"
       only_selected="false" />
    <inkscape:path-effect
       effect="bspline"
       id="path-effect161182"
       is_visible="true"
       lpeversion="1"
       weight="33.333333"
       steps="2"
       helper_size="0"
       apply_no_weight="true"
       apply_with_weight="true"
       only_selected="false" />
    <inkscape:path-effect
       effect="bspline"
       id="path-effect2311"
       is_visible="true"
       lpeversion="1"
       weight="33.333333"
       steps="2"
       helper_size="0"
       apply_no_weight="true"
       apply_with_weight="true"
       only_selected="false" />
    <inkscape:path-effect
       effect="bspline"
       id="path-effect179025"
       is_visible="true"
       lpeversion="1"
       weight="33.333333"
       steps="2"
       helper_size="0"
       apply_no_weight="true"
       apply_with_weight="true"
       only_selected="false" />
    <inkscape:path-effect
       effect="bspline"
       id="path-effect194473"
       is_visible="true"
       lpeversion="1"
       weight="33.333333"
       steps="2"
       helper_size="0"
       apply_no_weight="true"
       apply_with_weight="true"
       only_selected="false" />
  </defs>
  <g
     inkscape:label="Layer 1"
     inkscape:groupmode="layer"
     id="layer1">
    <g
       id="g2497"
       transform="matrix(0.87970856,0,0,0.87970856,6.0076213,17.108731)">
      <path
         id="path361"
         style="fill:#639bff;fill-opacity:1;stroke:#3364b8;stroke-width:2.5;stroke-miterlimit:4;stroke-dasharray:none;stroke-opacity:1"
         d="M 49.913748,18.265557 A 43.725001,40.855315 0 0 0 6.1887694,59.120944 43.725001,40.855315 0 0 0 6.233728,60.306402 43.725001,29.086045 0 0 0 6.1887694,61.141493 43.725001,29.086045 0 0 0 49.913748,90.227572 43.725001,29.086045 0 0 0 93.638729,61.141493 43.725001,29.086045 0 0 0 93.593768,60.296065 43.725001,40.855315 0 0 0 93.638729,59.120944 43.725001,40.855315 0 0 0 49.913748,18.265557 Z" />
      <path
         id="path15865"
         style="fill:#eec39a;fill-opacity:1;stroke:none;stroke-width:0.264583"
         d="m 50.50596,42.884208 c -0.03066,-1.37e-4 -0.06184,1.7e-4 -0.09353,10e-4 -0.507032,0.01382 -1.145648,0.152715 -1.569413,0.458369 -0.423767,0.305655 -0.632135,0.777751 -0.993222,1.222148 -0.101878,0.125383 -0.215567,0.248356 -0.327112,0.369485 a 17.148214,12.610714 0 0 0 -14.757239,12.486576 17.148214,12.610714 0 0 0 17.148307,12.6106 17.148214,12.610714 0 0 0 17.148307,-12.6106 17.148214,12.610714 0 0 0 -14.565002,-12.465904 c -0.06251,-0.08141 -0.124648,-0.164669 -0.181901,-0.251148 -0.312619,-0.47221 -0.479089,-1.041416 -0.749824,-1.381829 -0.253818,-0.3191 -0.599398,-0.43663 -1.059371,-0.438697 z" />
      <path
         id="path15980"
         style="fill:#663931;fill-opacity:1;stroke:none;stroke-width:0.264583px;stroke-linecap:butt;stroke-linejoin:miter;stroke-opacity:1"
         d="m 50.023303,52.056635 c -1.937276,-0.01229 -3.881855,0.134797 -5.708695,0.449069 -3.653679,0.628542 -6.835672,1.924871 -10.508919,3.908804 -0.334044,0.180419 -0.676743,0.372517 -1.018543,0.56379 a 17.148214,12.610714 0 0 0 -0.0217,0.443383 17.148214,12.610714 0 0 0 17.148307,12.6106 17.148214,12.610714 0 0 0 17.148307,-12.6106 17.148214,12.610714 0 0 0 -0.08113,-1.22473 C 66.825712,56.139296 66.6637,56.079117 66.511186,56.022284 62.346848,54.47049 59.282775,53.212907 55.688074,52.564614 53.890726,52.24047 51.96058,52.068925 50.023303,52.056635 Z" />
      <path
         style="fill:#eec39a;fill-opacity:1;stroke:#c8a27d;stroke-width:2.5;stroke-linecap:butt;stroke-linejoin:miter;stroke-miterlimit:4;stroke-dasharray:none;stroke-opacity:1"
         d="m 91.584958,64.262213 c 0.952818,0.04912 2.858175,0.147329 4.419369,-0.324126 1.561194,-0.471455 2.778432,-1.512505 3.387052,-2.985597 C 100,59.479399 100,57.574079 99.637004,56.110694 99.274009,54.647308 98.547833,53.625901 97.006172,53.075754 95.464511,52.525608 93.107143,52.447029 90.75,52.368457 c 0,0 -0.176787,11.608927 -0.176787,11.608927 0.01964,0.07857 0.03937,0.157455 0.04915,0.196585 0.0098,0.03913 0.0098,0.03913 0.962598,0.08824 z"
         id="path672"
         inkscape:path-effect="#path-effect674"
         inkscape:original-d="m 90.632141,64.213099 c 1.905622,0.09848 3.810979,0.196694 5.716072,0.294643 1.217551,-1.040826 2.434788,-2.081877 3.651787,-3.123213 2.6e-4,-1.90513 2.6e-4,-3.81045 0,-5.716072 C 99.274057,54.647274 98.547882,53.625866 97.821429,52.604172 95.464502,52.525863 90.75,52.368457 90.75,52.368457 c 0,0 -0.176787,11.608927 -0.176787,11.608927 0,0 0.03955,0.157409 0.05893,0.235715 z" />
      <path
         style="fill:#eec39a;fill-opacity:1;stroke:#c8a27d;stroke-width:2.5;stroke-linecap:butt;stroke-linejoin:miter;stroke-miterlimit:4;stroke-dasharray:none;stroke-opacity:1"
         d="M 8.299474,64.391879 C 7.3466565,64.440994 5.4412996,64.539208 3.8801055,64.067753 2.3189115,63.596298 1.1016737,62.555248 0.49305328,61.082156 -0.11556717,59.609065 -0.11556717,57.703745 0.24742851,56.24036 0.61042419,54.776974 1.3365996,53.755567 2.8782608,53.20542 4.419922,52.655274 6.7772895,52.576695 9.1344325,52.498123 c 0,0 0.176787,11.608927 0.176787,11.608927 -0.019643,0.07857 -0.039365,0.157455 -0.049147,0.196585 -0.00978,0.03913 -0.00978,0.03913 -0.9625982,0.08824 z"
         id="path15421"
         inkscape:path-effect="#path-effect15425"
         inkscape:original-d="m 9.2522915,64.342765 c -1.905622,0.09848 -3.810979,0.196694 -5.716072,0.294643 -1.217551,-1.040826 -2.434788,-2.081877 -3.65178667,-3.123213 -2.6e-4,-1.90513 -2.6e-4,-3.81045 0,-5.716072 0.725943,-1.021183 1.45211767,-2.042591 2.17857067,-3.064285 2.356927,-0.07831 7.071429,-0.235715 7.071429,-0.235715 0,0 0.176787,11.608927 0.176787,11.608927 0,0 -0.03955,0.157409 -0.05893,0.235715 z" />
      <ellipse
         style="fill:#000000;fill-opacity:1;stroke:none;stroke-width:0.264583"
         id="path34128"
         cx="45.314812"
         cy="50.302143"
         rx="1.6459173"
         ry="1.2500638" />
      <ellipse
         style="fill:#000000;fill-opacity:1;stroke:none;stroke-width:0.264583"
         id="ellipse34232"
         cx="54.690292"
         cy="50.343811"
         rx="1.6459173"
         ry="1.2500638" />
    </g>
    <g
       id="g2488"
       transform="matrix(0.34345066,0,0,0.34345066,-103.85883,5.0429529)">
      <g
         id="g2513"
         transform="translate(403.74827,49.110703)">
        <path
           style="fill:#d98d2e;fill-opacity:1;stroke:none;stroke-width:0.264583px;stroke-linecap:butt;stroke-linejoin:miter;stroke-opacity:1"
           d="m 1.27725,23.981069 c 0.1669832,1.650015 0.4616261,3.575015 0.9134595,5.29379 0.4518334,1.718776 1.0607498,3.231245 2.0036841,4.665163 0.9429342,1.433919 2.2196932,2.789248 3.8107924,4.350864 1.5910992,1.561616 3.496418,3.329438 6.218074,5.051139 2.721656,1.7217 6.259426,3.39728 9.579095,4.605284 3.31967,1.208005 6.421055,1.948448 9.788769,2.534733 3.367713,0.586285 7.001569,1.018419 10.439066,0.998739 3.437498,-0.01968 6.678504,-0.491101 10.793687,-1.77774 4.115183,-1.286639 9.10437,-3.388383 12.532015,-5.215168 3.427646,-1.826785 5.293678,-3.378539 7.012418,-5.146388 1.718739,-1.76785 3.290136,-3.751738 4.871388,-6.73744 1.581252,-2.985703 3.172291,-6.973122 3.04478,-9.349919 C 82.156968,20.87733 80.310578,20.111275 68.66213,19.001382 57.013681,17.89149 35.564113,16.437947 23.414924,16.113814 11.265735,15.78968 8.4175776,16.59502 6.2371729,17.361096 4.0567682,18.127173 2.5442984,18.853944 1.8076402,19.905014 1.070982,20.956084 1.1102668,22.331055 1.27725,23.981069 Z"
           id="path194471"
           inkscape:path-effect="#path-effect194473"
           inkscape:original-d="m 1.1495447,23.705785 c 0.2949075,1.925265 0.5895504,3.850265 0.8839285,5.775 0.6092059,1.512795 1.2181219,3.025264 1.8267859,4.537498 1.277076,1.355651 2.553836,2.710979 3.830357,4.066072 1.90566,1.768157 3.8109789,3.535979 5.7160709,5.303573 3.538176,1.67591 7.075945,3.35149 10.613522,5.02684 3.101771,0.740735 6.203156,1.481179 9.304334,2.221372 3.634267,0.432417 7.268123,0.86455 10.901786,1.29643 3.241402,-0.471173 6.482408,-0.942592 9.723215,-1.414286 4.98965,-2.101564 9.978837,-4.203308 14.967858,-6.305356 1.866373,-1.551554 3.732405,-3.103309 5.598212,-4.655357 1.571726,-1.983706 3.143123,-3.967594 4.714288,-5.951786 1.591365,-3.987316 3.182406,-7.974735 4.773213,-11.962501 -1.846202,-0.765823 -3.692591,-1.531879 -5.539285,-2.298213 -21.450165,-1.453338 -42.899734,-2.906879 -64.35,-4.360714 -2.848006,0.805638 -5.6961639,1.610976 -8.5446429,2.416069 -1.512265,0.727067 -3.024735,1.453838 -4.5374994,2.180357 0.039551,1.375294 0.078836,2.750265 0.117857,4.125002 z" />
        <path
           style="fill:#b36221;fill-opacity:1;stroke:none;stroke-width:0.264583px;stroke-linecap:butt;stroke-linejoin:miter;stroke-opacity:1"
           d="m -4.0654817,17.302401 c 0.00999,0.667796 0.108204,0.707083 0.7170605,1.885773 0.6088565,1.178689 1.7284772,3.4965 3.11337271,5.450951 1.38489549,1.95445 3.03486229,3.54549 4.07586959,4.861602 1.0410074,1.316111 1.4731414,2.357161 1.9937432,3.211611 0.5206019,0.854451 1.1295176,1.522294 2.2492022,2.416021 1.1196846,0.893728 2.7500105,2.013349 3.7222695,2.85805 0.972259,0.844701 1.286539,1.414332 2.170554,2.042828 0.884016,0.628497 2.337559,1.315983 4.105437,2.160638 1.767877,0.844654 3.849979,1.84642 5.912498,2.6714 2.062519,0.82498 4.105335,1.473181 6.226766,1.856175 2.121431,0.382994 4.321388,0.500849 5.77497,0.589247 1.453583,0.0884 2.160711,0.147325 3.437505,0.176778 1.276793,0.02945 3.123185,0.02945 4.832143,0.117863 1.708958,0.08841 3.280353,0.265194 4.439292,0.402698 1.158939,0.137504 1.905352,0.235716 3.074065,0.08835 1.168712,-0.147368 2.759752,-0.540217 4.576733,-1.011652 1.816981,-0.471436 3.859797,-1.021426 6.108853,-2.288398 2.249057,-1.266973 4.704364,-3.25086 6.924072,-4.694634 2.219708,-1.443774 4.203597,-2.347327 5.755345,-3.280355 1.551747,-0.933027 2.671367,-1.895507 3.889202,-3.545477 1.217835,-1.649971 2.53388,-3.987425 3.879442,-5.991042 1.345562,-2.003618 2.720536,-3.673229 3.653571,-4.851796 0.933035,-1.178568 1.424096,-1.866053 1.453609,-3.162371 0.02951,-1.296319 -0.402621,-3.201636 -1.934685,-5.303477 C 84.553344,11.861341 81.921254,9.5631724 68.337968,8.0603675 54.754681,6.5575627 30.221245,5.8504339 16.608634,6.1745244 2.9960234,6.4986149 0.30500663,7.8539448 -1.2959697,9.3371052 c -1.6009764,1.4831608 -2.1116804,3.0938428 -2.4063056,4.5474698 -0.2946252,1.453627 -0.3731949,2.750029 -0.3632064,3.417826 z"
           id="path179023"
           inkscape:path-effect="#path-effect179025"
           inkscape:original-d="m -4.1540265,17.930783 c 0.098479,0.03955 0.1966931,0.07884 0.2946426,0.117859 1.1199299,2.318168 2.2395502,4.635979 3.3589288,6.95357 1.6502975,1.591368 3.3002642,3.182408 4.9500002,4.773216 0.432416,1.041355 0.86455,2.082405 1.296428,3.123213 0.609206,0.668136 1.218122,1.335979 1.826786,2.003573 1.630654,1.119928 3.2609789,2.23955 4.8910709,3.358928 0.314557,0.569917 0.628836,1.139549 0.942857,1.708927 1.453865,0.687779 2.907408,1.375265 4.360715,2.062501 2.082449,1.00207 4.164551,2.003836 6.246428,3.005358 2.043162,0.648491 4.085978,1.296691 6.128572,1.944642 2.200307,0.118123 4.400264,0.235979 6.6,0.353571 0.707421,0.0592 1.41455,0.118123 2.121429,0.176786 1.846728,2.65e-4 3.69312,2.65e-4 5.539285,0 1.571725,0.177054 3.14312,0.353836 4.714285,0.530358 0.746709,0.09848 1.493123,0.196691 2.239285,0.294642 1.591368,-0.392602 3.182408,-0.78545 4.773215,-1.17857 2.043163,-0.549749 4.085979,-1.099738 6.12857,-1.650003 2.455672,-1.983703 4.910979,-3.967591 7.366072,-5.951783 1.984235,-0.903325 3.968123,-1.80688 5.951786,-2.710715 1.119931,-0.962255 2.23955,-1.924735 3.35893,-2.887501 1.316361,-2.337281 2.632406,-4.674735 3.948213,-7.0125 1.375291,-1.66941 2.750265,-3.339021 4.125,-5.008928 0.491347,-0.68725 0.982408,-1.374735 1.473216,-2.062501 C 88.0498,17.970296 87.617664,16.064979 87.185259,14.159357 84.553326,11.861361 81.921236,9.563193 79.28883,7.264712 54.754674,6.55782 30.221238,5.850692 5.6870441,5.143283 c -2.69086,1.355651 -5.3818777,2.710979 -8.0732137,4.066072 -0.5104599,1.611011 -1.0211639,3.221693 -1.5321428,4.832143 -0.078308,1.296721 -0.1568784,2.593123 -0.2357141,3.889285 z" />
        <path
           style="fill:#f8d54a;fill-opacity:1;stroke:none;stroke-width:0.264583px;stroke-linecap:butt;stroke-linejoin:miter;stroke-opacity:1"
           inkscape:path-effect="#path-effect2458"
           inkscape:original-d="m 60.855423,45.914641 c 0,0 3.694897,-4.138835 5.541949,-6.20865 1.153124,-1.597071 2.305938,-3.194343 3.45851,-4.791911 2.028186,-2.166556 4.056027,-4.33329 6.083644,-6.500332 2.042076,-1.62485 4.083806,-3.249901 6.125312,-4.875248 2.500442,-2.027657 5.00052,-4.055498 7.500383,-6.083644 0.778097,-0.958137 2.333452,-2.875147 2.333452,-2.875147 0,0 -0.805332,-4.583302 -1.208395,-6.87535 C 89.9266,5.87116 89.162687,4.037769 88.398495,2.204078 86.968102,1.509849 85.537502,0.815383 84.106609,0.120638 c -2.611032,0.180833 -7.833733,0.541695 -7.833733,0.541695 0,0 -13.750702,9.125465 -13.750702,9.125465 0,0 -16.000816,14.292396 -16.000816,14.292396 0,0 -2.708471,3.541847 -2.708471,3.541847 0,0 4.222702,5.583883 6.333656,8.375428 1.70872,2.167084 3.417107,4.333817 5.125263,6.500329 1.55593,1.028116 4.666903,3.083493 4.666903,3.083493 0,0 0.916714,0.33335 0.916714,0.33335 z"
           d="m 60.855423,45.914641 c 1.847316,-2.06955 3.694618,-4.139084 5.194696,-5.97251 1.500078,-1.833427 2.652892,-3.430699 4.243284,-5.312781 1.590392,-1.882081 3.618233,-4.048815 5.6531,-5.944779 2.034867,-1.895964 4.076598,-3.521015 6.34757,-5.347516 2.270973,-1.826501 4.77105,-3.854342 6.410003,-5.347456 1.638953,-1.493114 2.41678,-2.451508 3.194597,-3.40989 C 91.495875,12.287926 91.093129,9.9964442 90.509799,7.9338296 89.926468,5.8712149 89.162555,4.0378238 88.065356,2.7737811 86.968156,1.5097385 85.537556,0.81527238 83.516557,0.55823102 81.495558,0.30118966 78.88412,0.481768 76.272876,0.662333 c 0,0 -13.750702,9.125465 -13.750702,9.125465 0,0 -16.000816,14.292396 -16.000816,14.292396 0,0 -2.708471,3.541847 -2.708471,3.541847 2.111219,2.791809 4.222661,5.583914 6.132501,8.063227 1.90984,2.479312 3.618227,4.646046 5.250308,6.243315 1.632081,1.597269 3.187379,2.624877 4.743013,3.652708 0,0 0.916714,0.33335 0.916714,0.33335 z"
           id="path170096" />
        <path
           style="fill:#ffb901;fill-opacity:1;stroke:none;stroke-width:0.264583px;stroke-linecap:butt;stroke-linejoin:miter;stroke-opacity:1"
           inkscape:path-effect="#path-effect161182"
           inkscape:original-d="m 7.1860181,23.371823 c 0,0 3.0281959,5.167196 4.5418979,7.750397 1.375362,2.180974 2.750405,4.361598 4.125211,6.542 0.819767,1.208683 1.639236,2.417054 2.458458,3.625184 0.833657,0.875326 1.667015,1.750353 2.500127,2.625134 1.069785,1.500371 3.208497,4.50023 3.208497,4.50023 0,0 2.361496,-1.610929 3.541847,-2.416789 1.278133,-0.680339 2.555952,-1.360916 3.833529,-2.041771 2.292094,-1.416503 4.583832,-2.833214 6.875352,-4.250217 1.55593,-1.013698 3.111534,-2.027618 4.666903,-3.041822 -1.078484,-2.444252 -3.23618,-7.333405 -3.23618,-7.333405 0,0 -18.639935,-13.334318 -18.639935,-13.334318 0,0 -13.8757069,7.375377 -13.8757069,7.375377 z"
           d="m 7.1860181,23.371823 c 1.513966,2.583466 3.0281149,5.167243 4.4726519,7.549329 1.444538,2.382086 2.819581,4.56271 3.916873,6.25725 1.097292,1.694541 1.916762,2.902911 2.743227,3.944623 0.826465,1.041712 1.659823,1.916738 2.61125,3.104329 0.951427,1.187591 2.02069,2.687337 3.090189,4.187414 1.180616,-0.805596 2.361289,-1.611232 3.59055,-2.354338 1.229262,-0.743106 2.50708,-1.423684 4.291905,-2.472359 1.784824,-1.048675 4.076562,-2.465386 6.000283,-3.680735 1.923721,-1.215349 3.479324,-2.229269 3.717805,-3.958317 0.238481,-1.729048 -0.840365,-4.173787 -1.919092,-6.618255 0,0 -18.639935,-13.334318 -18.639935,-13.334318 0,0 -13.8757069,7.375377 -13.8757069,7.375377 z"
           id="path161180" />
        <path
           style="fill:#c3c310;fill-opacity:1;stroke:none;stroke-width:0.264583px;stroke-linecap:butt;stroke-linejoin:miter;stroke-opacity:1"
           d="m 23.47155,28.004109 c -0.04863,0.257061 -0.145859,0.770975 -0.458229,1.027829 -0.31237,0.256855 -0.840163,0.256855 -1.006917,0.555646 -0.166753,0.298791 0.0277,0.896029 0.187417,1.437727 0.159721,0.541697 0.284725,1.027824 0.569572,1.298534 0.284847,0.270709 0.729305,0.326266 1.083349,0.229015 0.354045,-0.09725 0.617942,-0.347259 0.916698,-0.298504 0.298756,0.04875 0.6321,0.395988 0.750012,0.840431 0.117912,0.444442 0.02069,0.986127 0.03465,1.444541 0.01396,0.458414 0.138966,0.833426 0.312605,1.277899 0.173638,0.444474 0.395867,0.958376 0.659829,1.38199 0.263963,0.423614 0.569528,0.756959 1.062537,0.742902 0.49301,-0.01406 1.173587,-0.375179 1.499947,-1.069508 0.326361,-0.694329 0.298581,-1.722137 0.618071,-2.472335 0.319491,-0.750197 0.986176,-1.222434 1.326448,-1.006983 0.340271,0.215451 0.354161,1.118257 0.597343,1.889151 0.243181,0.770894 0.715418,1.409802 1.208406,1.51381 0.492988,0.104008 1.006893,-0.326562 1.513991,-0.305584 0.507099,0.02098 1.007117,0.493216 0.847232,1.208423 -0.159886,0.715206 -0.979356,1.673569 -1.111142,2.354261 -0.131786,0.680692 0.423787,1.083481 1.097299,0.930573 0.673511,-0.152908 1.465201,-0.861262 1.874933,-1.645899 0.409732,-0.784637 0.437512,-1.645773 0.673766,-1.819375 0.236254,-0.173603 0.680713,0.340302 0.888924,0.750028 0.208211,0.409725 0.180431,0.715289 0.326259,0.541598 0.145827,-0.173691 0.465282,-0.82649 0.583357,-0.763917 0.118075,0.06257 0.03474,0.840374 0.534945,1.382 0.500205,0.541626 1.583574,0.847191 2.639057,0.617944 1.055484,-0.229247 2.083295,-0.99316 2.95153,-1.118036 0.868235,-0.124876 1.576588,0.389027 2.430747,0.506953 0.85416,0.117927 1.854192,-0.15986 2.784815,-0.389037 0.930623,-0.229176 1.791762,-0.409738 2.750203,-0.416636 0.958441,-0.0069 2.014031,0.159774 2.145826,0.632004 0.131794,0.472229 -0.659898,1.250031 -0.895903,1.840489 -0.236006,0.590459 0.08322,0.992957 0.40268,1.395755 0.305571,0.02778 0.611428,0.05559 1.034956,-0.104182 0.423529,-0.159768 0.965212,-0.507 1.104191,-0.840189 0.138979,-0.333188 -0.124919,-0.652643 0.05552,-1.187531 0.180442,-0.534887 0.80546,-1.28491 1.583414,-1.708569 0.777954,-0.423659 1.70854,-0.520884 2.722378,-1.09036 1.013839,-0.569475 2.111095,-1.611174 2.090392,-2.562504 -0.0207,-0.951331 -1.159625,-1.812468 -1.451475,-2.812587 -0.291851,-1.00012 0.263723,-2.139046 -0.187542,-3.402938 -0.451264,-1.263892 -1.909643,-2.652824 -8.403146,-3.45855 -6.493502,-0.805725 -18.021638,-1.027955 -23.910986,-0.527819 -5.889348,0.500135 -6.139356,1.722397 -6.264341,2.333439 -0.124986,0.611041 -0.124987,0.611039 -0.17362,0.868101 z"
           id="path133417"
           inkscape:path-effect="#path-effect133419"
           inkscape:original-d="m 23.520183,27.747047 c -0.09696,0.514181 -0.194188,1.028094 -0.291679,1.541746 -0.527553,2.64e-4 -1.055346,2.64e-4 -1.583415,0 0.194723,0.597529 0.389173,1.194768 0.583364,1.791758 0.125272,0.48641 0.250277,0.972537 0.375018,1.458407 0.44474,0.05583 0.889198,0.111382 1.333402,0.166674 0.26417,-0.249753 0.528068,-0.49976 0.791707,-0.750038 0.333621,0.347512 0.666965,0.694746 1.000051,1.04172 -0.09696,0.54197 -0.194191,1.083654 -0.291682,1.625084 0.125272,0.375291 0.250277,0.750303 0.375018,1.125056 0.222504,0.514192 0.444733,1.028094 0.666702,1.541746 0.30584,0.333621 0.611407,0.666964 0.916713,1.000051 0.680868,-0.360871 1.361445,-0.721995 2.041771,-1.08339 -0.02751,-1.027586 -0.05529,-2.055394 -0.08334,-3.083488 0.666981,-0.471993 1.333667,-0.944229 2.000102,-1.416741 0.01415,0.903108 0.02805,1.805914 0.04167,2.708474 0.472522,0.639199 0.944759,1.278107 1.416741,1.916763 0.514189,-0.430321 1.028094,-0.86089 1.541743,-1.291733 0.5003,0.47252 1.000318,0.944759 1.500079,1.416738 -0.81924,0.958668 -1.63871,1.917031 -2.458461,2.875148 0.555861,0.403071 1.111433,0.805862 1.666753,1.208394 0.791988,-0.708117 1.583677,-1.416473 2.37512,-2.125107 0.02805,-0.860909 0.05582,-1.722045 0.08334,-2.583465 0.444741,0.514188 0.889199,1.028094 1.333403,1.541745 -0.02752,0.305843 -0.0553,0.611407 -0.08334,0.916713 0.319731,-0.652558 0.639186,-1.305357 0.958382,-1.958433 -0.08307,0.778097 -0.16641,1.555898 -0.250013,2.333453 1.083675,0.30584 2.167043,0.611407 3.250165,0.916713 1.028116,-0.763678 2.055927,-1.527591 3.083492,-2.291784 0.708649,0.514191 1.417002,1.028094 2.125109,1.541745 1.000334,-0.277532 2.000367,-0.555318 3.000153,-0.833376 0.861436,-0.180303 1.722575,-0.360865 2.583466,-0.541695 1.055893,0.166944 2.111483,0.333616 3.166827,0.500028 -0.791459,0.778097 -1.583151,1.555898 -2.375123,2.333451 0.319733,0.403071 0.958385,1.208394 0.958385,1.208394 0,0 0.611407,0.05582 0.916712,0.08334 0.54197,-0.346982 1.083654,-0.694213 1.625084,-1.04172 -0.263644,-0.319201 -0.527542,-0.638656 -0.791707,-0.958381 0.625308,-0.74979 1.250328,-1.499812 1.875094,-2.250115 0.930886,-0.09696 1.861471,-0.194191 2.791809,-0.291682 1.097566,-1.041477 2.194822,-2.083176 3.291835,-3.125158 -1.138706,-0.860909 -2.277629,-1.722046 -3.41684,-2.583465 0.555858,-1.138706 1.111433,-2.277632 1.666751,-3.416843 -1.458172,-1.388721 -2.91655,-2.777654 -4.375224,-4.166878 -11.52833,-0.221974 -23.056466,-0.444203 -34.585098,-0.666702 -0.24975,1.222573 -0.499761,2.444835 -0.750038,3.666855 z" />
        <path
           style="fill:#546217;fill-opacity:1;stroke:none;stroke-width:0.264583px;stroke-linecap:butt;stroke-linejoin:miter;stroke-opacity:1"
           d="m 72.272643,30.441752 c 0.347235,-0.888841 0.5278,-2.041676 0.507026,-3.000018 -0.02078,-0.958342 -0.243004,-1.722253 -0.972115,-2.527912 -0.729111,-0.80566 -1.96526,-1.652908 -3.798754,-1.889148 -1.833494,-0.236239 -4.264123,0.138773 -7.076802,0.611023 -2.81268,0.47225 -6.007225,1.041712 -8.521312,1.784807 -2.514087,0.743095 -4.347478,1.65979 -5.125238,2.312782 -0.77776,0.652992 -0.499974,1.041892 0.416775,2.07667 0.916748,1.034778 2.472352,2.715386 3.79885,3.854287 1.326498,1.138901 2.423755,1.736143 4.11135,2.138871 1.687594,0.402728 3.965442,0.611068 6.055786,0.423514 2.090345,-0.187554 3.993182,-0.770905 5.500158,-1.444552 1.506976,-0.673647 2.618123,-1.43756 3.430629,-2.132012 0.812507,-0.694452 1.326412,-1.319472 1.673647,-2.208312 z"
           id="path112736"
           inkscape:path-effect="#path-effect112738"
           inkscape:original-d="m 72.439347,30.705531 c 0.180829,-1.152573 0.361394,-2.305408 0.541695,-3.458509 -0.221975,-0.76368 -0.444204,-1.527591 -0.666703,-2.291784 -1.235935,-0.847019 -2.472084,-1.694267 -3.708521,-2.541797 -2.430466,0.375291 -4.861095,0.750303 -7.292039,1.125059 -3.194407,0.569748 -6.388952,1.139211 -9.583822,1.70842 -1.8332,0.916995 -3.66659,1.833692 -5.500282,2.75014 0.278064,0.389181 0.55585,0.778081 0.833376,1.166725 1.55593,1.68094 3.111535,3.361547 4.666906,5.041924 1.097563,0.597529 2.19482,1.194771 3.291835,1.791758 2.278203,0.208613 4.556051,0.416954 6.833682,0.625033 1.903177,-0.58311 3.806013,-1.166463 5.708623,-1.750089 1.111454,-0.76368 2.222601,-1.527593 3.333504,-2.291784 0.514189,-0.624779 1.028094,-1.249799 1.541746,-1.875096 z" />
        <path
           style="fill:#7d801a;fill-opacity:1;stroke:none;stroke-width:0.264583px;stroke-linecap:butt;stroke-linejoin:miter;stroke-opacity:1"
           d="m 22.31192,25.969312 c 0.958513,0.972404 2.875278,2.916949 5.250455,4.507256 2.375177,1.590307 5.208601,2.826457 7.639297,3.715369 2.430696,0.888912 4.458537,1.430596 6.410006,1.611106 1.95147,0.180509 3.826528,-5.2e-5 5.229301,-0.388977 1.402774,-0.388925 2.333359,-0.986166 3.006971,-1.507005 0.673612,-0.520838 1.09029,-0.965295 1.31947,-1.909678 C 51.3966,31.053 51.438268,29.60851 51.049434,28.059833 50.660599,26.511157 49.841128,24.858328 47.834124,23.712302 45.82712,22.566276 42.632576,21.927366 38.25729,21.288424 33.882005,20.649483 28.326276,20.010574 25.332891,20.344 c -2.993385,0.333426 -3.423954,1.639024 -3.694795,2.59049 -0.270841,0.951467 -0.381955,1.548709 -0.402703,1.833315 -0.02075,0.284605 0.0487,0.256824 0.08336,0.242961 0.03466,-0.01386 0.03466,-0.01386 0.993169,0.958546 z"
           id="path105367"
           inkscape:path-effect="#path-effect105369"
           inkscape:original-d="m 21.353407,24.996907 c 1.917028,1.944807 3.833794,3.889351 5.750293,5.833631 2.833798,1.236462 5.667221,2.472614 8.500435,3.708522 2.028185,0.54197 4.056026,1.083654 6.083641,1.625084 1.875399,-0.180306 3.750458,-0.360865 5.625288,-0.541695 0.930886,-0.597 1.861471,-1.194242 2.791809,-1.791758 0.416962,-0.444212 0.833641,-0.888669 1.250064,-1.333402 0.04193,-1.444281 0.0836,-2.888771 0.125008,-4.333555 -0.81924,-1.65263 -1.638711,-3.305458 -2.458461,-4.958585 -3.194405,-0.63867 -6.388949,-1.277578 -9.583822,-1.916766 -5.555684,-0.638667 -11.111413,-1.277578 -16.667517,-1.916764 -0.430321,1.305912 -0.860891,2.611509 -1.291733,3.916868 -0.110852,0.597527 -0.221967,1.194769 -0.333348,1.791756 0.06971,-0.02751 0.13916,-0.05529 0.208343,-0.08334 z" />
        <path
           style="fill:#f8df1b;fill-opacity:1;stroke:none;stroke-width:0.264583px;stroke-linecap:butt;stroke-linejoin:miter;stroke-opacity:1"
           d="m 2.2005857,20.415659 c -1.44358424,-0.30443 -4.1935838,-1.070501 -5.9516329,-1.71866 -1.758049,-0.648158 -2.524408,-1.178715 -3.2904794,-1.709072 0.4517857,-2.298214 0.9035313,-4.596224 1.3160358,-6.747135 0.4125045,-2.1509115 0.7857112,-4.1544425 1.2571375,-5.8143178 0.4714263,-1.6598753 1.0410577,-2.9759204 1.6795552,-3.77154937 0.6384976,-0.795629 1.3456264,-1.07062352 2.6028619,-1.10986429 1.2572355,-0.0392408 3.0643428,0.15718369 4.6357791,0.85462622 1.5714363,0.69744254 2.9071236,1.89563224 4.0659815,3.82069344 1.158858,1.9250611 2.1409806,4.5767951 2.0328656,6.5998738 -0.108116,2.023079 -1.3063068,3.417695 -2.5929276,4.910567 -1.2866207,1.492873 -2.6615746,3.083891 -4.0365743,4.674962 -0.1375003,0.157143 -0.2750182,0.314306 -1.7186024,0.0099 z"
           id="path189319"
           inkscape:path-effect="#path-effect189321"
           inkscape:original-d="m 3.5066871,20.877212 c -2.7497348,-0.765807 -5.4997349,-1.531876 -8.2499995,-2.298213 -0.7658221,-0.530103 -2.2982142,-1.591072 -2.2982142,-1.591072 0,0 0.903836,-4.596164 1.3553571,-6.894642 0.3734863,-2.003348 0.7466932,-4.006879 1.1196427,-6.010714 0.5699189,-1.315834 1.1395504,-2.631879 1.7089287,-3.948215 0.7074217,-0.274741 1.4145503,-0.549736 2.1214286,-0.825 1.8074436,0.196696 3.6145506,0.393123 5.4214286,0.589285 1.336006,1.198504 2.671693,2.396694 4.007143,3.594642 0.982427,2.652104 1.9645499,5.303838 2.9464279,7.95536 -1.197973,1.394933 -2.3961639,2.789549 -3.5946429,4.183927 -1.374763,1.591368 -4.124999,4.773213 -4.124999,4.773213 0,0 -0.274736,0.314553 -0.412501,0.471429 z" />
        <path
           style="fill:#ea030c;fill-opacity:1;stroke:none;stroke-width:0.264583px;stroke-linecap:butt;stroke-linejoin:miter;stroke-opacity:1"
           d="m -0.10604744,11.128198 c -0.16670183,0.340349 -0.50005242,1.02094 -0.68059798,1.597432 -0.18054556,0.576493 -0.20832449,1.048732 -0.16661295,1.534902 0.0417115,0.48617 0.15282597,0.986185 0.42376943,1.47231 0.27094346,0.486125 0.70151176,0.958362 1.14601169,1.340288 0.44449995,0.381927 0.90284825,0.673603 1.51400355,0.986093 0.6111554,0.312491 1.3750681,0.645834 1.8402911,0.979278 0.465223,0.333443 0.6318948,0.666786 0.8472513,0.847208 0.2153566,0.180421 0.4792526,0.2082 1.034833,0.222075 0.5555804,0.01388 1.4028284,0.01388 2.2848024,-0.06254 0.8819741,-0.07641 1.7986688,-0.229195 1.84026,-2.006925 C 10.019555,16.260592 9.1861963,12.85771 7.8667684,11.100528 6.5473404,9.343346 4.7417283,9.2322322 3.3596057,9.4544386 1.9774831,9.676645 1.0191193,10.232218 0.53988668,10.510033 0.0606541,10.787849 0.0606544,10.787848 -0.10604744,11.128198 Z"
           id="path50644"
           inkscape:path-effect="#path-effect50646"
           inkscape:original-d="m 0.0606544,10.787848 c -0.3330858,0.680855 -0.6664362,1.361446 -1.0000509,2.041771 -0.027515,0.47252 -0.055294,0.944759 -0.083338,1.416738 0.1113835,0.500301 0.2224982,1.000316 0.3333504,1.500077 0.4308507,0.472522 0.8614196,0.944758 1.2917326,1.41674 0.4586303,0.291952 0.9169778,0.583629 1.37507,0.875043 0.7642076,0.333624 1.5281206,0.666967 2.2917836,1.000051 0.166943,0.333624 0.333615,0.666967 0.500026,1.000051 0.264172,0.02805 0.528069,0.05582 0.791707,0.08334 0.847547,2.64e-4 1.694795,2.64e-4 2.541796,0 0.916997,-0.152525 1.833692,-0.305306 2.7501409,-0.458357 C 10.019744,16.260546 9.1863841,12.857664 8.3527441,9.454447 6.5473251,9.343595 4.7417131,9.23248 2.9358011,9.121099 1.977664,9.676957 1.0193009,10.232531 0.0606541,10.787849 Z" />
        <path
           style="fill:#cc2801;fill-opacity:1;stroke:none;stroke-width:0.264583px;stroke-linecap:butt;stroke-linejoin:miter;stroke-opacity:1"
           d="m 23.950811,28.504079 c -0.624928,0.548536 -1.611091,0.895777 -2.868063,1.097198 -1.256973,0.201422 -2.784798,0.256979 -4.257087,0.173667 -1.47229,-0.08331 -2.889,-0.305541 -4.305744,-0.777736 C 11.103174,28.525012 9.686462,27.802767 8.3461013,27.08051 7.0057406,26.358252 5.741813,25.636007 4.7556097,24.865178 3.7694065,24.094349 3.0610512,23.274879 2.65121,22.531787 2.2413688,21.788696 2.1302542,21.122009 2.0607855,20.365004 1.9913169,19.607998 1.9635384,18.76075 3.3040204,18.163343 c 1.340482,-0.597407 4.0488991,-0.94464 6.9241016,-1.041844 2.875203,-0.0972 5.916964,0.05558 8.33377,0.958537 2.416806,0.90296 4.208528,2.555791 5.194573,4.076736 0.986045,1.520945 1.166606,2.909877 1.124889,3.979313 -0.04172,1.069435 -0.305614,1.819458 -0.930543,2.367994 z"
           id="path59300"
           inkscape:path-effect="#path-effect59302"
           inkscape:original-d="m 24.311891,28.705429 c -0.985896,0.347504 -1.972059,0.694745 -2.958484,1.04172 -1.527622,0.05582 -3.055447,0.111382 -4.583567,0.166674 -1.416503,-0.221972 -2.833213,-0.444201 -4.250217,-0.6667 C 11.103121,28.525115 9.6864101,27.802869 8.2694061,27.080347 7.0056921,26.358337 5.7417641,25.636093 4.4775461,24.913569 3.7694271,24.094331 3.0610721,23.274861 2.3524381,22.455111 2.2415836,21.78866 2.1304689,21.121973 2.0190875,20.455009 1.9915725,19.60799 1.9637935,18.760742 1.9357505,17.913212 c 2.7087896,-0.346982 5.4172066,-0.694216 8.1254135,-1.04172 3.042148,0.153054 6.083909,0.305835 9.125467,0.458356 1.792057,1.653159 3.583779,3.30599 5.375272,4.958588 0.180835,1.389251 0.361395,2.778184 0.541695,4.166878 -0.263641,0.750319 -0.527539,1.500341 -0.791707,2.250115 z" />
        <path
           style="fill:#b32e08;fill-opacity:1;stroke:none;stroke-width:0.264583px;stroke-linecap:butt;stroke-linejoin:miter;stroke-opacity:1"
           d="m 39.70166,29.330765 c 0.166735,0.708383 0.388969,1.16674 0.923772,1.882046 0.534803,0.715305 1.382053,1.687559 2.222416,2.29861 0.840364,0.611051 1.673722,0.861059 2.368199,1.02771 0.694477,0.166651 1.25005,0.249987 2.069451,0.02075 0.8194,-0.229233 1.902768,-0.770917 2.659753,-1.152883 0.756985,-0.381966 1.187552,-0.604194 1.451378,-0.840222 0.263825,-0.236029 0.361051,-0.486038 0.388867,-0.916552 0.02782,-0.430513 -0.01385,-1.041642 -0.326265,-1.701403 -0.312413,-0.65976 -0.895763,-1.368115 -1.999967,-2.236272 -1.104203,-0.868156 -2.729255,-1.895965 -4.250212,-2.354428 -1.520958,-0.458462 -2.937669,-0.347348 -3.903125,-0.02787 -0.965455,0.319478 -1.47936,0.847272 -1.680739,1.590518 -0.201378,0.743246 -0.09026,1.701609 0.07647,2.409992 z"
           id="path88345"
           inkscape:path-effect="#path-effect88347"
           inkscape:original-d="m 39.646008,29.580475 c 0.222496,0.45862 0.44473,0.916977 0.6667,1.375068 0.847547,0.972556 1.694796,1.94481 2.541796,2.916817 0.833657,0.250283 1.667015,0.50029 2.500127,0.750038 0.555861,0.0836 1.111433,0.166939 1.666751,0.250013 1.083675,-0.541441 2.167043,-1.083125 3.250165,-1.625084 0.430853,-0.221972 0.86142,-0.444201 1.291733,-0.6667 0.09749,-0.249753 0.19472,-0.499761 0.291682,-0.750038 -0.0414,-0.610891 -0.08307,-1.22202 -0.125005,-1.833427 -0.58311,-0.708121 -1.166463,-1.416474 -1.750089,-2.12511 -1.624851,-1.027586 -3.249903,-2.055394 -4.875249,-3.083488 -1.416503,0.111381 -2.833214,0.222496 -4.250217,0.333348 -0.513662,0.528082 -1.027567,1.055876 -1.541745,1.583415 0.111384,0.958665 0.222498,1.917028 0.333351,2.875148 z" />
        <path
           style="fill:#af3205;fill-opacity:1;stroke:none;stroke-width:0.264583px;stroke-linecap:butt;stroke-linejoin:miter;stroke-opacity:1"
           d="m 48.868812,29.344499 c 0.264014,0.347387 0.791819,1.041867 1.284914,1.653007 0.493095,0.61114 0.951443,1.138935 1.541769,1.402696 0.590325,0.263761 1.312569,0.263761 1.930609,0.180396 0.618041,-0.08337 1.131946,-0.250037 1.757042,-0.319453 0.625097,-0.06942 1.361227,-0.04164 2.111208,-0.173622 0.749981,-0.131986 1.513895,-0.423662 1.979105,-0.951348 0.46521,-0.527687 0.631882,-1.2916 0.61806,-1.992971 -0.01382,-0.701371 -0.208273,-1.340281 -0.645695,-1.868153 -0.437422,-0.527871 -1.117999,-0.944551 -2.895898,-1.430758 -1.7779,-0.486207 -4.65299,-1.041779 -6.215748,-0.805581 -1.562757,0.236198 -1.812765,1.264008 -1.882159,2.055778 -0.06939,0.791771 0.04172,1.347343 0.09725,1.624983 0.05553,0.27764 0.05553,0.277638 0.319543,0.625026 z"
           id="path94722"
           inkscape:path-effect="#path-effect94724"
           inkscape:original-d="m 48.604797,28.997111 c 0.528069,0.694745 1.055875,1.389224 1.583415,2.08344 0.458628,0.528079 0.916977,1.055873 1.375068,1.583412 0.72254,2.65e-4 1.444784,2.65e-4 2.166779,0 0.514189,-0.166412 1.028094,-0.333084 1.541746,-0.500025 0.736428,0.02805 1.472559,0.05582 2.208445,0.08334 0.764207,-0.291422 1.52812,-0.583099 2.291784,-0.875043 0.166941,-0.76368 0.333616,-1.527593 0.500025,-2.291784 -0.194193,-0.63867 -0.388644,-1.27758 -0.583364,-1.916766 -0.680339,-0.41643 -1.360916,-0.833109 -2.041771,-1.250063 -2.874938,-0.555329 -5.750028,-1.110904 -8.62544,-1.666751 -0.249751,1.028115 -0.499761,2.055924 -0.750038,3.083491 0.111384,0.555858 0.222498,1.11143 0.333351,1.666751 z" />
        <path
           style="fill:#ca3100;fill-opacity:1;stroke:none;stroke-width:0.264583px;stroke-linecap:butt;stroke-linejoin:miter;stroke-opacity:1"
           d="m 81.967566,21.330129 c 0.277783,-0.472219 0.583354,-1.069473 0.645923,-1.708296 0.06257,-0.638823 -0.117991,-1.3194 -0.34018,-1.895822 -0.22219,-0.576422 -0.486088,-1.048661 -0.95827,-1.389066 C 80.842856,15.99654 80.162278,15.7882 79.321945,15.38544 78.481612,14.98268 77.481582,14.385439 76.15508,14.114496 c -1.326502,-0.270943 -2.97933,-0.215386 -4.937887,0.604102 -1.958557,0.819488 -4.222515,2.40287 -5.840715,4.090539 -1.6182,1.687669 -2.590453,3.479392 -2.56248,4.646159 0.02797,1.166768 1.055782,1.708451 1.930833,2.076487 0.875051,0.368036 1.597294,0.562486 2.555665,0.659672 0.958371,0.09718 2.152851,0.09718 3.43069,0.01383 1.277838,-0.08335 2.638993,-0.250025 3.77097,-0.479218 1.131978,-0.229194 2.034784,-0.52087 2.694443,-0.972233 0.659658,-0.451363 1.076339,-1.062496 1.555652,-1.430622 0.479312,-0.368126 1.020997,-0.49313 1.437687,-0.590358 0.41669,-0.09723 0.708363,-0.166674 0.9791,-0.374974 0.270737,-0.208301 0.520745,-0.555534 0.798528,-1.027753 z"
           id="path102666"
           inkscape:path-effect="#path-effect102668"
           inkscape:original-d="m 81.939831,21.45506 c 0.305834,-0.596988 0.611407,-1.194242 0.916712,-1.791759 -0.180303,-0.680339 -0.360865,-1.360916 -0.541692,-2.041771 -0.263644,-0.47199 -0.527542,-0.944229 -0.791707,-1.416738 -0.680339,-0.208084 -1.360917,-0.416425 -2.041771,-0.625033 -0.999808,-0.597 -1.999838,-1.194241 -3.000153,-1.791758 -1.652633,0.05582 -3.305461,0.111382 -4.958588,0.166677 -2.263786,1.583708 -4.527743,3.167092 -6.792013,4.750242 -0.972026,1.792057 -1.944277,3.583781 -2.916814,5.375272 1.028115,0.54197 2.055923,1.083654 3.083491,1.625084 0.722537,0.194723 1.444781,0.389173 2.166776,0.583364 1.194795,2.65e-4 2.389275,2.65e-4 3.583517,0 1.361471,-0.166415 2.722626,-0.333087 4.083542,-0.500025 0.903105,-0.291423 1.805911,-0.5831 2.70847,-0.875046 0.41696,-0.610889 0.833642,-1.222021 1.250064,-1.833428 0.54197,-0.124743 1.083654,-0.249748 1.625081,-0.375018 0.291955,-0.06919 0.583629,-0.138631 0.875046,-0.208343 0.250283,-0.346983 0.50029,-0.694217 0.750039,-1.04172 z" />
        <path
           style="fill:#d9a562;fill-opacity:1;stroke:none;stroke-width:0.264583px;stroke-linecap:butt;stroke-linejoin:miter;stroke-opacity:1"
           d="M 1.3068389,9.1900302 C 0.20681594,6.7936044 -0.97175574,3.8471756 -1.4628951,0.27209983 -1.9540345,-3.3029759 -1.7576098,-7.5064639 -1.2665513,-10.68868 c 0.49105842,-3.182217 1.27675625,-5.342886 2.3964175,-7.621518 1.1196613,-2.278632 2.5732038,-4.675013 4.5375407,-7.051863 1.964337,-2.376851 4.4392871,-4.733946 7.6804451,-6.953633 3.241158,-2.219687 7.248221,-4.301788 10.941156,-5.755364 3.692935,-1.453577 7.071439,-2.27856 9.959001,-2.691037 2.887561,-0.412477 5.283942,-0.412477 7.916128,-0.23567 2.632185,0.176807 5.499986,0.530372 8.367884,1.17863 2.867899,0.648258 5.735697,1.591096 8.741085,2.867927 3.005388,1.27683 6.148183,2.887513 9.330336,5.225091 3.182152,2.337579 6.403515,5.401802 9.035646,8.446499 2.63213,3.044696 4.674947,6.069637 5.971332,8.387517 1.296385,2.31788 1.846373,3.92856 2.474955,5.7160798 0.628582,1.7875202 1.335711,3.7517688 1.355264,5.7945694 0.01955,2.0428007 -0.648291,4.16418807 -1.610804,6.7767032 -0.962514,2.612515 -2.219632,5.716025 -3.41783,7.8373976 -1.198198,2.121372 -2.337461,3.260636 -3.614258,4.51779 -1.276798,1.257154 -2.691057,2.632128 -4.832136,4.380348 -2.14108,1.74822 -5.008881,3.869607 -8.112424,5.441036 -3.103542,1.57143 -6.442761,2.592839 -10.115972,3.182147 -3.673211,0.589308 -7.680275,0.746447 -11.942803,0.608961 C 39.531884,29.225445 35.014119,28.793312 30.751591,28.046901 26.489063,27.300489 22.482001,26.239796 19.064114,24.84519 15.646227,23.450583 12.817712,21.722045 10.48018,20.072055 8.1426481,18.422066 6.2962567,16.850669 4.8622633,15.141759 3.4282698,13.432848 2.4068618,11.586456 1.3068389,9.1900302 Z"
           id="path23634"
           inkscape:path-effect="#path-effect23636"
           inkscape:original-d="M 1.3852591,9.739712 C 0.206952,6.79355 -0.9716193,3.847121 -2.1504553,0.900427 c 0.1966971,-4.20339 0.3931217,-8.406878 0.5892859,-12.610713 0.7859945,-2.160495 1.5716929,-4.321164 2.3571427,-6.482143 1.453865,-2.396212 2.9074078,-4.792593 4.3607138,-7.189286 2.475315,-2.356926 4.9502649,-4.714021 7.4249999,-7.071429 4.007488,-2.08192 8.014551,-4.164021 12.021428,-6.246428 3.378904,-0.824752 6.757408,-1.649736 10.135716,-2.475 2.396739,2.64e-4 4.79312,2.64e-4 7.189285,0 2.868178,0.353843 5.735979,0.707407 8.60357,1.060714 2.868181,0.943141 5.735979,1.885979 8.603572,2.828572 3.143184,1.61101 6.285979,3.221693 9.42857,4.832142 3.22176,3.064612 6.443123,6.128836 9.664287,9.192857 2.043163,3.025325 4.085979,6.050266 6.12857,9.075001 0.550278,1.611011 1.100265,3.221691 1.65,4.832141 0.707422,1.96459 1.414553,3.928838 2.121429,5.892858 -0.667604,2.121736 -1.335449,4.243123 -2.00357,6.364285 -1.256903,3.103898 -2.514021,6.207408 -3.771429,9.310714 -1.139044,1.139573 -2.278306,2.278838 -3.417856,3.417858 -1.414049,1.375291 -2.828308,2.750265 -4.242858,4.125 -2.867649,2.121736 -5.73545,4.243123 -8.603573,6.364285 -3.339086,1.021715 -6.678305,2.043123 -10.017855,3.064287 -4.006958,0.157409 -8.014022,0.31455 -12.021428,0.471427 C 39.531861,29.225682 35.014096,28.793548 30.495973,28.361142 26.489015,27.300671 22.481953,26.239978 18.474544,25.178999 15.646181,23.450658 12.817666,21.72212 9.9888301,19.993284 8.1426291,18.422088 6.2962381,16.850691 4.4495451,15.279 3.4283601,13.432798 2.4069521,11.586406 1.3852591,9.739712 Z" />
      </g>
    </g>
  </g>
</svg>
