<?xml version="1.0" encoding="UTF-8" standalone="no"?>
<!-- Created with Inkscape (http://www.inkscape.org/) -->

<svg
   width="100mm"
   height="100mm"
   viewBox="0 0 100 100"
   version="1.1"
   id="svg5"
   inkscape:version="1.1.1 (3bf5ae0d25, 2021-09-20, custom)"
   sodipodi:docname="tomato.svg"
   xmlns:inkscape="http://www.inkscape.org/namespaces/inkscape"
   xmlns:sodipodi="http://sodipodi.sourceforge.net/DTD/sodipodi-0.dtd"
   xmlns="http://www.w3.org/2000/svg"
   xmlns:svg="http://www.w3.org/2000/svg">
  <sodipodi:namedview
     id="namedview7"
     pagecolor="#ffffff"
     bordercolor="#666666"
     borderopacity="1.0"
     inkscape:pageshadow="2"
     inkscape:pageopacity="0.0"
     inkscape:pagecheckerboard="0"
     inkscape:document-units="mm"
     showgrid="false"
     width="100mm"
     inkscape:zoom="0.65638516"
     inkscape:cx="-203.38668"
     inkscape:cy="136.35287"
     inkscape:window-width="1920"
     inkscape:window-height="1007"
     inkscape:window-x="0"
     inkscape:window-y="0"
     inkscape:window-maximized="1"
     inkscape:current-layer="layer1" />
  <defs
     id="defs2">
    <inkscape:path-effect
       effect="bspline"
       id="path-effect33517"
       is_visible="true"
       lpeversion="1"
       weight="33.333333"
       steps="2"
       helper_size="0"
       apply_no_weight="true"
       apply_with_weight="true"
       only_selected="false" />
    <inkscape:path-effect
       effect="bspline"
       id="path-effect13589"
       is_visible="true"
       lpeversion="1"
       weight="33.333333"
       steps="2"
       helper_size="0"
       apply_no_weight="true"
       apply_with_weight="true"
       only_selected="false" />
    <inkscape:path-effect
       effect="bspline"
       id="path-effect13585"
       is_visible="true"
       lpeversion="1"
       weight="33.333333"
       steps="2"
       helper_size="0"
       apply_no_weight="true"
       apply_with_weight="true"
       only_selected="false" />
    <inkscape:path-effect
       effect="bspline"
       id="path-effect148"
       is_visible="true"
       lpeversion="1"
       weight="33.333333"
       steps="2"
       helper_size="0"
       apply_no_weight="true"
       apply_with_weight="true"
       only_selected="false" />
  </defs>
  <g
     inkscape:label="Layer 1"
     inkscape:groupmode="layer"
     id="layer1">
    <path
       style="fill:#db3e24;stroke:#ab3019;stroke-width:1;stroke-linecap:butt;stroke-linejoin:miter;stroke-opacity:1;fill-opacity:1;stroke-miterlimit:4;stroke-dasharray:none"
       d="m 2.4390728,49.33731 c -0.3474388,3.417188 -0.2471866,6.599141 0.087024,9.368761 0.3342105,2.769621 0.9022907,5.126778 2.2848068,8.37738 1.3825162,3.250601 3.5792763,7.394429 6.9154185,11.452164 3.336142,4.057735 7.811331,8.029203 11.892129,10.8335 4.080797,2.804298 7.766927,4.441386 11.798807,5.580506 4.03188,1.13912 8.409281,1.780312 13.011135,1.804844 4.601854,0.02453 9.42795,-0.567513 13.778411,-1.825604 4.350461,-1.25809 8.225163,-3.182113 11.582174,-5.234801 3.357011,-2.052688 6.196206,-4.233937 8.464359,-6.179364 2.268152,-1.945428 3.965174,-3.654949 5.454683,-5.725221 1.489509,-2.070272 2.771471,-4.50126 3.776807,-6.909298 1.005336,-2.408037 1.73399,-4.793048 2.255529,-7.240211 0.52154,-2.447163 0.835915,-4.956383 0.916771,-8.465069 C 94.737982,51.666212 94.58528,47.158252 94.00009,43.506692 93.4149,39.855133 92.397159,37.060133 90.833152,34.31546 89.269145,31.570787 87.158865,28.876634 84.71381,26.683088 82.268756,24.489542 79.488998,22.796829 76.340347,21.308982 73.191696,19.821134 69.674335,18.53831 65.854069,17.685574 62.033803,16.832839 57.910896,16.410321 53.67095,16.199043 c -4.239947,-0.211278 -8.596653,-0.211278 -12.915128,0.05937 -4.318475,0.270649 -8.598422,0.811953 -12.603006,1.969077 -4.004583,1.157124 -7.733456,2.930011 -10.863688,5.066141 -3.130232,2.136131 -5.661534,4.635317 -7.7138052,7.249512 -2.052271,2.614196 -3.6253465,5.343154 -4.8094962,8.533928 -1.1841497,3.190774 -1.9793151,6.84305 -2.3267538,10.260239 z"
       id="path146"
       inkscape:path-effect="#path-effect148"
       inkscape:original-d="m 1.9913733,49.572272 c 0.1005168,3.182218 0.2007689,6.364171 0.3007564,9.545859 0.5683675,2.357515 1.1364477,4.714672 1.7042745,7.071612 2.1971124,4.144258 4.3938721,8.288086 6.5904118,12.431731 4.475633,3.971893 8.950823,7.94336 13.425838,11.914645 3.68654,1.637416 7.37267,3.274504 11.058607,4.91136 4.377844,0.641484 8.755245,1.282676 13.132472,1.923616 4.82655,-0.591805 9.652646,-1.183849 14.478569,-1.776172 3.875122,-1.923833 7.749823,-3.847857 11.624336,-5.772182 2.839577,-2.181074 5.678773,-4.362323 8.517763,-6.543884 1.697355,-1.709324 3.394377,-3.418845 5.091165,-5.128665 1.28228,-2.430822 2.564241,-4.861811 3.845965,-7.293112 0.728948,-2.384843 1.4576,-4.769855 2.186006,-7.15518 0.314653,-2.50906 0.629028,-5.01828 0.943144,-7.527819 -0.152442,-4.507878 -0.305144,-9.015838 -0.458115,-13.524156 -1.017519,-2.794846 -2.03526,-5.589846 -3.053286,-8.385169 -2.1101,-2.693996 -4.22038,-5.38815 -6.330966,-8.082622 -2.779604,-1.692516 -5.559362,-3.385229 -8.339439,-5.078241 -3.517233,-1.282611 -7.034594,-2.565435 -10.552287,-3.848549 -4.122809,-0.42227 -8.245716,-0.844788 -12.368969,-1.267579 -4.356616,2.65e-4 -8.713322,2.65e-4 -13.070382,0 -4.279853,0.54159 -8.5598,1.082894 -12.840094,1.623944 -3.728759,1.773223 -7.457632,3.54611 -11.186844,5.318768 -2.53114,2.499551 -5.062442,4.998738 -7.5940598,7.497709 -1.5728744,2.729333 -3.1459506,5.458291 -4.7193226,8.187042 -0.7949324,3.652684 -1.5900977,7.30496 -2.3855433,10.957044 z" />
    <path
       style="fill:#6f8b40;stroke:none;stroke-width:0.264583px;stroke-linecap:butt;stroke-linejoin:miter;stroke-opacity:1;fill-opacity:1"
       inkscape:path-effect="#path-effect13589"
       inkscape:original-d="m 45.947554,36.134534 c 0.277038,-0.278378 0.553808,-0.557019 0.830316,-0.835927 0.133633,-0.484523 0.266999,-0.96929 0.400103,-1.454335 0.37379,-0.452305 0.747302,-0.904859 1.120558,-1.357686 0.906068,-0.247978 1.81184,-0.49621 2.717363,-0.744712 1.00403,-0.206777 2.007756,-0.413813 3.011236,-0.621117 0.51177,0.07993 1.023255,0.159599 1.534483,0.239003 1.635276,0.696013 3.270221,1.391735 4.904933,2.087203 5.437722,3.437141 10.87496,6.873883 16.312041,10.310426 2.210279,1.191186 4.420203,2.382062 6.629908,3.572698 1.551075,0.472763 3.101822,0.945242 4.652336,1.417468 0.194156,0.01233 0.581667,0.0362 0.581667,0.0362 0,0 -3.338213,-1.810655 -5.007715,-2.716377 -4.768697,-3.391434 -9.53747,-6.782996 -14.3066,-10.174888 -2.963805,-1.935067 -5.927754,-3.870319 -8.892027,-5.805876 -0.587907,-0.514848 -1.176054,-1.029936 -1.764477,-1.545302 0.01371,-0.27288 0.02716,-0.546018 0.04034,-0.819422 0.984472,-0.708544 1.968637,-1.417322 2.952562,-2.126379 1.241481,-0.517837 2.482649,-1.035918 3.723576,-1.554274 1.236655,-0.211966 2.472995,-0.424188 3.709094,-0.636678 1.849516,0.08748 3.698692,0.174684 5.54764,0.261629 1.93798,0.297112 3.875617,0.593948 5.813031,0.890525 1.970365,0.483 3.940386,0.965716 5.910183,1.448178 1.232839,0.426575 2.465366,0.852867 3.69765,1.278904 0.340132,0.135147 1.019582,0.404638 1.019582,0.404638 0,0 -1.147365,-0.815157 -1.721445,-1.223132 -1.30124,-0.536512 -2.602693,-1.073268 -3.904435,-1.610299 -1.562293,-0.538314 -3.12479,-1.076872 -4.687581,-1.615705 -1.640551,-0.368466 -3.281301,-0.737182 -4.92235,-1.106169 -1.543561,-0.135919 -3.087325,-0.272097 -4.631386,-0.408543 -1.197126,0.111232 -2.394471,0.222195 -3.592102,0.332896 -1.725269,0.20511 -3.450728,0.409946 -5.176489,0.614522 -0.512807,0.100245 -1.025858,0.20022 -1.539184,0.299934 -0.328186,-0.01161 -0.656624,-0.02349 -0.985335,-0.03563 0.02651,-0.209666 0.05275,-0.419588 0.07873,-0.629779 2.214105,-1.178383 4.427858,-2.356982 6.641389,-3.53587 1.142814,-0.425504 2.28532,-0.851254 3.427584,-1.277278 1.073666,-0.249656 2.147025,-0.499565 3.22014,-0.749745 0.887466,-0.07184 1.77463,-0.143953 2.661547,-0.216326 0.697386,-0.05432 1.394479,-0.108898 2.091323,-0.163743 0.681524,0.01214 2.043739,0.03563 2.043739,0.03563 0,0 -1.178565,-0.345973 -1.768247,-0.519357 -0.97822,0.01079 -1.956668,0.02131 -2.935402,0.03157 -1.340696,2.64e-4 -2.681605,2.64e-4 -4.022804,0 -1.056074,0.131731 -2.112367,0.263193 -3.168949,0.394392 -1.373251,0.53659 -2.746711,1.072893 -4.120462,1.608943 -3.083234,1.331984 -6.166609,2.663649 -9.250312,3.995076 -0.344069,0.0085 -0.688393,0.01668 -1.032986,0.02463 -0.29654,-0.03514 -0.593334,-0.07055 -0.8904,-0.106226 -0.09809,-0.435953 -0.196442,-0.872152 -0.295061,-1.308626 0.102654,-0.675828 0.205039,-1.351895 0.307161,-2.028239 0.198326,-0.478755 0.39638,-0.957755 0.594172,-1.437029 0.966261,-0.934984 1.932215,-1.870195 2.897925,-2.805689 1.414365,-1.072726 2.828409,-2.145674 4.242216,-3.218908 1.148802,-0.882449 2.297295,-1.7651258 3.445544,-2.6480853 0.542301,-0.2268749 1.084318,-0.4540052 1.626079,-0.6814048 0.431133,-0.079005 1.292582,-0.237804 1.292582,-0.237804 0,0 -0.96765,-0.3243689 -1.451874,-0.48695 -1.22082,0.2503106 -2.441856,0.5003466 -3.663183,0.7501228 -1.346496,0.6047494 -2.693204,1.2092099 -4.040206,1.8134179 -1.51883,1.0410294 -3.037867,2.0817534 -4.557199,3.1222334 -1.159963,0.916967 -2.320145,1.833634 -3.480615,2.750053 -0.617794,1.034493 -1.235827,2.068679 -1.854137,3.102622 -0.311245,1.054018 -0.622744,2.107729 -0.934513,3.161197 -0.09475,0.312091 -0.189757,0.623905 -0.285033,0.935461 -0.25305,0.124511 -0.506352,0.248752 -0.759926,0.37273 C 43.962544,21.916821 41.941053,20.850094 39.919256,19.783081 38.399037,18.693213 36.878614,17.603125 35.357895,16.51275 34.765702,15.997421 34.173265,15.481848 33.580553,14.966 32.991387,14.232218 32.401978,13.498201 31.812295,12.763904 31.4835,12.268642 31.154454,11.773135 30.825138,11.277354 30.633635,11.024849 30.249851,10.51906 30.249851,10.51906 c 0,0 0.73164,2.154866 1.097063,3.231902 0.548894,1.030622 1.097503,2.060938 1.64586,3.091011 1.177618,0.897213 2.354924,1.794127 3.531989,2.690793 0.798838,0.628126 1.597376,1.255962 2.395669,1.883546 0.483902,0.683748 0.967521,1.367205 1.450883,2.05041 0.363693,0.696586 0.727107,1.39288 1.090263,2.088923 0.01889,0.32656 0.03749,0.652841 0.05584,0.978864 -0.305035,0.08476 -0.610325,0.169254 -0.915881,0.253481 -2.379435,-0.257236 -4.759042,-0.514723 -7.138959,-0.772483 -1.462201,-0.324158 -2.924611,-0.648568 -4.387312,-0.973249 -1.169456,-0.290804 -2.339126,-0.581861 -3.509086,-0.873188 -1.269384,-0.23126 -2.538982,-0.462776 -3.808871,-0.694561 -0.809524,-0.09757 -1.61928,-0.195406 -2.429317,-0.293506 -1.157586,0.155515 -2.31539,0.310759 -3.473482,0.465742 -0.476905,0.122603 -1.431482,0.367008 -1.431482,0.367008 0,0 2.342351,0.02223 3.513129,0.03294 0.577766,0.03602 1.155244,0.07178 1.732469,0.10727 0.996002,0.205369 1.9917,0.410466 2.987153,0.615302 1.084141,0.337022 2.167975,0.673766 3.251565,1.010252 1.027368,0.330774 2.054433,0.661271 3.081252,0.991508 1.167892,0.295777 2.335472,0.591277 3.502811,0.886518 0.794461,0.08561 1.588624,0.17095 2.382541,0.256029 0.408551,0.04674 0.816822,0.09321 1.224835,0.13942 0.951619,0.185221 1.902937,0.370168 2.854008,0.554855 1.278927,0.406386 2.557536,0.81249 3.835908,1.218337 0.303403,0.257972 0.606528,0.515665 0.909397,0.773102 7.93e-4,1.7258 0.0016,3.451265 0.0019,5.176501 0.342093,0.09964 0.683908,0.199009 1.025466,0.298117 0.407649,0.02048 0.815018,0.04069 1.222129,0.06064 z"
       d="m 46.08594,35.995213 c 0.138386,-0.139321 0.415156,-0.417962 0.620204,-0.799588 0.205047,-0.381627 0.338412,-0.866394 0.591872,-1.335145 0.25346,-0.46875 0.626972,-0.921304 1.266735,-1.271744 0.639762,-0.350441 1.545534,-0.598674 2.500322,-0.82631 0.954788,-0.227637 1.958514,-0.434672 2.716187,-0.498312 0.757673,-0.06364 1.269159,0.01602 2.342421,0.403778 1.073263,0.387753 2.708208,1.083473 6.244419,3.149809 3.536211,2.066335 8.97345,5.503075 12.797133,7.816928 3.823683,2.313853 6.033607,3.504728 7.913998,4.336391 1.88039,0.831662 3.431137,1.304142 4.303454,1.546381 0.872317,0.242238 1.065924,0.254287 1.259813,0.266354 -1.669238,-0.905459 -3.338163,-1.810748 -6.55727,-3.959304 -3.219107,-2.148557 -7.987879,-5.540119 -11.854344,-8.203606 -3.866464,-2.663486 -6.830413,-4.598739 -8.606516,-5.823918 -1.776103,-1.225179 -2.364249,-1.740268 -2.651752,-2.134388 -0.287502,-0.394121 -0.274056,-0.667259 0.224802,-1.158375 0.498858,-0.491117 1.483023,-1.199894 2.595767,-1.813352 1.112744,-0.613457 2.353912,-1.131539 3.592743,-1.49669 1.238832,-0.365152 2.475172,-0.577374 4.018012,-0.639856 1.542839,-0.06248 3.392015,0.02473 5.28549,0.21677 1.893475,0.192045 3.831112,0.488881 5.785007,0.878685 1.953896,0.389804 3.923917,0.87252 5.525239,1.327055 1.601322,0.454535 2.833848,0.880828 3.620057,1.161428 0.786209,0.2806 1.125743,0.41535 1.465604,0.550229 -0.573815,-0.407711 -1.147329,-0.815208 -2.08498,-1.287492 -0.93765,-0.472285 -2.239103,-1.009041 -3.671121,-1.546725 -1.432018,-0.537683 -2.994515,-1.076241 -4.596191,-1.529911 -1.601676,-0.453669 -3.242426,-0.822384 -4.834743,-1.07486 -1.592316,-0.252475 -3.13608,-0.388654 -4.506697,-0.401284 -1.370618,-0.01263 -2.567963,0.09833 -4.029417,0.256235 -1.461454,0.157903 -3.186913,0.362739 -4.306209,0.515143 -1.119296,0.152404 -1.632347,0.25238 -2.053069,0.296456 -0.420722,0.04408 -0.74916,0.0322 -0.900412,-0.0786 -0.151253,-0.110795 -0.12501,-0.320716 0.995095,-1.015143 1.120104,-0.694426 3.333857,-1.873026 5.012054,-2.675223 1.678198,-0.802197 2.820703,-1.227948 3.928692,-1.565783 1.107988,-0.337835 2.181347,-0.587745 3.161662,-0.748745 0.980314,-0.161 1.867479,-0.233107 2.659631,-0.296452 0.792152,-0.06334 1.489245,-0.117925 2.178442,-0.139265 0.689198,-0.02134 1.370162,-0.0095 2.051408,0.0024 -0.589416,-0.173119 -1.178514,-0.346145 -1.962492,-0.427491 -0.783978,-0.08135 -1.762426,-0.07082 -2.922139,-0.06556 -1.159714,0.0053 -2.500623,0.0053 -3.699278,0.07098 -1.198654,0.06572 -2.254948,0.19718 -3.469908,0.531062 -1.214961,0.333882 -2.58842,0.870185 -4.81692,1.804202 -2.228499,0.934016 -5.311874,2.265681 -7.025695,2.935656 -1.71382,0.669976 -2.058143,0.678186 -2.378693,0.664607 -0.320549,-0.01358 -0.617343,-0.04899 -0.815033,-0.284664 -0.19769,-0.235676 -0.296042,-0.671875 -0.294075,-1.228071 0.002,-0.556195 0.104351,-1.232262 0.254564,-1.809855 0.150214,-0.577593 0.348267,-1.056593 0.930323,-1.763791 0.582056,-0.707198 1.548011,-1.642408 2.738066,-2.646531 1.190056,-1.004124 2.6041,-2.077072 3.885404,-3.054912 1.281303,-0.977841 2.429796,-1.8605184 3.275117,-2.4154478 0.845321,-0.5549295 1.387338,-0.7820604 1.873824,-0.9352543 0.486486,-0.1531939 0.91713,-0.232422 1.347991,-0.31169 -0.483958,-0.1623167 -0.967597,-0.3245264 -1.820177,-0.280736 -0.85258,0.04379 -2.073616,0.2938262 -3.357568,0.7210823 -1.283952,0.4272561 -2.63066,1.0317165 -4.063608,1.8543431 -1.432948,0.8226267 -2.951985,1.8633507 -4.291644,2.8420807 -1.339659,0.978729 -2.499841,1.895396 -3.389013,2.870905 -0.889172,0.975509 -1.507205,2.009695 -1.971985,3.053722 -0.46478,1.044027 -0.776278,2.097738 -0.979537,2.780516 -0.203259,0.682778 -0.298268,0.994592 -0.472351,1.212514 -0.174083,0.217923 -0.427385,0.342163 -1.564722,-0.12899 -1.137337,-0.471153 -3.158828,-1.53788 -4.929845,-2.616296 -1.771016,-1.078416 -3.291439,-2.168504 -4.347904,-2.971341 -1.056466,-0.802837 -1.648902,-1.318411 -2.239865,-1.943203 -0.590964,-0.624792 -1.180372,-1.35881 -1.639626,-1.973582 -0.459254,-0.614771 -0.7883,-1.110278 -1.048699,-1.484427 -0.260399,-0.374148 -0.452381,-0.627202 -0.644143,-0.879967 0.365688,1.077301 0.731483,2.154919 1.188672,3.208747 0.45719,1.053828 1.005799,2.084144 1.868849,3.047742 0.86305,0.963598 2.040357,1.860511 3.028306,2.62291 0.98795,0.762398 1.786489,1.390233 2.427547,2.045935 0.641057,0.655703 1.124676,1.33916 1.54818,2.029063 0.423503,0.689903 0.786917,1.386197 0.97786,1.89748 0.190943,0.511283 0.209556,0.837563 0.06629,1.042791 -0.143262,0.205227 -0.448552,0.28972 -1.790992,0.203257 -1.342439,-0.08646 -3.722046,-0.343952 -5.643096,-0.634892 -1.921049,-0.29094 -3.383459,-0.615351 -4.699536,-0.923089 -1.316077,-0.307738 -2.485747,-0.598794 -3.705424,-0.860099 -1.219676,-0.261305 -2.489274,-0.49282 -3.528985,-0.657509 -1.039712,-0.164689 -1.849468,-0.262522 -2.833313,-0.233848 -0.983846,0.02867 -2.141649,0.183919 -2.959168,0.322704 -0.817519,0.138784 -1.294855,0.261165 -1.772016,0.383501 1.171043,0.01098 2.342354,0.02196 3.216632,0.04534 0.874278,0.02338 1.451756,0.05913 2.238383,0.179585 0.786626,0.120454 1.782325,0.32555 2.822127,0.596497 1.039802,0.270947 2.123636,0.607691 3.179115,0.941322 1.055479,0.333632 2.082545,0.664129 3.179897,0.977124 1.097353,0.312996 2.264933,0.608496 3.245822,0.798897 0.980889,0.190402 1.775052,0.275743 2.376287,0.341653 0.601234,0.06591 1.009505,0.112382 1.689328,0.228109 0.679823,0.115727 1.631141,0.300676 2.746146,0.596232 1.115005,0.295557 2.393614,0.701661 3.184486,1.033641 0.790871,0.33198 1.093996,0.589674 1.245737,1.581304 0.151741,0.99163 0.152375,2.717095 0.323763,3.629446 0.171389,0.912351 0.513203,1.011721 0.887788,1.071475 0.374585,0.05975 0.781953,0.07997 0.985503,0.09007 0.203549,0.0101 0.203512,0.01009 0.341898,-0.129231 z"
       id="path13587" />
    <path
       style="fill:#4c6422;stroke:none;stroke-width:0.264583px;stroke-linecap:butt;stroke-linejoin:miter;stroke-opacity:1;fill-opacity:1"
       d="m 46.228701,28.306425 c 0.09108,-0.267296 0.273298,-0.802045 0.493047,-1.90174 0.21975,-1.099695 0.477002,-2.76433 0.615351,-4.064352 0.138348,-1.300022 0.157758,-2.235401 0.306125,-2.889521 0.148368,-0.65412 0.425709,-1.026733 0.785605,-1.337655 0.359896,-0.310922 0.802203,-0.560044 1.429617,-0.736713 0.627414,-0.176668 1.439748,-0.280893 2.023488,-0.129944 0.583739,0.150949 0.938832,0.556749 1.228628,1.005393 0.289796,0.448643 0.51438,0.940065 0.546074,1.384334 0.03169,0.44427 -0.129301,0.841547 -0.167642,1.468108 -0.03834,0.626561 0.04588,1.482213 0.120775,2.336479 0.07489,0.854267 0.140445,1.707102 0.347189,2.352325 0.206744,0.645224 0.554452,1.082793 0.624956,1.405333 0.0705,0.322539 -0.135965,0.530322 -0.571423,0.788102 -0.435458,0.257781 -1.099994,0.565599 -1.864732,0.831743 -0.764738,0.266144 -1.629698,0.490592 -2.580706,0.489975 -0.951008,-6.17e-4 -1.988129,-0.226411 -2.573679,-0.386286 -0.58555,-0.159876 -0.7195,-0.253974 -0.786627,-0.301129 -0.06713,-0.04716 -0.06713,-0.04716 0.02395,-0.314452 z"
       id="path13583"
       inkscape:path-effect="#path-effect13585"
       inkscape:original-d="m 46.13762,28.573722 c 0.182481,-0.534485 0.364697,-1.069234 0.546648,-1.604248 0.257527,-1.664438 0.514779,-3.329073 0.771774,-4.994005 0.01969,-0.935152 0.03908,-1.870531 0.05823,-2.806193 0.277617,-0.372363 0.554959,-0.744975 0.832038,-1.117859 0.442592,-0.248868 0.884899,-0.49799 1.326952,-0.747382 0.812636,-0.103965 1.62497,-0.208191 2.437058,-0.312683 0.355373,0.40608 0.710465,0.81188 1.0653,1.217424 0.224859,0.491705 0.449442,0.983127 0.673764,1.474294 -0.160734,0.397557 -0.321731,0.794833 -0.482991,1.191853 0.08449,0.85595 0.168722,1.711602 0.252687,2.567006 0.06582,0.853133 0.131376,1.705968 0.196668,2.558555 0.347988,0.437852 0.695695,0.875422 1.043146,1.312736 -0.206211,0.208055 -0.412679,0.415838 -0.619416,0.623359 -0.664297,0.308096 -1.328833,0.615913 -1.993646,0.923472 -0.86473,0.224721 -1.72969,0.44917 -2.594933,0.673359 -1.036897,-0.225538 -2.074018,-0.451331 -3.111426,-0.677394 -0.133688,-0.09383 -0.267636,-0.187931 -0.401852,-0.282294 z" />
    <path
       style="fill:#335500;stroke:none;stroke-width:0.264583px;stroke-linecap:butt;stroke-linejoin:miter;stroke-opacity:1;fill-opacity:1"
       inkscape:path-effect="#path-effect13589"
       inkscape:original-d="m 43.401798,36.519214 c 0,0 -0.01071,-6.690442 -0.01071,-6.690442 0,0 0.617833,0.578577 0.617833,0.578577 0,0 1.749555,5.469557 1.749555,5.469557 0,0 0.124074,0.676772 0.124074,0.676772 0,0 -2.480757,-0.03446 -2.480757,-0.03446 z"
       d="m 43.401798,36.519214 c 0,0 -0.01071,-6.690442 -0.01071,-6.690442 0,0 0.617833,0.578577 0.617833,0.578577 0,0 1.749555,5.469557 1.749555,5.469557 0,0 0.124074,0.676772 0.124074,0.676772 0,0 -2.480757,-0.03446 -2.480757,-0.03446 0,0 5e-6,-4e-6 5e-6,-4e-6 z"
       id="path13706" />
  </g>
</svg>
